<svg width="168" height="36" viewBox="0 0 168 36" fill="none" xmlns="http://www.w3.org/2000/svg">
<path d="M31.6707 9.92111C31.62 9.92111 31.1305 9.92895 31.1204 10.4683C31.1125 10.8678 31.1249 31.2791 31.1249 31.2791H28.3666L13.4792 12.6583C12.0792 40.9633 0.82894 35.113 0.82894 35.113C-0.889491 33.9469 0.354041 32.2762 1.93068 32.9219C12.0049 37.0534 11.844 10.437 11.844 9.91999C11.844 8.82445 10.192 8.27724 6.88678 8.27724V7.1817C7.23339 7.20184 9.12063 7.1817 9.64054 7.1817C13.3554 7.18506 15.1582 8.8334 15.6984 9.37278C16.0956 9.77004 29.4672 27.4453 29.4672 27.4453C29.4672 27.4453 29.4695 10.8555 29.4672 10.4672C29.4638 9.91664 28.9304 9.91999 28.9169 9.91999V9.37278C29.5179 9.39292 31.1508 9.39292 31.6707 9.37278" fill="#E5C997"/>
<path d="M40.4824 31.2466C34.4999 31.0721 32.2492 25.9525 33.8731 24.1273C35.9033 21.8456 46.5402 24.6745 46.5402 24.6745L47.0905 25.7701L37.7275 24.5503C37.4596 24.5201 37.1794 24.9532 37.1772 25.2217C37.1434 28.3103 39.3536 30.1365 41.0327 30.1511C42.813 30.1668 45.6275 29.6688 46.0259 25.7701L46.3039 24.4753C46.3444 24.1709 46.9802 20.5106 44.6575 18.4471C40.8447 15.0597 35.6872 20.1144 35.6861 20.1133L34.6473 19.7463C35.8245 18.089 37.9165 16.0221 41.0338 15.3652C44.6687 14.5987 49.8251 17.3482 49.8454 22.4845C49.8612 26.4034 47.1772 31.4413 40.4824 31.2466Z" fill="#E5C997"/>
<path d="M64.7161 11.4542C64.7442 11.4766 62.5127 13.1036 62.5127 13.1036C59.1343 10.7458 56.4481 10.3888 56.4481 13.6453L56.4379 15.2858L60.3103 15.2354L59.7285 16.388H56.4548L56.4346 27.8828C56.4492 36.5028 49.9491 35.4766 49.8883 35.5505L49.8546 34.4549C49.948 34.4493 52.8086 34.9966 52.6004 28.4311V16.3835L49.8467 16.388V15.2869H52.6004C52.7355 10.9976 56.6101 5.09467 64.7172 11.4531H64.7161V11.4542Z" fill="#E5C997"/>
<path d="M67.8578 31.3429C61.8754 31.1683 59.1486 26.1058 60.7725 24.2806C62.8027 21.9989 73.7424 24.6779 73.7424 24.6779L73.802 25.6962L64.4975 24.632C64.2296 24.6018 63.9944 24.8088 63.9911 25.0774C63.9573 28.1659 66.7786 30.4365 68.4588 30.451C70.2391 30.4667 72.6226 29.5972 73.021 25.6973L73.2607 24.5794C73.3012 24.275 73.937 20.6147 71.6143 18.5511C67.8015 15.1638 62.9265 19.6187 62.6474 20.2163C62.6474 20.2174 62.6451 20.2185 62.6429 20.2185L61.7088 19.8884C62.886 18.2311 64.7799 16.3198 67.8961 15.6629C71.531 14.8964 76.782 17.61 76.8022 22.7475C76.818 26.6664 74.5526 31.5421 67.8567 31.3474V31.344H67.8578V31.3429Z" fill="#E5C997"/>
<path d="M86.1961 15.4861C88.3286 15.7893 90.6019 16.5816 90.6019 16.5816C90.6401 16.6062 90.0999 19.2136 90.0515 19.3199H89.5013C89.3381 17.8484 86.7452 16.6387 85.6458 16.5816C82.2832 16.4048 81.6766 18.136 81.7903 19.3199C82.0468 22.0011 92.0963 22.6077 91.7036 26.9876C91.0846 33.8965 81.1713 30.8035 79.0365 29.7259C79.0038 29.7091 79.5857 27.1465 79.5868 27.0077L80.1371 27.0189C79.5868 29.727 87.1729 31.6159 88.9487 28.0842C90.6007 24.7987 82.084 23.9964 80.1371 22.0605C79.0354 20.9649 78.4851 14.3928 86.1949 15.4883V15.4861H86.1961Z" fill="#E5C997"/>
<path d="M33.3615 13.314L34.4553 13.9038C36.9705 11.697 39.6399 8.08586 48.4234 8.02991C63.2973 7.93591 68.3074 1.39959 68.2343 1.38057C47.7673 -4.02663 34.8605 11.6355 33.3604 13.3118V13.314H33.3615ZM60.3601 5.20321C55.7844 7.01942 51.5586 6.45654 51.5586 6.45654C51.5586 6.45654 58.5786 4.985 61.8917 2.93492C62.0695 2.82525 56.3088 2.43694 53.4864 3.3691C48.0104 5.17747 41.9863 7.40884 41.9863 7.40884C41.9863 7.40884 45.6628 3.97003 53.5584 2.10571C58.348 0.975479 65.7348 1.90876 65.7348 1.90876C65.7348 1.90876 62.6829 4.28112 60.3601 5.20209V5.20321Z" fill="#E5C997"/>
<path d="M60.3601 5.20209C62.6829 4.28112 65.7348 1.90876 65.7348 1.90876C65.7348 1.90876 58.348 0.975479 53.5584 2.10571C45.6628 3.97003 41.9863 7.40884 41.9863 7.40884C41.9863 7.40884 48.0104 5.17747 53.4864 3.3691C56.3088 2.43694 62.0695 2.82525 61.8917 2.93492C58.5786 4.985 51.5586 6.45654 51.5586 6.45654C51.5586 6.45654 55.7844 7.01942 60.3601 5.20321V5.20209ZM60.3601 5.20209H60.359M33.3615 13.314L34.4553 13.9038C36.9705 11.697 39.6399 8.08586 48.4234 8.02991C63.2973 7.93591 68.3074 1.39959 68.2343 1.38057C47.7673 -4.02663 34.8605 11.6355 33.3604 13.3118V13.314H33.3615Z" stroke="#E5C997" stroke-width="0.5" stroke-miterlimit="10"/>
<path d="M124.121 27.5706C124.411 28.4882 120.798 30.0952 119.342 30.5663C117.719 31.0911 116.039 31.353 114.306 31.353C112.101 31.353 110.098 30.8528 108.299 29.8534C106.5 28.853 105.136 27.4386 104.209 25.6078C103.281 23.7771 102.725 21.746 102.818 19.518C103.057 13.718 106.678 6.46103 115.87 7.10895C118.613 7.30254 122.873 8.42158 124.051 14.2395C124.147 14.714 123.782 15.1571 123.296 15.1571C122.94 15.1571 122.651 14.8673 122.654 14.5136C122.735 7.78932 106.846 4.49487 106.329 18.8298C106.214 21.9967 107.21 24.4988 108.972 26.3296C110.735 28.1603 113.043 29.0757 115.898 29.0757C117.128 29.0757 118.324 28.9179 119.488 28.6001C120.484 28.3293 121.664 27.8694 123.029 27.2226C123.429 27.0335 123.908 27.1868 124.122 27.5717L124.121 27.5706Z" fill="#E5C997"/>
<path d="M128.491 19.913C128.124 19.8739 127.867 19.5348 127.929 19.1733C128.085 18.2613 130.256 14.893 134.062 15.0038C134.808 15.0251 135.482 15.1101 136.086 15.3238C136.689 15.5365 137.167 15.8319 137.518 16.209C137.869 16.5861 138.134 17.0371 138.316 17.5608C138.497 18.0856 138.588 18.9216 138.588 20.0686L138.439 26.8388C138.439 27.7564 138.544 28.3573 138.752 28.6416C138.96 28.9258 139.231 29.0679 139.56 29.0679C139.956 29.0679 140.576 28.7725 141.423 28.1827L141.934 28.8553C140.384 30.2317 139.538 30.9647 139.395 31.052C139.087 31.2265 138.703 31.3138 138.241 31.3138C137.527 31.3138 136.974 31.1359 136.585 30.7812C136.194 30.4264 135.933 29.8277 135.802 28.9862C134.483 30.0023 133.505 30.6446 132.868 30.9121C132.23 31.1795 131.538 31.3138 130.79 31.3138C129.57 31.3138 128.587 30.9445 127.84 30.2071C127.092 29.4696 126.719 28.5274 126.719 27.3793C126.719 26.6799 126.85 26.0487 127.115 25.4859C127.378 24.923 127.757 24.4284 128.253 24.002C128.637 23.6853 129.286 23.3026 130.198 22.855C132.341 21.8165 134.209 20.9806 135.803 20.3472C135.748 18.8063 135.49 17.7846 135.03 17.2822C134.569 16.7797 133.861 16.5279 132.908 16.5279C132.009 16.5279 131.239 16.8043 130.598 17.356C130.022 17.8518 129.501 18.6015 129.035 19.6053C128.938 19.8123 128.721 19.9376 128.492 19.913H128.491ZM135.803 21.774C132.934 23.0531 131.201 23.9841 130.601 24.5682C130.003 25.1535 129.703 25.8551 129.703 26.6743C129.703 27.4934 129.928 28.1492 130.38 28.6416C130.83 29.1328 131.357 29.379 131.962 29.379C132.566 29.379 133.266 29.1742 133.998 28.7646C134.728 28.3551 135.212 27.8929 135.448 27.3793C135.685 26.8656 135.803 25.9312 135.803 24.5761V21.7729V21.774Z" fill="#E5C997"/>
<path d="M157.671 11.4542C157.699 11.4766 155.468 13.1037 155.468 13.1037C152.089 10.7459 149.403 10.3889 149.403 13.6453L149.393 15.2858L153.265 15.2355L152.684 16.3881H149.41L149.39 27.8829C149.404 36.5028 142.904 35.4767 142.843 35.5505L142.81 34.455C142.903 34.4494 145.764 34.9966 145.556 28.4312V16.3836L142.802 16.3881V15.2869H145.556C145.691 10.9977 149.565 5.09473 157.672 11.4531H157.671V11.4542Z" fill="#E5C997"/>
<path d="M166.2 27.0066L166.143 28.27C166.143 28.27 162.848 30.8696 162.139 31.0553C161.43 31.2411 160.714 31.3664 159.977 31.3664C158.183 31.3664 156.652 30.6513 155.38 29.219C154.109 27.7877 153.474 25.8529 153.474 23.4156C153.474 20.7926 154.235 18.6888 155.759 17.1042C157.283 15.5197 159.145 14.7274 161.347 14.7274C163.052 14.7274 164.369 15.194 165.3 16.1284C166.231 17.0628 167.668 18.7336 166.728 20.4155C166.153 21.445 164.195 21.3667 163.998 21.3667C161.083 21.3667 158.548 21.4103 156.393 21.4976C156.382 23.946 156.799 25.7981 157.645 27.0547C158.492 28.3226 159.624 28.956 161.042 28.956C161.756 28.956 162.504 28.8161 163.283 28.5375C164.063 28.2588 165.037 27.7485 166.202 27.0044L166.2 27.0066ZM163.81 19.8269C163.744 18.7447 163.502 17.9256 163.083 17.3683C162.466 16.5492 161.635 16.1385 160.588 16.1385C159.686 16.1385 158.881 16.4474 158.177 17.0651C157.472 17.6828 156.949 18.7022 156.607 20.1223C157.014 20.1335 157.322 20.1391 157.532 20.1391C159.338 20.1391 161.431 20.035 163.81 19.828V19.8269Z" fill="#E5C997"/>
</svg>
