<svg width="304" height="148" viewBox="0 0 304 148" fill="none" xmlns="http://www.w3.org/2000/svg">
<path d="M132.916 146.138L133.913 147.002C136.207 143.769 138.641 138.479 146.649 138.397C160.211 138.26 164.779 128.685 164.713 128.657C146.051 120.736 134.283 143.679 132.915 146.135V146.138H132.916ZM157.533 134.257C153.361 136.917 149.508 136.093 149.508 136.093C149.508 136.093 155.909 133.937 158.93 130.934C159.092 130.773 153.839 130.205 151.266 131.57C146.273 134.219 140.78 137.488 140.78 137.488C140.78 137.488 144.132 132.45 151.331 129.719C155.698 128.064 162.434 129.431 162.434 129.431C162.434 129.431 159.651 132.906 157.533 134.255V134.257Z" fill="#C89A4B"/>
<path d="M157.533 134.255C159.651 132.906 162.434 129.431 162.434 129.431C162.434 129.431 155.698 128.064 151.331 129.719C144.132 132.45 140.78 137.488 140.78 137.488C140.78 137.488 146.273 134.219 151.266 131.57C153.839 130.205 159.092 130.773 158.93 130.934C155.909 133.937 149.508 136.093 149.508 136.093C149.508 136.093 153.361 136.917 157.533 134.257V134.255ZM157.533 134.255H157.532M132.916 146.138L133.913 147.002C136.207 143.769 138.641 138.479 146.649 138.397C160.211 138.26 164.779 128.685 164.713 128.657C146.051 120.736 134.283 143.679 132.915 146.135V146.138H132.916Z" stroke="#C89A4B" stroke-width="0.5" stroke-miterlimit="10"/>
<path d="M1.5 135.13C3.58699 135.155 5.67397 135.18 7.76096 135.205C45.3267 135.655 82.8925 136.105 120.458 136.555C122.545 136.58 124.632 136.605 126.719 136.63C127.117 136.635 127.499 136.481 127.78 136.2C128.061 135.919 128.219 135.533 128.219 135.13C128.219 134.728 128.061 134.342 127.78 134.061C127.499 133.779 127.117 133.626 126.719 133.63C124.632 133.655 122.545 133.68 120.458 133.705C82.8925 134.155 45.3267 134.605 7.76096 135.055C5.67397 135.08 3.58699 135.105 1.5 135.13Z" fill="#C89A4B"/>
<path d="M302.5 135.373C300.413 135.398 298.326 135.423 296.239 135.448C258.673 135.898 221.108 136.348 183.542 136.798C181.455 136.823 179.368 136.848 177.281 136.873C176.883 136.878 176.501 136.724 176.22 136.443C175.939 136.162 175.781 135.776 175.781 135.373C175.781 134.971 175.939 134.585 176.22 134.304C176.501 134.022 176.883 133.868 177.281 133.873C179.368 133.898 181.455 133.923 183.542 133.948C221.108 134.398 258.673 134.848 296.239 135.298C298.326 135.323 300.413 135.348 302.5 135.373Z" fill="#C89A4B"/>
<mask id="path-7-inside-1_259_9" fill="white">
<path d="M104.432 32.724C104.265 32.724 102.651 32.7497 102.617 34.519C102.591 35.8295 102.632 102.784 102.632 102.784H93.5389L44.4583 41.7027C39.843 134.551 2.75334 115.36 2.75334 115.36C-2.91195 111.535 1.1877 106.055 6.38552 108.173C39.5981 121.725 39.0676 34.4163 39.0676 32.7204C39.0676 29.1267 33.6212 27.3317 22.7247 27.3317V23.738C23.8674 23.8041 30.0892 23.738 31.8032 23.738C44.0502 23.749 49.9937 29.1561 51.7746 30.9254C53.0842 32.2285 97.1673 90.2081 97.1673 90.2081C97.1673 90.2081 97.1747 35.7891 97.1673 34.5154C97.1562 32.7094 95.3976 32.7204 95.3531 32.7204V30.9254C97.3343 30.9914 102.718 30.9914 104.432 30.9254"/>
</mask>
<path d="M104.432 32.724C104.265 32.724 102.651 32.7497 102.617 34.519C102.591 35.8295 102.632 102.784 102.632 102.784H93.5389L44.4583 41.7027C39.843 134.551 2.75334 115.36 2.75334 115.36C-2.91195 111.535 1.1877 106.055 6.38552 108.173C39.5981 121.725 39.0676 34.4163 39.0676 32.7204C39.0676 29.1267 33.6212 27.3317 22.7247 27.3317V23.738C23.8674 23.8041 30.0892 23.738 31.8032 23.738C44.0502 23.749 49.9937 29.1561 51.7746 30.9254C53.0842 32.2285 97.1673 90.2081 97.1673 90.2081C97.1673 90.2081 97.1747 35.7891 97.1673 34.5154C97.1562 32.7094 95.3976 32.7204 95.3531 32.7204V30.9254C97.3343 30.9914 102.718 30.9914 104.432 30.9254" fill="#C89A4B"/>
<path d="M102.617 34.519L103.617 34.5389L103.617 34.5379L102.617 34.519ZM102.632 102.784V103.784H103.633L103.632 102.783L102.632 102.784ZM93.5389 102.784L92.7594 103.41L93.0596 103.784H93.5389V102.784ZM44.4583 41.7027L45.2378 41.0763L43.5901 39.0258L43.4595 41.6531L44.4583 41.7027ZM2.75334 115.36L2.19378 116.189L2.24206 116.221L2.29379 116.248L2.75334 115.36ZM6.38552 108.173L6.76332 107.247L6.76287 107.247L6.38552 108.173ZM22.7247 27.3317H21.7247V28.3317H22.7247V27.3317ZM22.7247 23.738L22.7824 22.7397L21.7247 22.6785V23.738H22.7247ZM31.8032 23.738L31.8041 22.738H31.8032V23.738ZM51.7746 30.9254L52.4799 30.2165L52.4794 30.216L51.7746 30.9254ZM97.1673 90.2081L96.3713 90.8133L98.1669 93.175L98.1673 90.2082L97.1673 90.2081ZM97.1673 34.5154L98.1673 34.5095L98.1673 34.5092L97.1673 34.5154ZM95.3531 32.7204H94.3531V33.7204H95.3531V32.7204ZM95.3531 30.9254L95.3864 29.9259L94.3531 29.8915V30.9254H95.3531ZM104.432 32.724V31.724C104.302 31.724 103.655 31.7299 103.005 32.0749C102.666 32.2552 102.313 32.5347 102.046 32.9583C101.777 33.384 101.629 33.9007 101.618 34.5002L102.617 34.519L103.617 34.5379C103.623 34.2527 103.689 34.1027 103.737 34.026C103.787 33.9472 103.854 33.8885 103.944 33.8412C104.151 33.7311 104.394 33.724 104.432 33.724V32.724ZM102.617 34.519L101.618 34.4992C101.604 35.1679 101.608 52.2534 101.615 69.1434C101.619 77.5947 101.623 86.005 101.626 92.3025C101.628 95.4512 101.63 98.0718 101.631 99.9051C101.631 100.822 101.632 101.542 101.632 102.032C101.632 102.278 101.632 102.466 101.632 102.593C101.632 102.656 101.632 102.704 101.632 102.736C101.632 102.752 101.632 102.764 101.632 102.772C101.632 102.777 101.632 102.78 101.632 102.782C101.632 102.783 101.632 102.783 101.632 102.784C101.632 102.784 101.632 102.785 102.632 102.784C103.632 102.783 103.632 102.783 103.632 102.783C103.632 102.782 103.632 102.781 103.632 102.78C103.632 102.778 103.632 102.775 103.632 102.771C103.632 102.763 103.632 102.751 103.632 102.735C103.632 102.703 103.632 102.655 103.632 102.591C103.632 102.465 103.632 102.277 103.632 102.031C103.632 101.541 103.631 100.821 103.631 99.904C103.63 98.0706 103.628 95.4501 103.626 92.3014C103.623 86.004 103.619 77.5937 103.615 69.1426C103.608 52.2276 103.605 35.1806 103.617 34.5389L102.617 34.519ZM102.632 102.784V101.784H93.5389V102.784V103.784H102.632V102.784ZM93.5389 102.784L94.3184 102.158L45.2378 41.0763L44.4583 41.7027L43.6788 42.3291L92.7594 103.41L93.5389 102.784ZM44.4583 41.7027L43.4595 41.6531C41.154 88.0348 30.7397 106.006 21.3065 112.527C16.6122 115.772 12.0793 116.243 8.71839 115.913C7.03254 115.747 5.64033 115.38 4.67423 115.055C4.19173 114.893 3.81729 114.743 3.56771 114.635C3.44298 114.581 3.34962 114.538 3.28973 114.509C3.25979 114.495 3.23824 114.485 3.22534 114.478C3.21889 114.475 3.21461 114.473 3.21252 114.472C3.21147 114.471 3.21098 114.471 3.21104 114.471C3.21107 114.471 3.21153 114.471 3.21154 114.471C3.21214 114.472 3.21288 114.472 2.75334 115.36C2.29379 116.248 2.29482 116.249 2.29598 116.249C2.29656 116.25 2.29787 116.25 2.29903 116.251C2.30134 116.252 2.30422 116.254 2.30768 116.255C2.31458 116.259 2.32374 116.263 2.33514 116.269C2.35792 116.28 2.38964 116.296 2.43002 116.315C2.51077 116.354 2.62624 116.407 2.77429 116.471C3.07026 116.599 3.49718 116.77 4.03787 116.951C5.11814 117.314 6.6596 117.72 8.52302 117.903C12.2606 118.27 17.2886 117.735 22.4437 114.172C32.7091 107.076 43.1473 88.2187 45.4571 41.7524L44.4583 41.7027ZM2.75334 115.36L3.3129 114.531C2.0299 113.665 1.3961 112.771 1.15089 112.016C0.90976 111.275 1.01867 110.601 1.34933 110.059C2.01131 108.974 3.77036 108.187 6.00816 109.099L6.38552 108.173L6.76287 107.247C3.80286 106.041 0.913176 106.934 -0.357803 109.017C-0.993617 110.059 -1.17224 111.339 -0.751129 112.635C-0.334087 113.918 0.644133 115.143 2.19378 116.189L2.75334 115.36ZM6.38552 108.173L6.00771 109.099C10.3428 110.868 14.2199 111.023 17.6522 109.836C21.0665 108.656 23.9219 106.19 26.3103 102.93C31.0667 96.4393 34.1469 86.5612 36.1623 76.3585C40.2022 55.9073 40.0676 33.568 40.0676 32.7204H39.0676H38.0676C38.0676 33.5686 38.1982 55.7317 34.2002 75.9709C32.1967 86.1133 29.1822 95.6273 24.697 101.748C22.4646 104.795 19.9125 106.939 16.9988 107.946C14.103 108.947 10.7314 108.866 6.76332 107.247L6.38552 108.173ZM39.0676 32.7204H40.0676C40.0676 30.2531 38.1438 28.6678 35.2954 27.7287C32.4168 26.7796 28.2016 26.3317 22.7247 26.3317V27.3317V28.3317C28.1442 28.3317 32.1005 28.7813 34.6692 29.6281C37.2681 30.485 38.0676 31.594 38.0676 32.7204H39.0676ZM22.7247 27.3317H23.7247V23.738H22.7247H21.7247V27.3317H22.7247ZM22.7247 23.738L22.667 24.7364C23.8477 24.8046 30.1396 24.738 31.8032 24.738V23.738V22.738C30.0387 22.738 23.8871 22.8036 22.7824 22.7397L22.7247 23.738ZM31.8032 23.738L31.8023 24.738C43.7043 24.7487 49.4092 29.985 51.0698 31.6348L51.7746 30.9254L52.4794 30.216C50.5782 28.3271 44.3961 22.7494 31.8041 22.738L31.8032 23.738ZM51.7746 30.9254L51.0692 31.6342C51.0681 31.6331 51.1179 31.6877 51.2481 31.8458C51.3647 31.9874 51.5216 32.1822 51.7176 32.4285C52.1091 32.9205 52.6472 33.6068 53.3118 34.4609C54.6406 36.1686 56.4686 38.5383 58.6267 41.3473C62.9426 46.9648 68.575 54.3333 74.1671 61.662C79.759 68.9905 85.3101 76.2783 89.4632 81.7341C91.5397 84.462 93.2668 86.7318 94.4747 88.3197C95.0786 89.1136 95.5528 89.737 95.876 90.1619C96.0375 90.3744 96.1614 90.5373 96.2448 90.647C96.2865 90.7019 96.3182 90.7434 96.3393 90.7713C96.3499 90.7852 96.3579 90.7957 96.3633 90.8028C96.3659 90.8063 96.3679 90.8089 96.3693 90.8107C96.3699 90.8115 96.3704 90.8122 96.3708 90.8127C96.3711 90.8131 96.3713 90.8133 97.1673 90.2081C97.9634 89.6028 97.9632 89.6026 97.9629 89.6022C97.9625 89.6017 97.962 89.601 97.9613 89.6002C97.96 89.5984 97.958 89.5958 97.9553 89.5922C97.95 89.5852 97.942 89.5747 97.9314 89.5608C97.9102 89.5329 97.8786 89.4913 97.8368 89.4364C97.7534 89.3267 97.6295 89.1638 97.4679 88.9513C97.1447 88.5263 96.6705 87.9028 96.0665 87.1088C94.8584 85.5208 93.1313 83.2508 91.0546 80.5227C86.9012 75.0666 81.3496 67.7781 75.7571 60.4488C70.1646 53.1197 64.5307 45.749 60.2127 40.1288C58.0538 37.3189 56.2229 34.9452 54.8902 33.2327C54.2242 32.3767 53.6809 31.6837 53.2827 31.1833C52.91 30.7149 52.6142 30.3502 52.4799 30.2165L51.7746 30.9254ZM97.1673 90.2081C98.1673 90.2082 98.1673 90.208 98.1673 90.2076C98.1673 90.2072 98.1673 90.2065 98.1673 90.2057C98.1673 90.2041 98.1673 90.2016 98.1673 90.1983C98.1673 90.1917 98.1673 90.1818 98.1673 90.1688C98.1673 90.1426 98.1673 90.1036 98.1673 90.0521C98.1674 89.949 98.1674 89.7962 98.1674 89.5967C98.1675 89.1978 98.1675 88.6126 98.1676 87.8674C98.1678 86.3769 98.1681 84.2462 98.1684 81.6853C98.1689 76.5636 98.1696 69.7214 98.1701 62.8394C98.171 49.0791 98.171 35.1503 98.1673 34.5095L97.1673 34.5154L96.1673 34.5212C96.171 35.1541 96.171 49.0718 96.1701 62.8393C96.1696 69.7213 96.1689 76.5634 96.1684 81.6851C96.1681 84.2459 96.1678 86.3766 96.1676 87.8671C96.1675 88.6124 96.1675 89.1976 96.1674 89.5965C96.1674 89.7959 96.1674 89.9488 96.1673 90.0518C96.1673 90.1033 96.1673 90.1423 96.1673 90.1685C96.1673 90.1816 96.1673 90.1914 96.1673 90.198C96.1673 90.2013 96.1673 90.2038 96.1673 90.2054C96.1673 90.2063 96.1673 90.2069 96.1673 90.2073C96.1673 90.2077 96.1673 90.2079 97.1673 90.2081ZM97.1673 34.5154L98.1673 34.5092C98.1635 33.8882 98.0065 33.3557 97.7197 32.9217C97.4362 32.4927 97.0647 32.2184 96.7195 32.0459C96.3788 31.8758 96.0492 31.7971 95.8105 31.7592C95.6888 31.7399 95.5843 31.7302 95.5049 31.7253C95.465 31.7229 95.4311 31.7216 95.4042 31.721C95.3907 31.7207 95.3791 31.7205 95.3696 31.7204C95.3602 31.7204 95.3522 31.7204 95.3531 31.7204V32.7204V33.7204C95.3549 33.7204 95.3544 33.7203 95.3572 33.7204C95.3609 33.7205 95.3694 33.7208 95.3819 33.7215C95.4073 33.7231 95.4475 33.7266 95.4971 33.7345C95.601 33.751 95.7201 33.7824 95.826 33.8353C95.9273 33.8859 96.0003 33.9474 96.0511 34.0243C96.0986 34.0962 96.1656 34.2396 96.1673 34.5215L97.1673 34.5154ZM95.3531 32.7204H96.3531V30.9254H95.3531H94.3531V32.7204H95.3531ZM95.3531 30.9254L95.3198 31.9248C97.3213 31.9916 102.729 31.9918 104.47 31.9246L104.432 30.9254L104.393 29.9261C102.706 29.9911 97.3473 29.9913 95.3864 29.9259L95.3531 30.9254Z" fill="#C89A4B" mask="url(#path-7-inside-1_259_9)"/>
<path d="M135.403 51.0715C141.243 49.8463 148.35 51.4297 154.007 55.4065C159.651 59.3742 163.818 65.699 163.851 73.9377C163.876 80.2597 161.711 87.4824 156.837 93.0374C151.976 98.5776 144.392 102.493 133.497 102.178C123.784 101.896 117.144 97.6256 113.588 92.7375C111.807 90.2893 110.803 87.6929 110.562 85.3674C110.322 83.0385 110.847 81.0204 112.065 79.6575C112.815 78.8192 113.995 78.1816 115.548 77.7327C117.095 77.2851 118.972 77.0368 121.063 76.9465C125.247 76.766 130.222 77.22 135.012 77.9104C139.797 78.6002 144.377 79.5233 147.762 80.2747C149.453 80.6502 150.846 80.9826 151.814 81.2209C151.875 81.2358 151.933 81.2508 151.99 81.2649L151.462 83.7151L124.464 80.2161L124.456 80.2151L124.32 80.2073C124.007 80.205 123.719 80.3155 123.479 80.467C123.204 80.6403 122.963 80.8831 122.766 81.1438C122.382 81.6516 122.091 82.3284 122.086 82.9084C121.972 93.2762 129.442 99.5336 135.292 99.5842C138.263 99.6102 142.164 99.2125 145.5 97.1379C148.855 95.0519 151.567 91.3151 152.248 84.8254L155.203 85.2092L156.14 85.3303L155.714 84.4875L153.9 80.8938L153.799 80.6936L153.582 80.636H153.581L153.58 80.635C153.579 80.6347 153.577 80.6346 153.575 80.634C153.571 80.6329 153.564 80.6313 153.556 80.6292C153.538 80.6246 153.512 80.6174 153.479 80.6086C153.411 80.5912 153.312 80.5656 153.183 80.5325C153.179 80.5314 153.174 80.5296 153.17 80.5286C153.238 80.0232 153.802 76.7214 153.38 72.6907C152.957 68.6549 151.538 63.8174 147.578 60.3167C141.07 54.5632 133.425 56.0177 127.532 58.8069C124.579 60.2049 122.029 61.9518 120.22 63.3459C119.314 64.0437 118.592 64.6556 118.096 65.093C117.863 65.2982 117.678 65.4643 117.549 65.5842L115.044 64.7043C118.946 59.4278 125.629 53.121 135.403 51.0715ZM153.107 81.5452L154.396 84.095L152.457 83.844L152.961 81.5071C153.016 81.5211 153.065 81.5341 153.107 81.5452Z" fill="#C89A4B" stroke="#C89A4B"/>
<path d="M183.809 31.3677C190.067 27.576 199.55 27.7732 212.581 37.7661C212.415 37.8948 212.212 38.0529 211.978 38.23C211.303 38.7387 210.395 39.412 209.481 40.0835C208.568 40.7547 207.652 41.423 206.964 41.9243C206.62 42.1748 206.334 42.3838 206.133 42.5298C206.122 42.5376 206.111 42.5448 206.101 42.5522C203.405 40.7012 200.836 39.228 198.485 38.2173C196.055 37.1723 193.829 36.6061 191.927 36.646C190.008 36.6863 188.398 37.3463 187.282 38.7593C186.181 40.1533 185.618 42.2102 185.617 44.937L185.583 50.3188L185.58 50.8286L186.09 50.8218L198.029 50.6665L196.625 53.437H185.64L185.639 53.937L185.572 91.6421V91.644C185.584 98.6509 184.266 103.655 182.311 107.228C180.358 110.797 177.754 112.966 175.148 114.286C172.536 115.609 169.91 116.084 167.915 116.241C166.919 116.319 166.084 116.319 165.489 116.305C165.283 116.301 165.117 116.294 164.975 116.29L164.896 113.73C165.206 113.735 165.625 113.717 166.112 113.626C167.112 113.44 168.392 112.95 169.627 111.75C172.013 109.431 174.14 104.559 173.957 94.4233L173.932 93.4263V53.4224H173.432L164.854 53.436V50.8257H173.916L173.932 50.3413C174.151 43.4119 177.41 35.2439 183.809 31.3677Z" fill="#C89A4B" stroke="#C89A4B"/>
<path d="M223.962 52.0479C229.804 50.8221 236.99 52.3783 242.726 56.3281C248.448 60.2687 252.688 66.5646 252.721 74.8008C252.746 81.141 250.916 88.229 246.39 93.6426C241.946 98.957 234.862 102.706 224.233 102.517V102.508L223.748 102.493C214.03 102.211 206.989 97.9821 203.038 93.125C201.06 90.6933 199.867 88.1168 199.485 85.8105C199.104 83.502 199.539 81.5108 200.747 80.1602C201.496 79.3224 202.692 78.6768 204.273 78.2139C205.85 77.7526 207.766 77.4862 209.905 77.373C214.184 77.1467 219.286 77.5388 224.2 78.168C229.111 78.7966 233.816 79.6588 237.294 80.3643C238.761 80.6617 240.008 80.9325 240.961 81.1445L240.424 83.6357L212.712 80.4834H212.711C211.538 80.3518 210.5 81.2537 210.485 82.4346V82.4355C210.428 87.6601 212.797 92.1756 215.87 95.3818C218.926 98.571 222.757 100.542 225.71 100.567C228.721 100.594 232.278 99.8761 235.257 97.4766C238.213 95.0952 240.532 91.1098 241.228 84.7344L243.273 84.9678L243.864 85.0352L243.829 84.4414L243.633 81.1006L243.61 80.7324L243.252 80.6445L243.164 81.002C243.251 80.6445 243.251 80.6446 243.251 80.6445H243.25C243.249 80.6442 243.246 80.6431 243.244 80.6426C243.24 80.6415 243.233 80.6398 243.225 80.6377C243.207 80.6334 243.181 80.6274 243.146 80.6191C243.077 80.6026 242.974 80.5783 242.841 80.5469C242.655 80.5033 242.41 80.4467 242.109 80.3779C242.27 79.2178 242.601 76.376 242.25 73.0322C241.827 68.9964 240.409 64.1589 236.448 60.6582C229.96 54.923 222.567 55.8528 216.767 58.4043C213.866 59.6802 211.341 61.3692 209.482 62.8623C208.553 63.6092 207.785 64.3109 207.217 64.8926C206.933 65.1832 206.696 65.4475 206.513 65.6748C206.451 65.7515 206.392 65.827 206.339 65.9004L204.26 65.1699C208.121 59.9261 214.192 54.097 223.962 52.0479ZM242.612 81.5205C242.627 81.524 242.641 81.527 242.655 81.5303L242.796 83.9062L241.423 83.75L241.937 81.3643C242.212 81.4274 242.439 81.4798 242.612 81.5205Z" fill="#C89A4B" stroke="#C89A4B"/>
<path d="M270.042 52.7856C273.276 51.267 277.824 50.5916 284.114 51.481L284.685 51.562V51.5571C287.99 52.0628 291.357 52.9 293.951 53.6294C295.321 54.0146 296.472 54.3697 297.28 54.6274C297.66 54.7485 297.964 54.8478 298.179 54.9194C298.143 55.1521 298.086 55.4776 298.014 55.8696C297.863 56.6838 297.647 57.7682 297.423 58.8628C297.199 59.9568 296.966 61.0586 296.779 61.9077C296.686 62.3325 296.604 62.6923 296.541 62.9556C296.533 62.9903 296.524 63.0233 296.517 63.0542H295.511C295.271 61.8795 294.622 60.7862 293.756 59.8091C292.78 58.7073 291.504 57.7237 290.146 56.897C287.447 55.2526 284.323 54.1721 282.399 54.0728C276.779 53.7788 273.345 55.0659 271.368 57.0356C269.515 58.8823 269.027 61.2454 269.136 63.2144L269.165 63.603C269.287 64.866 269.986 65.964 271.021 66.936C272.055 67.9066 273.461 68.7872 275.08 69.6196C278.31 71.2801 282.534 72.82 286.616 74.5034C290.729 76.1996 294.716 78.0477 297.592 80.3433C300.457 82.6304 302.15 85.301 301.847 88.6616C301.349 94.1871 298.999 97.6558 295.683 99.7456C292.338 101.853 287.953 102.594 283.347 102.522C274.395 102.382 264.841 99.1739 261.124 97.395C261.165 97.1657 261.23 96.8367 261.312 96.437C261.476 95.6369 261.705 94.569 261.938 93.4858C262.172 92.4042 262.409 91.3073 262.588 90.4526C262.677 90.0255 262.753 89.6561 262.807 89.3784C262.813 89.3448 262.817 89.312 262.823 89.2808L263.638 89.2974C263.441 91.5528 264.789 93.564 266.861 95.1313C269.121 96.8399 272.34 98.1085 275.773 98.7241C279.21 99.3401 282.909 99.3099 286.138 98.3745C289.371 97.4379 292.166 95.5822 293.709 92.5298C294.433 91.0972 294.618 89.7575 294.328 88.5083C294.04 87.2677 293.297 86.1739 292.268 85.1997C290.224 83.265 286.94 81.6982 283.369 80.2983C281.575 79.5951 279.689 78.9275 277.827 78.2739C275.962 77.6193 274.121 76.9789 272.403 76.3276C268.941 75.0148 266.083 73.6912 264.564 72.189C264.182 71.8107 263.789 71.1552 263.454 70.2632C263.123 69.3795 262.861 68.2968 262.724 67.0972C262.448 64.6951 262.67 61.865 263.766 59.2642C264.857 56.6728 266.816 54.3003 270.042 52.7856Z" fill="#C89A4B" stroke="#C89A4B"/>
<path d="M110.009 43.8537L113.615 45.7882C121.907 38.5495 130.707 26.7039 159.664 26.5204C208.7 26.2121 225.218 4.77118 224.976 4.70878C157.501 -13.0283 114.95 38.3476 110.005 43.8464V43.8537H110.009ZM199.017 17.2481C183.932 23.2057 170.001 21.3593 170.001 21.3593C170.001 21.3593 193.144 16.5323 204.066 9.80745C204.653 9.44772 185.661 8.17397 176.356 11.2317C158.303 17.1636 138.443 24.4831 138.443 24.4831C138.443 24.4831 150.563 13.2029 176.593 7.08743C192.383 3.37997 216.736 6.44138 216.736 6.44138C216.736 6.44138 206.675 14.2234 199.017 17.2444V17.2481Z" fill="#C89A4B"/>
<path d="M199.017 17.2444C206.675 14.2234 216.736 6.44138 216.736 6.44138C216.736 6.44138 192.383 3.37997 176.593 7.08743C150.563 13.2029 138.443 24.4831 138.443 24.4831C138.443 24.4831 158.303 17.1636 176.356 11.2317C185.661 8.17397 204.653 9.44772 204.066 9.80745C193.144 16.5323 170.001 21.3593 170.001 21.3593C170.001 21.3593 183.932 23.2057 199.017 17.2481V17.2444ZM199.017 17.2444H199.013M110.009 43.8537L113.615 45.7882C121.907 38.5495 130.707 26.7039 159.664 26.5204C208.7 26.2121 225.218 4.77118 224.976 4.70878C157.501 -13.0283 114.95 38.3476 110.005 43.8464V43.8537H110.009Z" stroke="#C89A4B" stroke-width="2" stroke-miterlimit="10"/>
</svg>
