<svg width="222" height="46" viewBox="0 0 222 46" fill="none" xmlns="http://www.w3.org/2000/svg">
<path d="M12.0878 31.987C4.22435 25.1192 1.37057 24.597 1.99403 15.5635C-6.21593 35.2532 13.4397 37.73 15.609 45.9997C15.759 44.1037 16.1141 35.5045 12.0866 31.987H12.0878Z" fill="#C89A4B"/>
<path d="M17.4172 43.3217C12.5759 25.7354 28.8164 30.179 26.9668 13.8311C30.8808 19.9608 33.0831 30.5377 21.2409 38.1888C18.6592 40.0836 17.4172 43.3217 17.4172 43.3217Z" fill="#C89A4B"/>
<path d="M15.5541 30.0324C14.8916 23.8075 19.8269 20.7097 21.28 16.6737C23.3529 9.56182 20.5089 6.76294 20.5089 6.76294C23.1736 8.13066 27.8197 17.0446 21.9535 21.7224C16.3447 26.1952 15.8018 29.0283 15.5529 30.0336L15.5541 30.0324Z" fill="#C89A4B"/>
<path d="M12.2391 28.7611C9.47805 22.8522 7.69184 22.873 5.91052 19.1859C4.10357 15.4451 6.12769 12.1008 6.12769 12.1008C6.12769 12.1008 1.68536 15.8294 4.0023 20.4914C5.9947 24.5006 7.94562 23.7819 12.2391 28.7611Z" fill="#C89A4B"/>
<path d="M14.0803 29.0283C0.981418 8.6016 14.9063 12.8243 13.6789 0C25.6723 12.6755 13.5239 19.3005 14.0803 29.0283Z" fill="#C89A4B"/>
<path d="M74.6794 17.9877C74.6245 17.9877 74.0938 17.9963 74.0828 18.5844C74.0743 19.0199 74.0877 41.2743 74.0877 41.2743H71.0972L54.9567 20.9721C53.4389 51.8329 41.2417 45.4543 41.2417 45.4543C39.3787 44.183 40.7269 42.3614 42.4362 43.0654C53.3584 47.5699 53.1839 18.5502 53.1839 17.9865C53.1839 16.7921 51.3928 16.1954 47.8095 16.1954V15.001C48.1852 15.0229 50.2313 15.001 50.795 15.001C54.8225 15.0046 56.7771 16.8018 57.3627 17.3899C57.7934 17.823 72.2905 37.0943 72.2905 37.0943C72.2905 37.0943 72.2929 19.0065 72.2905 18.5831C72.2868 17.9829 71.7085 17.9865 71.6939 17.9865V17.3899C72.3454 17.4119 74.1157 17.4119 74.6794 17.3899" fill="#C89A4B"/>
<path d="M84.2327 41.2389C77.7468 41.0486 75.3066 35.4667 77.0672 33.4767C79.2682 30.989 90.8005 34.0733 90.8005 34.0733L91.3971 35.2678L81.246 33.9379C80.9556 33.905 80.6518 34.3771 80.6493 34.67C80.6127 38.0374 83.009 40.0286 84.8294 40.0444C86.7595 40.0615 89.811 39.5186 90.2429 35.2678L90.5442 33.8562C90.5882 33.5243 91.2775 29.5334 88.7593 27.2836C84.6256 23.5904 79.034 29.1015 79.0327 29.1003L77.9066 28.7001C79.1828 26.8931 81.4509 24.6396 84.8306 23.9234C88.7715 23.0877 94.3619 26.0854 94.3839 31.6856C94.4009 35.9584 91.491 41.4512 84.2327 41.2389Z" fill="#C89A4B"/>
<path d="M110.506 19.6594C110.537 19.6838 108.117 21.4578 108.117 21.4578C104.454 18.8871 101.542 18.4978 101.542 22.0483L101.531 23.8369L105.729 23.782L105.099 25.0387H101.549L101.527 37.5714C101.543 46.9698 94.496 45.8509 94.4302 45.9315L94.3936 44.737C94.4948 44.7309 97.5963 45.3275 97.3706 38.1693V25.0338L94.385 25.0387V23.8382H97.3706C97.517 19.1616 101.718 12.7256 110.507 19.6581H110.506V19.6594Z" fill="#C89A4B"/>
<path d="M113.913 41.3439C107.427 41.1535 104.47 35.6339 106.231 33.6439C108.432 31.1562 120.292 34.077 120.292 34.077L120.357 35.1873L110.269 34.027C109.979 33.9941 109.724 34.2198 109.72 34.5126C109.684 37.8801 112.743 40.3556 114.564 40.3715C116.494 40.3885 119.078 39.4405 119.51 35.1885L119.77 33.9697C119.814 33.6378 120.504 29.6469 117.985 27.3971C113.852 23.7039 108.566 28.561 108.264 29.2126C108.264 29.2138 108.261 29.215 108.259 29.215L107.246 28.8551C108.522 27.0481 110.576 24.9642 113.954 24.248C117.895 23.4123 123.588 26.371 123.61 31.9724C123.627 36.2451 121.171 41.561 113.911 41.3488V41.3451H113.913V41.3439Z" fill="#C89A4B"/>
<path d="M133.794 24.0554C136.106 24.386 138.57 25.2499 138.57 25.2499C138.612 25.2767 138.026 28.1195 137.974 28.2354H137.377C137.2 26.631 134.389 25.3121 133.197 25.2499C129.552 25.0571 128.894 26.9446 129.017 28.2354C129.295 31.1587 140.191 31.82 139.765 36.5954C139.094 44.1282 128.346 40.7559 126.032 39.581C125.996 39.5627 126.627 36.7687 126.628 36.6174L127.225 36.6296C126.628 39.5822 134.853 41.6417 136.778 37.7911C138.569 34.209 129.336 33.3342 127.225 31.2234C126.03 30.0289 125.434 22.8634 133.793 24.0578V24.0554H133.794Z" fill="#C89A4B"/>
<path d="M76.5133 21.687L77.6992 22.33C80.4261 19.924 83.3202 15.9868 92.8429 15.9258C108.969 15.8233 114.401 8.69675 114.321 8.676C92.1316 2.78055 78.1385 19.8569 76.5121 21.6846V21.687H76.5133ZM105.784 12.8438C100.824 14.824 96.2421 14.2103 96.2421 14.2103C96.2421 14.2103 103.853 12.6059 107.445 10.3707C107.638 10.2511 101.392 9.82777 98.3321 10.8441C92.3952 12.8158 85.864 15.2486 85.864 15.2486C85.864 15.2486 89.8501 11.4993 98.4102 9.46662C103.603 8.23433 111.612 9.25189 111.612 9.25189C111.612 9.25189 108.303 11.8385 105.784 12.8426V12.8438Z" fill="#C89A4B"/>
<path d="M174.911 37.2311C175.226 38.2316 171.308 39.9836 169.73 40.4973C167.97 41.0695 166.149 41.355 164.27 41.355C161.879 41.355 159.707 40.8096 157.758 39.7201C155.807 38.6293 154.328 37.0871 153.323 35.0911C152.317 33.095 151.714 30.8806 151.815 28.4514C152.074 22.1277 155.999 14.2154 165.965 14.9218C168.94 15.1329 173.558 16.353 174.835 22.6962C174.939 23.2135 174.543 23.6967 174.016 23.6967C173.631 23.6967 173.317 23.3807 173.321 22.9951C173.409 15.6637 156.182 12.0717 155.621 27.701C155.497 31.1539 156.576 33.882 158.487 35.878C160.398 37.8741 162.9 38.8721 165.996 38.8721C167.329 38.8721 168.626 38.7001 169.888 38.3536C170.967 38.0583 172.247 37.5569 173.727 36.8517C174.16 36.6455 174.68 36.8126 174.912 37.2323H174.911V37.2311Z" fill="#C89A4B"/>
<path d="M179.65 28.882C179.252 28.8393 178.973 28.4696 179.04 28.0756C179.209 27.0812 181.563 23.4087 185.689 23.5295C186.498 23.5527 187.229 23.6454 187.884 23.8785C188.538 24.1103 189.055 24.4324 189.436 24.8436C189.817 25.2547 190.105 25.7464 190.301 26.3174C190.497 26.8896 190.596 27.801 190.596 29.0516L190.435 36.4331C190.435 37.4336 190.549 38.0888 190.774 38.3987C191 38.7086 191.293 38.8636 191.65 38.8636C192.08 38.8636 192.752 38.5415 193.67 37.8985L194.224 38.6317C192.544 40.1324 191.626 40.9316 191.471 41.0268C191.137 41.2171 190.721 41.3123 190.22 41.3123C189.446 41.3123 188.847 41.1183 188.425 40.7315C188.001 40.3447 187.718 39.692 187.575 38.7745C186.145 39.8823 185.085 40.5827 184.395 40.8743C183.703 41.1659 182.952 41.3123 182.142 41.3123C180.82 41.3123 179.753 40.9096 178.943 40.1056C178.133 39.3016 177.728 38.2743 177.728 37.0224C177.728 36.2599 177.871 35.5718 178.157 34.9581C178.443 34.3444 178.854 33.8051 179.391 33.3402C179.808 32.9949 180.511 32.5777 181.501 32.0896C183.824 30.9574 185.849 30.046 187.577 29.3554C187.517 27.6754 187.237 26.5614 186.738 26.0136C186.239 25.4658 185.472 25.1913 184.439 25.1913C183.464 25.1913 182.629 25.4926 181.934 26.0941C181.309 26.6346 180.744 27.4521 180.239 28.5465C180.134 28.7722 179.899 28.9089 179.651 28.882H179.65ZM187.577 30.911C184.467 32.3056 182.588 33.3207 181.937 33.9576C181.288 34.5957 180.964 35.3607 180.964 36.2538C180.964 37.1469 181.208 37.8619 181.697 38.3987C182.185 38.9343 182.757 39.2027 183.412 39.2027C184.068 39.2027 184.826 38.9795 185.62 38.5329C186.411 38.0864 186.936 37.5825 187.192 37.0224C187.448 36.4624 187.577 35.4437 187.577 33.9661V30.9098V30.911Z" fill="#C89A4B"/>
<path d="M220.532 36.616L220.47 37.9935C220.47 37.9935 216.898 40.8278 216.129 41.0303C215.36 41.2328 214.584 41.3695 213.785 41.3695C211.84 41.3695 210.18 40.5898 208.801 39.0281C207.424 37.4676 206.734 35.3581 206.734 32.7008C206.734 29.8409 207.56 27.5471 209.212 25.8195C210.864 24.0918 212.883 23.228 215.27 23.228C217.118 23.228 218.547 23.7368 219.556 24.7556C220.565 25.7743 222.123 27.5959 221.104 29.4297C220.481 30.5522 218.358 30.4668 218.145 30.4668C214.984 30.4668 212.236 30.5144 209.899 30.6095C209.887 33.2791 210.34 35.2983 211.257 36.6685C212.175 38.0508 213.402 38.7414 214.939 38.7414C215.714 38.7414 216.524 38.5889 217.37 38.2851C218.215 37.9813 219.271 37.4249 220.533 36.6136V36.616H220.532ZM217.941 28.788C217.869 27.6081 217.606 26.715 217.153 26.1074C216.484 25.2143 215.582 24.7666 214.448 24.7666C213.469 24.7666 212.597 25.1033 211.833 25.7768C211.069 26.4503 210.502 27.5618 210.131 29.1101C210.573 29.1223 210.907 29.1284 211.134 29.1284C213.092 29.1284 215.361 29.0149 217.941 28.7892V28.788Z" fill="#C89A4B"/>
<path d="M211.285 19.6594C211.316 19.6838 208.896 21.4578 208.896 21.4578C205.234 18.8871 202.321 18.4978 202.321 22.0483L202.31 23.8369L206.509 23.782L205.878 25.0387H202.329L202.307 37.5714C202.323 46.9698 195.275 45.8509 195.209 45.9315L195.173 44.737C195.274 44.7309 198.376 45.3275 198.15 38.1693V25.0338L195.164 25.0387V23.8382H198.15C198.296 19.1616 202.497 12.7256 211.287 19.6581H211.285V19.6594Z" fill="#C89A4B"/>
<path d="M35.1107 45.9998V7.44385" stroke="#C89A4B" stroke-miterlimit="10"/>
</svg>
