<svg width="536" height="152" viewBox="0 0 536 152" fill="none" xmlns="http://www.w3.org/2000/svg">
<path d="M243.285 150.131L244.835 150.995C248.4 147.763 252.184 142.475 264.634 142.394C285.717 142.256 292.818 132.685 292.715 132.657C263.704 124.739 245.41 147.673 243.283 150.128V150.131H243.285ZM281.554 138.254C275.068 140.914 269.078 140.09 269.078 140.09C269.078 140.09 279.028 137.935 283.725 134.933C283.977 134.772 275.811 134.204 271.811 135.569C264.049 138.217 255.51 141.484 255.51 141.484C255.51 141.484 260.721 136.449 271.913 133.719C278.701 132.064 289.172 133.43 289.172 133.43C289.172 133.43 284.846 136.904 281.554 138.253V138.254Z" fill="#C89A4B"/>
<path d="M281.554 138.253C284.846 136.904 289.172 133.43 289.172 133.43C289.172 133.43 278.701 132.064 271.913 133.719C260.721 136.449 255.51 141.484 255.51 141.484C255.51 141.484 264.049 138.217 271.811 135.569C275.811 134.204 283.977 134.772 283.725 134.933C279.028 137.935 269.078 140.09 269.078 140.09C269.078 140.09 275.068 140.914 281.554 138.254V138.253ZM281.554 138.253H281.552M243.285 150.131L244.835 150.995C248.4 147.763 252.184 142.475 264.634 142.394C285.717 142.256 292.818 132.685 292.715 132.657C263.704 124.739 245.41 147.673 243.283 150.128V150.131H243.285Z" stroke="#C89A4B" stroke-width="0.5" stroke-miterlimit="10"/>
<path d="M33.5 139.502C36.7721 139.527 40.0442 139.552 43.3162 139.577C102.214 140.027 161.111 140.477 220.009 140.927C223.281 140.952 226.553 140.977 229.825 141.002C230.223 141.005 230.604 140.85 230.886 140.568C231.167 140.287 231.325 139.903 231.325 139.502C231.325 139.101 231.167 138.717 230.886 138.435C230.604 138.154 230.223 137.999 229.825 138.002C226.553 138.027 223.281 138.052 220.009 138.077C161.111 138.527 102.214 138.977 43.3162 139.427C40.0442 139.452 36.7721 139.477 33.5 139.502Z" fill="#C89A4B"/>
<path d="M502.5 139.502C499.228 139.527 495.956 139.552 492.684 139.577C433.786 140.027 374.889 140.477 315.991 140.927C312.719 140.952 309.447 140.977 306.175 141.002C305.777 141.005 305.396 140.85 305.114 140.568C304.833 140.287 304.675 139.903 304.675 139.502C304.675 139.101 304.833 138.717 305.114 138.435C305.396 138.154 305.777 137.999 306.175 138.002C309.447 138.027 312.719 138.052 315.991 138.077C374.889 138.527 433.786 138.977 492.684 139.427C495.956 139.452 499.228 139.477 502.5 139.502Z" fill="#C89A4B"/>
<path d="M101.629 32.1924C101.466 32.1924 99.8953 32.2176 99.8628 33.9573C99.8375 35.2457 99.8772 101.078 99.8772 101.078H91.0262L43.2536 41.0205C38.7612 132.312 2.66 113.443 2.66 113.443C-2.85431 109.682 1.13609 104.294 6.19539 106.376C38.5229 119.701 38.0065 33.8562 38.0065 32.1887C38.0065 28.6553 32.7052 26.8904 22.0991 26.8904V23.357C23.2114 23.4219 29.2674 23.357 30.9357 23.357C42.8563 23.3678 48.6415 28.6842 50.3748 30.4238C51.6496 31.7051 94.5579 88.7127 94.5579 88.7127C94.5579 88.7127 94.5651 35.206 94.5579 33.9536C94.5471 32.1779 92.8354 32.1887 92.7921 32.1887V30.4238C94.7204 30.4888 99.9603 30.4888 101.629 30.4238" fill="#C89A4B"/>
<path d="M129.905 100.973C110.707 100.41 103.485 83.898 108.696 78.0113C115.211 70.6521 149.344 79.7762 149.344 79.7762L151.11 83.3097L121.064 79.3756C120.205 79.2782 119.306 80.6749 119.298 81.5412C119.19 91.5026 126.283 97.3928 131.67 97.4398C137.383 97.4903 146.415 95.8842 147.693 83.3097L148.585 79.1338C148.715 78.1521 150.756 66.3463 143.302 59.6909C131.067 48.7658 114.517 65.0687 114.514 65.0651L111.18 63.8812C114.958 58.536 121.671 51.8698 131.674 49.7512C143.338 47.2788 159.885 56.1467 159.95 72.713C160 85.3525 151.388 101.601 129.905 100.973Z" fill="#C89A4B"/>
<path d="M207.669 37.137C207.759 37.2092 200.598 42.457 200.598 42.457C189.757 34.8523 181.137 33.701 181.137 44.2038L181.105 49.4949L193.531 49.3325L191.664 53.05H181.159L181.094 90.1239C181.141 117.926 160.283 114.616 160.088 114.854L159.979 111.321C160.279 111.303 169.459 113.068 168.791 91.8924V53.0356L159.954 53.05V49.4985H168.791C169.224 35.6644 181.657 16.6258 207.673 37.1334H207.669V37.137Z" fill="#C89A4B"/>
<path d="M217.751 101.284C198.554 100.721 189.804 84.3924 195.015 78.5058C201.529 71.1466 236.634 79.7871 236.634 79.7871L236.825 83.0715L206.968 79.6391C206.108 79.5417 205.354 80.2093 205.343 81.0756C205.234 91.037 214.288 98.3601 219.679 98.407C225.392 98.4576 233.041 95.6532 234.319 83.0751L235.088 79.4695C235.218 78.4877 237.259 66.682 229.805 60.0266C217.57 49.1015 201.927 63.4698 201.031 65.3971C201.031 65.4007 201.024 65.4043 201.016 65.4043L198.019 64.3396C201.796 58.9944 207.874 52.8298 217.874 50.7112C229.538 48.2389 246.388 56.9912 246.453 73.5612C246.503 86.2006 239.234 101.926 217.747 101.298V101.287H217.751V101.284Z" fill="#C89A4B"/>
<path d="M276.596 50.141C283.439 51.1191 290.734 53.6744 290.734 53.6744C290.857 53.7538 289.123 62.1633 288.968 62.5062H287.202C286.678 57.76 278.358 53.8585 274.83 53.6744C264.04 53.1041 262.093 58.6876 262.458 62.5062C263.281 71.1538 295.529 73.11 294.269 87.2365C292.283 109.52 260.472 99.544 253.621 96.0683C253.517 96.0141 255.384 87.749 255.387 87.3015L257.153 87.3376C255.387 96.0719 279.73 102.164 285.429 90.7735C290.73 80.1769 263.401 77.5891 257.153 71.3451C253.618 67.8117 251.852 46.6148 276.592 50.1482V50.141H276.596Z" fill="#C89A4B"/>
<path d="M107.055 43.1355L110.565 45.0375C118.636 37.9202 127.202 26.2732 155.388 26.0927C203.117 25.7896 219.194 4.70813 218.959 4.64677C153.282 -12.793 111.865 37.7216 107.052 43.1283V43.1355H107.055ZM193.692 16.9759C179.009 22.8336 165.449 21.0182 165.449 21.0182C165.449 21.0182 187.975 16.2721 198.607 9.65997C199.177 9.30627 180.691 8.05387 171.635 11.0604C154.062 16.8928 134.732 24.0896 134.732 24.0896C134.732 24.0896 146.529 12.9985 171.866 6.98555C187.235 3.34024 210.939 6.35033 210.939 6.35033C210.939 6.35033 201.145 14.0019 193.692 16.9723V16.9759Z" fill="#C89A4B"/>
<path d="M193.692 16.9723C201.145 14.0019 210.939 6.35033 210.939 6.35033C210.939 6.35033 187.235 3.34024 171.866 6.98555C146.529 12.9985 134.732 24.0896 134.732 24.0896C134.732 24.0896 154.062 16.8928 171.635 11.0604C180.691 8.05387 199.177 9.30627 198.607 9.65997C187.975 16.2721 165.449 21.0182 165.449 21.0182C165.449 21.0182 179.009 22.8336 193.692 16.9759V16.9723ZM193.692 16.9723H193.688M107.055 43.1355L110.565 45.0375C118.636 37.9202 127.202 26.2732 155.388 26.0927C203.117 25.7896 219.194 4.70813 218.959 4.64677C153.282 -12.793 111.865 37.7216 107.052 43.1283V43.1355H107.055Z" stroke="#C89A4B" stroke-width="2" stroke-miterlimit="10"/>
<path d="M398.293 89.1169C399.225 92.0765 387.63 97.2593 382.96 98.7788C377.749 100.471 372.361 101.316 366.8 101.316C359.722 101.316 353.294 99.7027 347.523 96.4797C341.749 93.2531 337.372 88.691 334.397 82.7863C331.421 76.8816 329.637 70.3309 329.933 63.145C330.702 44.4384 342.32 21.0326 371.816 23.1224C380.62 23.7467 394.289 27.356 398.069 46.1203C398.376 47.6506 397.206 49.0798 395.646 49.0798C394.505 49.0798 393.577 48.1451 393.588 47.0045C393.848 25.3167 342.861 14.6912 341.2 60.9253C340.832 71.1394 344.028 79.2096 349.683 85.1143C355.338 91.019 362.745 93.9713 371.906 93.9713C375.853 93.9713 379.692 93.4624 383.426 92.4374C386.622 91.564 390.41 90.0806 394.791 87.9944C396.073 87.3845 397.611 87.8789 398.297 89.1205L398.293 89.1169Z" fill="#C89A4B"/>
<path d="M412.319 64.419C411.141 64.2927 410.314 63.1991 410.513 62.0334C411.015 59.0918 417.981 48.2281 430.194 48.5854C432.588 48.654 434.751 48.9283 436.691 49.6177C438.626 50.3034 440.157 51.2562 441.284 52.4725C442.411 53.6889 443.263 55.1434 443.844 56.8325C444.426 58.5252 444.718 61.2213 444.718 64.9207L444.242 86.7565C444.242 89.7161 444.577 91.6542 445.245 92.571C445.914 93.4877 446.78 93.9461 447.838 93.9461C449.109 93.9461 451.099 92.9932 453.815 91.0912L455.454 93.2603C450.482 97.6996 447.766 100.064 447.307 100.345C446.318 100.908 445.087 101.19 443.606 101.19C441.313 101.19 439.54 100.616 438.29 99.4718C437.037 98.3277 436.199 96.3967 435.777 93.6826C431.545 96.9598 428.406 99.0315 426.362 99.8941C424.315 100.757 422.094 101.19 419.696 101.19C415.782 101.19 412.625 99.9987 410.228 97.6203C407.83 95.2418 406.631 92.2028 406.631 88.4998C406.631 86.244 407.053 84.2084 407.902 82.393C408.747 80.5775 409.964 78.9822 411.553 77.6071C412.788 76.5857 414.868 75.3514 417.797 73.9077C424.672 70.5583 430.667 67.8622 435.78 65.8194C435.604 60.8495 434.777 57.5543 433.3 55.9338C431.823 54.3132 429.551 53.5012 426.492 53.5012C423.607 53.5012 421.137 54.3926 419.079 56.172C417.23 57.7709 415.558 60.189 414.063 63.4265C413.752 64.0942 413.055 64.4985 412.322 64.419H412.319ZM435.78 70.4212C426.576 74.5465 421.014 77.5494 419.09 79.4334C417.168 81.321 416.208 83.584 416.208 86.2259C416.208 88.8679 416.93 90.9829 418.378 92.571C419.823 94.1554 421.516 94.9494 423.455 94.9494C425.395 94.9494 427.641 94.2889 429.988 92.968C432.332 91.647 433.885 90.1564 434.643 88.4998C435.401 86.8431 435.78 83.8294 435.78 79.4587V70.4176V70.4212Z" fill="#C89A4B"/>
<path d="M533.323 87.2979L533.139 91.3727C533.139 91.3727 522.566 99.7569 520.291 100.356C518.016 100.955 515.719 101.359 513.353 101.359C507.597 101.359 502.682 99.0531 498.602 94.4333C494.525 89.8171 492.484 83.5768 492.484 75.7159C492.484 67.2559 494.929 60.4705 499.819 55.3599C504.708 50.2492 510.685 47.6939 517.748 47.6939C523.219 47.6939 527.448 49.199 530.435 52.2127C533.421 55.2264 538.032 60.6149 535.017 66.0396C533.172 69.3601 526.888 69.1074 526.256 69.1074C516.903 69.1074 508.767 69.2482 501.852 69.5297C501.816 77.4267 503.155 83.3999 505.871 87.4531C508.587 91.5423 512.22 93.5851 516.77 93.5851C519.063 93.5851 521.461 93.134 523.963 92.2353C526.466 91.3366 529.589 89.6908 533.327 87.2907L533.323 87.2979ZM525.653 64.1411C525.44 60.651 524.664 58.0091 523.32 56.2117C521.342 53.5697 518.673 52.2451 515.314 52.2451C512.418 52.2451 509.836 53.2413 507.576 55.2336C505.315 57.2259 503.636 60.5139 502.538 65.094C503.845 65.1301 504.835 65.1481 505.506 65.1481C511.302 65.1481 518.019 64.8124 525.653 64.1447V64.1411Z" fill="#C89A4B"/>
<path d="M505.953 37.137C506.043 37.2092 498.882 42.457 498.882 42.457C488.042 34.8523 479.422 33.701 479.422 44.2038L479.389 49.4949L491.815 49.3325L489.948 53.05H479.443L479.378 90.1239C479.425 117.926 458.567 114.616 458.372 114.854L458.264 111.321C458.563 111.303 467.743 113.068 467.075 91.8924V53.0356L458.238 53.05V49.4985H467.075C467.508 35.6644 479.942 16.6258 505.957 37.1334H505.953V37.137Z" fill="#C89A4B"/>
</svg>
