<svg width="290" height="60" viewBox="0 0 290 60" fill="none" xmlns="http://www.w3.org/2000/svg">
<path d="M61.5753 16.4082C61.4899 16.4082 60.664 16.4215 60.6469 17.3366C60.6336 18.0144 60.6545 52.646 60.6545 52.646H56.0008L30.8835 21.0523C28.5215 69.077 9.54064 59.1508 9.54064 59.1508C6.64139 57.1724 8.7394 54.3377 11.3994 55.4333C28.3962 62.4431 28.1247 17.2835 28.1247 16.4063C28.1247 14.5475 25.3375 13.619 19.7611 13.619V11.7603C20.3459 11.7944 23.53 11.7603 24.4071 11.7603C30.6746 11.7659 33.7163 14.5627 34.6276 15.4778C35.2979 16.1519 57.8577 46.1412 57.8577 46.1412C57.8577 46.1412 57.8615 17.9936 57.8577 17.3347C57.852 16.4006 56.9521 16.4063 56.9293 16.4063V15.4778C57.9432 15.512 60.6981 15.512 61.5753 15.4778" fill="#C89A4B"/>
<path d="M76.442 52.5909C66.3487 52.2948 62.5514 43.6084 65.2912 40.5117C68.7163 36.6403 86.6625 41.4401 86.6625 41.4401L87.5909 43.2989L71.7941 41.2294C71.3422 41.1781 70.8694 41.9129 70.8656 42.3686C70.8087 47.6089 74.5376 50.7075 77.3704 50.7322C80.3741 50.7587 85.1227 49.9138 85.7948 43.2989L86.2638 41.1021C86.3321 40.5857 87.4048 34.3752 83.486 30.8741C77.0534 25.1268 68.3518 33.7031 68.3499 33.7012L66.5974 33.0784C68.5834 30.2665 72.1131 26.7597 77.3723 25.6451C83.505 24.3446 92.2047 29.0096 92.2388 37.7244C92.2654 44.3735 87.7371 52.9213 76.442 52.5909Z" fill="#C89A4B"/>
<path d="M117.327 19.0094C117.375 19.0474 113.61 21.808 113.61 21.808C107.91 17.8075 103.378 17.2019 103.378 22.727L103.361 25.5104L109.894 25.425L108.912 27.3806H103.389L103.355 46.8836C103.38 61.509 92.413 59.7679 92.3105 59.8933L92.2535 58.0345C92.4111 58.025 97.2375 58.9534 96.8862 47.814V27.373L92.2402 27.3806V25.5123H96.8862C97.1141 18.2347 103.651 8.21929 117.329 19.0075H117.327V19.0094Z" fill="#C89A4B"/>
<path d="M122.628 52.7542C112.535 52.458 107.935 43.8685 110.674 40.7718C114.1 36.9004 132.556 41.4458 132.556 41.4458L132.657 43.1736L116.959 41.3679C116.507 41.3167 116.11 41.6679 116.105 42.1236C116.048 47.3639 120.808 51.2163 123.642 51.241C126.646 51.2676 130.667 49.7923 131.339 43.1755L131.744 41.2787C131.812 40.7623 132.885 34.5517 128.966 31.0506C122.533 25.3034 114.308 32.8619 113.838 33.8758C113.838 33.8777 113.834 33.8796 113.83 33.8796L112.254 33.3195C114.24 30.5076 117.436 27.2647 122.693 26.1502C128.826 24.8496 137.685 29.4538 137.719 38.1706C137.746 44.8197 133.924 53.0922 122.627 52.7618V52.7561H122.628V52.7542Z" fill="#C89A4B"/>
<path d="M153.567 25.8501C157.165 26.3647 161 27.7089 161 27.7089C161.065 27.7507 160.153 32.1746 160.072 32.3549H159.143C158.868 29.8582 154.493 27.8057 152.638 27.7089C146.965 27.4089 145.942 30.3462 146.134 32.3549C146.567 36.9041 163.522 37.9332 162.859 45.3646C161.815 57.0869 145.089 51.839 141.488 50.0106C141.433 49.9821 142.414 45.6342 142.416 45.3987L143.344 45.4177C142.416 50.0125 155.215 53.2174 158.211 47.2253C160.998 41.6508 146.629 40.2894 143.344 37.0048C141.486 35.146 140.557 23.9951 153.565 25.8539V25.8501H153.567Z" fill="#C89A4B"/>
<path d="M64.4291 22.165L66.2746 23.1656C70.5181 19.4214 75.0218 13.2945 89.8408 13.1995C114.935 13.04 123.388 1.94997 123.265 1.91769C88.7339 -7.25664 66.9582 19.317 64.4272 22.1612V22.165H64.4291ZM109.98 8.40352C102.26 11.485 95.1305 10.53 95.1305 10.53C95.1305 10.53 106.974 8.03328 112.564 4.55493C112.864 4.36886 103.145 3.71003 98.3829 5.29161C89.144 8.35985 78.9805 12.1458 78.9805 12.1458C78.9805 12.1458 85.1834 6.31119 98.5044 3.14802C106.585 1.23037 119.048 2.81386 119.048 2.81386C119.048 2.81386 113.899 6.83902 109.98 8.40162V8.40352Z" fill="#C89A4B"/>
<path d="M217.552 46.3541C218.042 47.911 211.945 50.6375 209.49 51.4368C206.75 52.3273 203.917 52.7716 200.993 52.7716C197.272 52.7716 193.892 51.9229 190.858 50.2274C187.822 48.53 185.521 46.1301 183.957 43.0238C182.392 39.9176 181.454 36.4716 181.61 32.6913C182.014 22.8506 188.122 10.5377 203.631 11.6371C208.26 11.9655 215.446 13.8642 217.434 23.7353C217.595 24.5404 216.98 25.2922 216.16 25.2922C215.56 25.2922 215.072 24.8005 215.078 24.2005C215.214 12.7915 188.407 7.2018 187.534 31.5237C187.34 36.8969 189.021 41.1423 191.994 44.2485C194.967 47.3547 198.861 48.9078 203.678 48.9078C205.753 48.9078 207.772 48.6401 209.735 48.1009C211.415 47.6414 213.407 46.861 215.71 45.7636C216.384 45.4427 217.193 45.7029 217.554 46.356H217.552V46.3541Z" fill="#C89A4B"/>
<path d="M224.926 33.3615C224.307 33.2951 223.873 32.7198 223.977 32.1065C224.241 30.5591 227.904 24.8442 234.325 25.0321C235.584 25.0682 236.721 25.2125 237.74 25.5751C238.758 25.9359 239.563 26.4371 240.156 27.077C240.748 27.7168 241.196 28.482 241.502 29.3706C241.807 30.261 241.961 31.6793 241.961 33.6255L241.711 45.1124C241.711 46.6693 241.887 47.6888 242.238 48.1711C242.59 48.6534 243.045 48.8945 243.602 48.8945C244.27 48.8945 245.316 48.3932 246.744 47.3927L247.606 48.5337C244.991 50.8691 243.564 52.1127 243.323 52.2608C242.802 52.557 242.155 52.7051 241.376 52.7051C240.171 52.7051 239.239 52.4032 238.582 51.8013C237.923 51.1995 237.482 50.1837 237.26 48.7559C235.035 50.4799 233.385 51.5697 232.31 52.0235C231.234 52.4773 230.066 52.7051 228.805 52.7051C226.747 52.7051 225.088 52.0785 223.827 50.8273C222.566 49.5761 221.936 47.9774 221.936 46.0294C221.936 44.8427 222.158 43.7719 222.604 42.8169C223.049 41.8618 223.688 41.0226 224.524 40.2993C225.173 39.7619 226.267 39.1126 227.807 38.3531C231.422 36.5912 234.574 35.1729 237.262 34.0982C237.169 31.4838 236.734 29.7503 235.958 28.8978C235.181 28.0453 233.987 27.6181 232.379 27.6181C230.862 27.6181 229.563 28.0871 228.481 29.0231C227.509 29.8642 226.63 31.1363 225.843 32.8394C225.68 33.1907 225.314 33.4033 224.928 33.3615H224.926ZM237.262 36.519C232.422 38.6892 229.498 40.2689 228.486 41.26C227.476 42.253 226.971 43.4434 226.971 44.8333C226.971 46.2231 227.351 47.3357 228.112 48.1711C228.872 49.0046 229.762 49.4223 230.782 49.4223C231.801 49.4223 232.982 49.0749 234.217 48.38C235.449 47.685 236.265 46.9009 236.664 46.0294C237.063 45.1579 237.262 43.5725 237.262 41.2733V36.5171V36.519Z" fill="#C89A4B"/>
<path d="M288.547 45.3972L288.45 47.5408C288.45 47.5408 282.891 51.9514 281.694 52.2666C280.498 52.5818 279.291 52.7944 278.047 52.7944C275.021 52.7944 272.437 51.5812 270.291 49.1509C268.147 46.7225 267.075 43.4397 267.075 39.3044C267.075 34.854 268.36 31.2845 270.931 28.596C273.502 25.9075 276.644 24.5632 280.358 24.5632C283.234 24.5632 285.458 25.355 287.028 26.9404C288.598 28.5257 291.022 31.3604 289.437 34.2141C288.467 35.9609 285.163 35.828 284.831 35.828C279.913 35.828 275.636 35.902 272 36.0501C271.981 40.2044 272.685 43.3467 274.113 45.4789C275.541 47.6301 277.451 48.7047 279.843 48.7047C281.049 48.7047 282.31 48.4674 283.625 47.9946C284.941 47.5218 286.583 46.6561 288.549 45.3934V45.3972H288.547ZM284.514 33.2154C284.402 31.3794 283.994 29.9896 283.287 29.0441C282.247 27.6543 280.844 26.9574 279.078 26.9574C277.555 26.9574 276.198 27.4815 275.009 28.5295C273.821 29.5776 272.938 31.3073 272.361 33.7167C273.048 33.7357 273.568 33.7452 273.921 33.7452C276.969 33.7452 280.5 33.5686 284.514 33.2173V33.2154Z" fill="#C89A4B"/>
<path d="M274.157 19.0094C274.204 19.0474 270.439 21.808 270.439 21.808C264.739 17.8075 260.207 17.2019 260.207 22.727L260.19 25.5104L266.724 25.425L265.742 27.3806H260.219L260.185 46.8836C260.209 61.509 249.243 59.7679 249.14 59.8933L249.083 58.0345C249.241 58.025 254.067 58.9534 253.716 47.814V27.373L249.07 27.3806V25.5123H253.716C253.944 18.2347 260.481 8.21929 274.159 19.0075H274.157V19.0094Z" fill="#C89A4B"/>
</svg>
