<svg width="35" height="35" viewBox="0 0 35 35" fill="none" xmlns="http://www.w3.org/2000/svg">
<path d="M11.3763 2.9165H23.6263C28.293 2.9165 32.0846 6.70817 32.0846 11.3748V23.6248C32.0846 25.8681 31.1935 28.0195 29.6072 29.6058C28.021 31.192 25.8696 32.0832 23.6263 32.0832H11.3763C6.70964 32.0832 2.91797 28.2915 2.91797 23.6248V11.3748C2.91797 9.13155 3.80911 6.98014 5.39536 5.39389C6.9816 3.80765 9.13301 2.9165 11.3763 2.9165ZM11.0846 5.83317C9.69225 5.83317 8.35689 6.38629 7.37232 7.37086C6.38776 8.35543 5.83464 9.69078 5.83464 11.0832V23.9165C5.83464 26.8186 8.18255 29.1665 11.0846 29.1665H23.918C25.3104 29.1665 26.6457 28.6134 27.6303 27.6288C28.6148 26.6443 29.168 25.3089 29.168 23.9165V11.0832C29.168 8.18109 26.8201 5.83317 23.918 5.83317H11.0846ZM25.1576 8.02067C25.641 8.02067 26.1047 8.21273 26.4466 8.55459C26.7884 8.89645 26.9805 9.36012 26.9805 9.84359C26.9805 10.3271 26.7884 10.7907 26.4466 11.1326C26.1047 11.4744 25.641 11.6665 25.1576 11.6665C24.6741 11.6665 24.2104 11.4744 23.8686 11.1326C23.5267 10.7907 23.3346 10.3271 23.3346 9.84359C23.3346 9.36012 23.5267 8.89645 23.8686 8.55459C24.2104 8.21273 24.6741 8.02067 25.1576 8.02067ZM17.5013 10.2082C19.4352 10.2082 21.2898 10.9764 22.6573 12.3439C24.0247 13.7113 24.793 15.566 24.793 17.4998C24.793 19.4337 24.0247 21.2884 22.6573 22.6558C21.2898 24.0233 19.4352 24.7915 17.5013 24.7915C15.5674 24.7915 13.7128 24.0233 12.3453 22.6558C10.9779 21.2884 10.2096 19.4337 10.2096 17.4998C10.2096 15.566 10.9779 13.7113 12.3453 12.3439C13.7128 10.9764 15.5674 10.2082 17.5013 10.2082ZM17.5013 13.1248C16.341 13.1248 15.2282 13.5858 14.4077 14.4062C13.5872 15.2267 13.1263 16.3395 13.1263 17.4998C13.1263 18.6602 13.5872 19.773 14.4077 20.5934C15.2282 21.4139 16.341 21.8748 17.5013 21.8748C18.6616 21.8748 19.7744 21.4139 20.5949 20.5934C21.4154 19.773 21.8763 18.6602 21.8763 17.4998C21.8763 16.3395 21.4154 15.2267 20.5949 14.4062C19.7744 13.5858 18.6616 13.1248 17.5013 13.1248Z" fill="#E5C997"/>
</svg>
