<svg width="304" height="319" viewBox="0 0 304 319" fill="none" xmlns="http://www.w3.org/2000/svg">
<path d="M111.367 96C112.367 97 112.367 97 112.43 99.5625C112.409 100.367 112.388 101.171 112.367 102C108.419 103.461 104.623 104.347 100.456 104.936C84.9511 107.133 62.5964 110.846 51.4961 123.059C49.8236 125.935 49.8338 127.733 50.3672 131C52.008 133.188 53.2281 134.393 55.3672 136C55.9679 136.461 56.5686 136.923 57.1875 137.398C90.4232 159.913 145.535 158.969 183.145 151.965C209.866 147.189 209.866 147.189 232.141 132.965C234.02 129.954 234.12 128.49 233.367 125C221.419 110.364 198.22 107.717 180.793 104.459C176.645 103.674 172.506 102.836 168.367 102C167.742 100.125 167.742 100.125 167.367 98C169.367 96 169.367 96 171.33 95.7476C178.096 95.82 184.629 96.5425 191.305 97.625C192.392 97.801 193.479 97.9771 194.6 98.1584C212.843 101.292 232.991 106.324 244.73 121.797C251.996 136.263 239.949 166.517 235.444 180.637C225.857 209.464 212.446 237.494 184.43 252.312C162.042 262.864 132.785 265.254 109.205 257.268C100.991 254.312 91.8817 250.995 85.3672 245C85.3672 244.34 85.3672 243.68 85.3672 243C84.5106 242.629 84.5106 242.629 83.6367 242.25C75.6885 237.872 70.1845 229.443 65.3672 222C64.7536 221.116 64.14 220.231 63.5078 219.32C48.0728 196.044 40.0161 166.602 37.3672 139C37.2985 138.32 37.2299 137.639 37.1592 136.938C36.461 129.088 37.0637 123.848 41.8594 117.477C43.3672 116 43.3672 116 45.3672 116C45.3672 115.34 45.3672 114.68 45.3672 114C63.9981 102.025 89.0326 94.1811 111.367 96ZM49.3672 145C51.8576 176.887 64.7604 214.288 89.3672 236C90.0272 236 90.6872 236 91.3672 236C91.3672 236.66 91.3672 237.32 91.3672 238C112.138 253.041 135.015 255.037 159.841 251.415C166.851 250.264 173.084 248.384 179.367 245C180.086 244.62 180.806 244.239 181.547 243.848C187.018 240.686 192.011 236.568 196.367 232C196.367 231.34 196.367 230.68 196.367 230C197.027 230 197.687 230 198.367 230C199.687 227.69 201.007 225.38 202.367 223C198.933 224.557 196.118 226.603 193.117 228.875C188.682 232.149 184.381 234.73 179.367 237C181.695 233.369 184.16 229.984 186.867 226.625C199.15 210.781 199.752 191.345 198.367 172C198.037 171.01 197.707 170.02 197.367 169C193.737 169 190.107 169 186.367 169C186.367 168.34 186.367 167.68 186.367 167C186.91 166.875 187.453 166.749 188.013 166.62C207.223 162.328 207.223 162.328 224.367 153C223.377 152.505 223.377 152.505 222.367 152C219.48 152.984 216.65 154.033 213.805 155.125C201.915 159.479 189.834 161.928 177.367 164C176.205 164.199 176.205 164.199 175.02 164.402C133.967 171.142 88.0699 165.615 51.3672 146C50.7072 145.67 50.0472 145.34 49.3672 145Z" fill="#E5C997"/>
<path d="M46.3673 206C46.068 207.872 46.068 207.872 45.3673 210C42.9229 211.555 40.5642 212.882 37.9923 214.188C27.448 219.857 16.7794 226.264 12.3673 238C10.9594 244.299 11.9488 249.043 15.1173 254.625C30.5314 276.254 64.1186 284.363 88.8082 288.599C97.6278 289.982 106.496 291.012 115.367 292C116.035 292.083 116.702 292.167 117.39 292.252C122.77 292.901 128.075 293.186 133.492 293.238C134.345 293.248 135.197 293.258 136.076 293.268C138.84 293.293 141.603 293.305 144.367 293.312C145.79 293.316 145.79 293.316 147.242 293.32C165.221 293.326 182.63 291.904 200.367 289C201.308 288.85 202.25 288.701 203.219 288.547C224.961 284.961 249.816 277.91 266.766 263.25C268.367 262 268.367 262 270.367 262C270.367 261.34 270.367 260.68 270.367 260C271.027 260 271.687 260 272.367 260C272.653 259.419 272.94 258.837 273.234 258.238C273.939 256.845 274.67 255.465 275.438 254.105C277.935 249.563 279.187 246.285 278.367 241C274.166 229.51 266.734 223.8 256.367 218C254.698 217.005 253.03 216.006 251.367 215C254.243 212.124 256.349 212.173 260.367 212C271.398 216.341 281.352 224.525 288.367 234C291.385 241.997 291.209 248.707 287.805 256.426C275.702 278.099 245.552 288.637 223.164 295.215C210.418 298.704 197.416 300.984 184.367 303C183.419 303.147 182.472 303.294 181.495 303.445C168.029 305.391 154.382 305.196 140.805 305.25C139.451 305.258 139.451 305.258 138.069 305.267C119.399 305.35 101.126 303.936 82.8048 300.25C82.1508 300.121 81.4969 299.991 80.8231 299.858C54.9088 294.71 27.8916 287.068 9.36728 267C8.52165 266.092 7.67603 265.185 6.80478 264.25C1.27776 257.341 -0.230526 250.845 0.0274356 242.043C0.46459 238.129 1.45719 235.422 3.36728 232C4.02728 232 4.68728 232 5.36728 232C5.5529 231.319 5.73853 230.639 5.92978 229.938C11.4577 218.641 26.3978 211.642 37.6798 207.375C40.94 206.259 42.8159 206 46.3673 206Z" fill="#E5C997"/>
<path d="M285.367 136C293.403 140.817 300.924 147.783 303.367 157C304.788 168.288 302.155 176.056 295.797 185.277C285.386 198.378 268.199 203.338 252.684 207.316C244.421 209.512 236.524 212.229 229.367 217C228.377 217 227.387 217 226.367 217C227.35 209.386 230.568 202.996 236.367 198C239.645 196.375 239.645 196.375 243.305 195C243.957 194.749 244.61 194.499 245.282 194.24C249.731 192.547 254.233 191.027 258.742 189.5C268.215 186.132 275.137 181.76 280.367 173C281.826 168.622 281.833 164.706 280.617 160.25C279.212 157.72 277.793 156.537 275.367 155C275.862 153.515 275.862 153.515 276.367 152C281.955 154.082 286.558 156.382 289.367 162C289.596 164.037 289.777 166.08 289.93 168.125C290.013 169.221 290.097 170.316 290.184 171.445C290.244 172.288 290.305 173.131 290.367 174C292.899 168.275 293.681 162.732 291.562 156.715C289.001 151.989 285.911 149.493 280.891 147.625C273.687 145.841 267.026 146.319 260.375 149.656C255.999 152.585 253.248 156.678 250.367 161C249.377 160.67 248.387 160.34 247.367 160C245.631 152.883 246.024 145.191 248.867 138.437C258.975 128.582 273.376 130.782 285.367 136Z" fill="#E5C997"/>
<path d="M158.367 0C163.852 0.869259 166.921 4.93068 170.367 9C174.111 14.5352 176.181 20.5445 174.961 27.2227C172.168 36.9131 165.8 42.9272 157.805 48.625C148.834 54.8422 148.834 54.8422 143.367 64C142.966 69.5029 143.123 73.9132 145.367 79C144.926 81.1328 144.926 81.1328 144.367 83C138.263 78.1528 132.32 73.3413 130.891 65.3281C130.532 58.493 132.224 54.3235 136.367 49C137.027 48.01 137.687 47.02 138.367 46C139.027 46 139.687 46 140.367 46C140.367 45.34 140.367 44.68 140.367 44C142.08 42.4147 143.864 40.9046 145.68 39.4375C146.666 38.6318 147.652 37.8262 148.668 36.9961C151.367 35 151.367 35 154.367 34C155.438 32.1346 155.438 32.1346 156.367 30C157.241 28.8114 158.116 27.624 158.992 26.4375C162.143 21.4308 162.17 16.7571 161.367 11C160.557 8.20222 159.519 5.68717 158.367 3C158.367 2.01 158.367 1.02 158.367 0Z" fill="#E5C997"/>
<path d="M69.3672 300C70.5912 300.364 70.5912 300.364 71.8398 300.734C107.434 310.804 147.699 313.714 184.367 308C185.166 307.877 185.965 307.754 186.788 307.627C191.992 306.811 197.18 305.92 202.367 305C204.367 304.664 206.367 304.33 208.367 304C208.367 304.99 208.367 305.98 208.367 307C199.927 310.493 191.57 313.427 182.617 315.312C181.875 315.471 181.133 315.63 180.368 315.794C168.731 318.107 156.978 318.186 145.16 318.185C142.701 318.187 140.242 318.206 137.783 318.225C123.528 318.277 109.563 317.176 95.6797 313.75C94.8039 313.538 93.9282 313.326 93.0259 313.108C84.3624 310.913 75.8479 307.987 68.3672 303C68.6972 302.01 69.0272 301.02 69.3672 300Z" fill="#E5C997"/>
<path d="M162.367 114.25C164.367 116 164.367 116 165.492 118.375C165.367 121 165.367 121 163.68 123.5C160.098 126.717 155.546 128.188 151.11 129.887C148.221 130.952 148.221 130.952 145.367 133C145.656 133.578 145.945 134.155 146.242 134.75C146.614 135.493 146.985 136.235 147.367 137C147.739 137.639 148.11 138.279 148.492 138.938C149.615 141.583 149.865 143.155 149.367 146C146.845 148.671 144.872 149.842 141.367 150.938C137.785 151.012 136.215 150.094 133.367 148C133.743 145.218 134.041 143.412 135.805 141.188C137.367 140 137.367 140 139.367 140C139.697 138.02 140.027 136.04 140.367 134C134.842 129.395 129.025 127.259 122.282 125.016C119.367 124 119.367 124 118.367 123C117.902 117.643 117.902 117.643 119.68 115.188C123.413 112.561 126.956 112.715 131.367 113C132.815 113.559 134.252 114.143 135.68 114.75C139.652 116.22 141.536 115.871 145.367 114.125C146.196 113.734 147.025 113.344 147.879 112.941C152.955 111.021 157.509 112.225 162.367 114.25Z" fill="#E5C997"/>
<path d="M182.367 114C196.467 116.663 196.467 116.663 200.367 122C201.242 124.375 201.242 124.375 201.367 127C198.264 133.547 192.848 135.463 186.367 138C177.455 140.895 160.097 146.365 151.367 142C151.697 140.68 152.027 139.36 152.367 138C153.66 137.83 154.953 137.66 156.285 137.484C174.932 135.332 174.932 135.332 191.367 127C191.261 124.548 191.261 124.548 190.367 122C187.891 120.625 187.891 120.625 185.367 120C186.027 120.99 186.687 121.98 187.367 123C187.271 125.987 186.428 126.94 184.305 129.062C173.898 135.926 161.451 136.395 149.367 137C149.037 135.68 148.707 134.36 148.367 133C152.602 128.976 156.385 127.97 161.93 126.875C168.394 125.648 168.394 125.648 174.367 123C174.367 122.34 174.367 121.68 174.367 121C171.727 119.68 169.087 118.36 166.367 117C166.697 116.34 167.027 115.68 167.367 115C169.138 115.141 170.909 115.288 172.68 115.438C173.666 115.519 174.652 115.6 175.668 115.684C178.367 116 178.367 116 181.367 117C181.697 116.01 182.027 115.02 182.367 114Z" fill="#E5C997"/>
<path d="M70.3678 241C69.164 243.494 67.9135 245.681 66.3678 248C66.6841 251.542 67.2433 254.626 68.3678 258C69.0278 258 69.6878 258 70.3678 258C70.3678 258.66 70.3678 259.32 70.3678 260C70.8925 260.26 71.4171 260.521 71.9577 260.789C73.7893 261.709 75.6135 262.644 77.4342 263.586C78.5879 264.176 79.7416 264.767 80.9303 265.375C82.066 265.96 83.2016 266.545 84.3717 267.148C93.3832 271.474 102.496 273.868 112.305 275.625C113.395 275.829 114.485 276.032 115.608 276.242C122.846 277.584 130.103 278.812 137.368 280C137.368 280.99 137.368 281.98 137.368 283C127.366 283.489 117.876 282.854 107.993 281.188C106.516 280.94 106.516 280.94 105.008 280.687C89.0804 277.852 70.8981 273.829 59.7623 261.176C57.7161 258.068 57.3692 255.958 57.4928 252.25C58.3678 249 58.3678 249 60.3678 246C61.0278 246 61.6878 246 62.3678 246C62.3678 245.34 62.3678 244.68 62.3678 244C65.2733 241.958 66.7692 241 70.3678 241Z" fill="#E5C997"/>
<path d="M117.367 29C118.027 29.33 118.687 29.66 119.367 30C118.93 31.4583 118.492 32.9167 118.055 34.375C117.649 35.7459 117.649 35.7459 117.234 37.1445C116.682 38.9625 116.106 40.7737 115.5 42.5742C113.134 49.7498 111.787 56.1578 115.055 63.25C116.988 66.7285 119.474 69.2678 122.367 72C122.367 72.66 122.367 73.32 122.367 74C123.027 74 123.687 74 124.367 74C128.976 79.2809 131.114 84.0424 131.367 91C128.1 89.5535 125.793 87.7359 123.18 85.3125C120.119 82.5188 117.018 79.9531 113.68 77.5C107.747 72.9471 102.957 67.4731 101.367 60C100.449 52.0412 103.633 45.0929 108.242 38.75C111.043 35.2349 114.115 32.0976 117.367 29Z" fill="#E5C997"/>
<path d="M211.367 240C216.813 240.389 219.494 242.215 223.367 246C225.679 249.258 225.84 252.063 225.367 256C220.812 265.111 211.5 269.527 202.367 273C191.305 276.679 180.079 279.45 168.367 279C167.872 277.515 167.872 277.515 167.367 276C167.98 275.855 168.593 275.71 169.225 275.56C193.695 270.314 193.695 270.314 214.367 257C216.01 254.285 216.377 253.246 216.242 250C215.247 246.588 213.916 245.384 211.367 243C211.367 242.01 211.367 241.02 211.367 240Z" fill="#E5C997"/>
<path d="M116.367 115C116.367 115.99 116.367 116.98 116.367 118C112.902 119.485 112.902 119.485 109.367 121C109.367 121.66 109.367 122.32 109.367 123C114.389 124.758 119.295 126.229 124.492 127.375C129.837 128.674 133.292 130.295 137.367 134C137.367 134.99 137.367 135.98 137.367 137C131.228 137.122 125.478 136.789 119.43 135.75C118.648 135.616 117.866 135.483 117.06 135.345C109.975 134.058 103.584 132.319 97.6797 128.062C96.3672 126 96.3672 126 96.1172 123.562C98.0786 119.542 101.434 117.922 105.367 116C109.049 114.86 112.525 114.911 116.367 115Z" fill="#E5C997"/>
<path d="M99.3672 115C99.3672 115.99 99.3672 116.98 99.3672 118C97.6172 119.387 97.6172 119.387 95.3672 120.688C94.6247 121.124 93.8822 121.561 93.1172 122.012C92.5397 122.338 91.9622 122.664 91.3672 123C91.5139 125.422 91.5139 125.422 92.3672 128C99.8306 133.676 110.368 134.56 119.367 136C121.535 136.391 123.702 136.786 125.867 137.188C127.367 137.459 128.867 137.73 130.367 138C130.862 139.98 130.862 139.98 131.367 142C122.637 146.365 105.279 140.895 96.3672 138C84.2637 133.263 84.2637 133.263 81.3672 127C81.7607 123.787 82.2863 121.849 84.8945 119.801C86.6817 118.749 88.4768 117.851 90.3672 117C91.2541 116.588 92.1409 116.175 93.0547 115.75C95.3672 115 95.3672 115 99.3672 115Z" fill="#E5C997"/>
<path d="M173.368 48C170.816 52.7123 168.01 56.9609 164.735 61.2031C161.435 65.5407 161.115 68.4024 161.243 73.6875C161.257 74.7403 161.257 74.7403 161.27 75.8145C161.294 77.5431 161.33 79.2716 161.368 81C157.368 81 157.368 81 155.884 79.6016C152.361 74.0996 151.229 69.496 152.368 63C155.144 56.8445 166.226 45.6195 173.368 48Z" fill="#E5C997"/>
<path d="M245.367 230C252.603 230.381 259.563 234.675 264.43 239.938C266.724 243.563 267.443 245.703 267.367 250C264.962 255.961 261.069 259.96 255.367 263C254.047 263 252.727 263 251.367 263C252.59 260.221 254.117 258.046 255.992 255.688C257.846 253.087 258.405 251.812 259.055 248.562C257.51 240.561 251.783 236.363 245.367 232C245.367 231.34 245.367 230.68 245.367 230Z" fill="#E5C997"/>
<path d="M209.367 121C216.658 123.187 216.658 123.187 219.93 126.938C221.367 130 221.367 130 221.367 132.25C220.082 134.5 218.678 134.938 216.367 136C216.125 135.385 215.882 134.77 215.633 134.137C213.261 128.071 213.261 128.071 208.367 124C208.697 123.01 209.027 122.02 209.367 121Z" fill="#E5C997"/>
<path d="M74.368 122C74.368 122.99 74.368 123.98 74.368 125C73.5842 125.577 72.8005 126.155 71.993 126.75C68.7129 129.562 68.2465 131.847 67.368 136C63.493 135.125 63.493 135.125 62.368 134C62.0741 130.278 62.2199 129.222 64.368 126C65.028 126 65.688 126 66.368 126C66.368 125.34 66.368 124.68 66.368 124C69.4561 122.235 70.6011 122 74.368 122Z" fill="#E5C997"/>
</svg>
