<svg width="245" height="237" viewBox="0 0 245 237" fill="none" xmlns="http://www.w3.org/2000/svg">
<path d="M142.205 0C147.074 0.720499 149.328 3.71874 152.432 7.30078C155.247 11.586 155.828 15.9594 156.205 21C162.443 14.9072 164.646 8.16387 167.205 0C168.195 0.33 169.185 0.66 170.205 1C171.471 6.85529 172.787 14.3871 170.311 20.043C169.205 21.6875 169.205 21.6875 167.205 24C168.368 25.3853 168.368 25.3853 171.58 25.1875C177.474 25.8091 182.214 28.9996 187.205 32C186.146 35.2478 185.212 35.996 182.166 37.7031C180.983 38.2136 179.799 38.7241 178.58 39.25C177.392 39.7708 176.203 40.2916 174.979 40.8281C174.063 41.2148 173.148 41.6016 172.205 42C174.845 41.67 177.485 41.34 180.205 41C180.205 41.99 180.205 42.98 180.205 44C181.525 44.33 182.845 44.66 184.205 45C184.205 45.99 184.205 46.98 184.205 48C178.496 49.9859 173.244 50.4747 167.205 50C166.545 49.67 165.885 49.34 165.205 49C165.292 50.4502 165.292 50.4502 165.381 51.9297C165.671 60.2926 165.491 67.1095 160.205 74C157.37 76.8972 154.4 79.5078 151.205 82C161.184 76.0602 165.278 68.0335 168.205 57C177.39 58.4658 186.125 61.3559 194.955 64.1875C196.517 64.6847 198.079 65.1814 199.641 65.6777C202.734 66.6608 205.825 67.6466 208.916 68.6343C212.665 69.8306 216.42 71.0074 220.178 72.1758C221.182 72.4894 222.186 72.8031 223.22 73.1262C225.023 73.6893 226.827 74.2493 228.632 74.8054C239.819 78.3267 239.819 78.3267 242.845 81.9801C244.799 86.3179 244.616 90.2375 244.577 94.9434C244.581 95.9407 244.585 96.938 244.589 97.9655C244.597 101.258 244.583 104.551 244.568 107.844C244.568 110.134 244.568 112.424 244.57 114.714C244.57 119.513 244.559 124.311 244.541 129.109C244.519 135.259 244.518 141.409 244.525 147.56C244.528 152.288 244.522 157.017 244.512 161.746C244.508 164.013 244.507 166.281 244.508 168.549C244.509 171.718 244.496 174.887 244.48 178.057C244.482 178.994 244.485 179.931 244.487 180.897C244.419 189.231 244.419 189.231 242.205 193C236.491 196.277 230.188 197.158 223.764 198.305C222.657 198.509 221.551 198.713 220.411 198.923C216.823 199.582 213.233 200.229 209.643 200.875C207.147 201.33 204.652 201.786 202.157 202.242C189.208 204.602 176.25 206.87 163.255 208.963C133.493 213.84 103.883 219.754 74.2638 225.423C68.3779 226.549 62.4901 227.665 56.6019 228.779C52.1624 229.621 47.7296 230.491 43.2989 231.379C10.7898 237.723 10.7898 237.723 2.20517 232C1.70705 229.169 1.70705 229.169 1.54184 225.411C1.50919 224.711 1.47653 224.01 1.44289 223.289C0.995648 212.676 0.926583 202.046 0.818454 191.426C0.79274 189.084 0.766957 186.742 0.741107 184.401C0.688515 179.527 0.639529 174.653 0.592624 169.78C0.531827 163.534 0.457609 157.289 0.380252 151.044C0.322737 146.223 0.274402 141.403 0.228656 136.583C0.205273 134.279 0.178538 131.974 0.148349 129.67C0.107248 126.462 0.0790334 123.253 0.0540495 120.044C0.0390793 119.096 0.024109 118.148 0.00868511 117.171C-0.0306879 109.001 -0.030688 109.001 2.20517 105C7.80481 99.9806 15.2337 96.7575 21.8927 93.375C29.8167 89.2948 37.6977 85.1515 45.5177 80.875C46.8664 80.1396 46.8664 80.1396 48.2423 79.3894C52.6782 76.9625 57.0918 74.5029 61.4786 71.9883C62.3084 71.516 63.1381 71.0437 63.993 70.5571C65.5543 69.666 67.1108 68.7664 68.6615 67.8569C70.4677 66.8278 72.3329 65.9034 74.2052 65C75.6902 65.495 75.6902 65.495 77.2052 66C77.2193 66.9526 77.2335 67.9052 77.2481 68.8867C77.122 76.8003 77.122 76.8003 80.7677 83.375C81.572 83.9112 82.3764 84.4475 83.2052 85C82.5658 84.3606 81.9264 83.7212 81.2677 83.0625C77.0223 76.7588 78.0567 70.391 79.3302 63.25C82.2123 48.5862 88.0205 32.4104 100.205 23C104.974 20.215 109.686 18.566 115.205 18C114.215 16.7316 114.215 16.7316 113.205 15.4375C110.952 11.5656 110.853 9.39721 111.205 5C113.823 4.60342 115.605 4.62724 117.885 6.04297C119.069 6.94046 120.249 7.84426 121.424 8.75391C123.848 10.4496 126.366 11.2384 129.205 12C129.535 10.35 129.865 8.7 130.205 7C130.865 7 131.525 7 132.205 7C132.205 6.34 132.205 5.68 132.205 5C135.111 2.95831 136.607 2 140.205 2C140.027 2.92232 140.027 2.92232 139.846 3.86328C139.459 6.28642 139.157 8.54494 139.205 11C140.972 13.1425 140.972 13.1425 143.205 14C142.875 13.1338 142.545 12.2675 142.205 11.375C141.03 7.40716 140.3 3.80956 142.205 0ZM99.631 32.0898C90.3592 43.213 83.6426 60.5201 84.2052 75C85.5539 79.0463 86.7361 79.7522 90.5177 81.75C106.574 87.1927 128.037 85.8727 143.483 78.9844C145.559 77.9248 145.559 77.9248 148.205 76C149.071 75.4225 149.938 74.845 150.83 74.25C156.167 69.1939 159.307 63.2472 159.58 55.875C159.515 47.6334 155.398 42.0999 150.205 36C144.35 30.6531 137.405 24.4333 129.205 23.75C128.545 23.8325 127.885 23.915 127.205 24C127.205 25.32 127.205 26.64 127.205 28C121.455 28.125 121.455 28.125 119.205 27C119.205 25.68 119.205 24.36 119.205 23C111.218 23 105.292 26.6754 99.631 32.0898ZM204.455 87.9375C203.167 88.1199 201.88 88.3023 200.553 88.4902C195.092 89.2683 189.643 90.0774 184.205 91C184.205 91.33 184.205 91.66 184.205 92C194.196 91.6063 204.09 90.7674 214.018 89.5625C215.583 89.3792 215.583 89.3792 217.18 89.1921C218.656 89.0062 218.656 89.0062 220.162 88.8164C221.039 88.7076 221.915 88.5987 222.818 88.4866C225.238 87.9934 227.062 87.2072 229.205 86C220.809 85.6573 212.751 86.723 204.455 87.9375ZM176.205 92C176.205 92.33 176.205 92.66 176.205 93C177.855 93 179.505 93 181.205 93C181.205 92.67 181.205 92.34 181.205 92C179.555 92 177.905 92 176.205 92ZM167.205 93C171.205 94 171.205 94 171.205 94L167.205 93ZM200.404 104.73C195.095 107.795 189.196 108.039 183.303 106.505C180.542 105.659 177.807 104.763 175.091 103.779C169.184 101.71 164.118 100.952 158.045 103.137C157.087 103.648 156.129 104.16 155.143 104.688C153.604 105.505 153.604 105.505 152.033 106.34C149.699 107.71 147.549 109.123 145.393 110.75C140.191 114.422 135.749 115.493 129.436 114.492C126.841 113.92 124.317 113.184 121.768 112.438C113.699 110.172 107.763 110.095 100.205 114C97.9005 115.443 95.7074 117.015 93.5177 118.625C86.8673 123.507 86.8673 123.507 83.2052 124C82.5658 124.09 81.9264 124.18 81.2677 124.273C74.1088 124.626 68.6022 121.948 62.2052 119C55.2522 115.992 50.3214 116.469 43.3302 119C35.2303 121.863 28.6307 122.102 20.7013 118.656C17.1846 117.619 17.1846 117.619 9.20517 118C9.20517 126.58 9.20517 135.16 9.20517 144C20.9 144.247 32.1081 143.311 43.7052 141.875C45.6094 141.645 47.5137 141.415 49.4181 141.186C54.3821 140.586 59.3445 139.973 64.3067 139.357C67.064 139.017 69.8219 138.683 72.5802 138.352C120.265 132.615 168.118 126.253 215.33 117.375C216.226 117.207 217.121 117.039 218.044 116.866C220.477 116.405 222.908 115.936 225.338 115.461C226.035 115.326 226.732 115.191 227.45 115.052C230.601 114.608 230.601 114.608 233.205 113C233.278 110.647 233.289 108.292 233.268 105.938C233.259 104.647 233.25 103.357 233.24 102.027C233.229 101.028 233.217 100.029 233.205 99C219.478 93.6616 212.374 97.3084 200.404 104.73ZM137.205 97C141.205 98 141.205 98 141.205 98L137.205 97ZM207.955 126.375C207.311 126.63 206.666 126.885 206.002 127.148C203.938 128.074 203.938 128.074 201.205 130C201.205 130.66 201.205 131.32 201.205 132C200.545 132 199.885 132 199.205 132C199.205 132.66 199.205 133.32 199.205 134C194.519 136.57 190.275 136.037 185.205 135C184.875 134.67 184.545 134.34 184.205 134C179.411 133.564 177.205 134.5 173.205 137C168.941 138.421 166.125 137.78 161.955 136.5C156.444 134.902 151.75 134.199 146.205 136C142.927 138.055 140.104 140.451 137.205 143C133.746 144.73 129.801 144.325 126.061 143.562C122.432 142.851 120.184 142.474 116.842 144.27C115.339 145.348 113.869 146.474 112.443 147.652C109.454 149.452 107.653 149.386 104.205 149C101.104 147.869 98.1924 146.494 95.2052 145.094C91.8702 143.878 89.7251 143.559 86.2052 144C83.3961 145.456 83.3961 145.456 80.7677 147.438C76.4322 150.31 73.5531 152.188 68.2052 152C66.2394 151.53 64.2815 151.027 62.3302 150.5C55.5561 148.699 50.6827 148.047 44.4161 151.566C42.545 152.774 40.6973 154.02 38.881 155.309C31.4027 160.036 24.1206 159.709 15.7677 157.938C14.944 157.74 14.1203 157.543 13.2716 157.34C11.1496 156.783 11.1496 156.783 9.20517 158C9.17623 161.458 9.15839 164.917 9.14267 168.375C9.13429 169.36 9.12591 170.345 9.11728 171.359C9.11406 172.3 9.11084 173.241 9.10752 174.211C9.10228 175.08 9.09704 175.95 9.09165 176.845C9.06395 179.05 9.06395 179.05 10.2052 181C52.7601 179.877 95.3849 171.362 137.205 164C137.999 163.861 138.793 163.721 139.611 163.577C167.599 158.654 195.42 152.955 223.205 147C224.059 146.821 224.913 146.642 225.793 146.458C227.019 146.196 227.019 146.196 228.27 145.929C229.003 145.774 229.737 145.619 230.492 145.46C232.224 145.148 232.224 145.148 233.205 144C233.278 141.303 233.298 138.633 233.268 135.938C233.261 134.8 233.261 134.8 233.254 133.639C233.242 131.759 233.224 129.88 233.205 128C231.02 127.491 228.832 126.993 226.643 126.5C224.815 126.082 224.815 126.082 222.951 125.656C217.712 124.738 212.947 124.325 207.955 126.375ZM173.221 172.012C166.615 176.367 160.979 176.763 153.205 176C150.59 175.364 148.033 174.694 145.455 173.938C137.817 171.72 137.817 171.72 130.205 173C126.691 175.108 123.468 177.527 120.205 180C118.569 181.139 116.924 182.265 115.268 183.375C114.557 183.857 113.847 184.339 113.115 184.836C108.476 187.663 103.219 187.672 98.0333 186.516C97.3063 186.325 96.5792 186.134 95.8302 185.938C89.6878 184.505 84.1282 184.273 78.5606 187.562C76.8415 188.8 75.1378 190.059 73.4513 191.34C69.6266 194.167 66.7476 195.135 62.0255 194.723C57.126 193.796 52.8278 192.023 48.254 190.084C41.3069 187.301 35.5517 187.121 28.4552 189.938C22.3758 192.132 16.6362 192.772 10.2052 193C10.0231 202.367 10.5919 211.659 11.2052 221C21.0184 221.39 30.6168 220.212 40.3302 219C41.2088 218.892 42.0874 218.784 42.9926 218.672C102.07 211.348 160.806 199.632 218.955 187C219.64 186.852 220.326 186.704 221.032 186.552C222.919 186.143 224.804 185.728 226.69 185.312C228.263 184.966 228.263 184.966 229.868 184.613C232.148 184.225 232.148 184.225 233.205 183C233.292 181.292 233.312 179.581 233.303 177.871C233.3 176.837 233.296 175.802 233.293 174.736C233.285 173.648 233.276 172.559 233.268 171.438C233.261 169.799 233.261 169.799 233.254 168.127C233.242 165.418 233.226 162.709 233.205 160C229.891 159.842 227.43 159.922 224.275 161.02C220.619 162.187 217.891 162.029 214.08 161.688C212.881 161.588 211.683 161.489 210.447 161.387C207.911 161.084 205.663 160.623 203.205 160C190.432 158.592 183.152 164.875 173.221 172.012Z" fill="#E5C997"/>
<path d="M126.018 71.25C127.1 71.6212 127.1 71.6212 128.205 72C127.874 75.062 127.605 76.6005 125.393 78.8125C123.205 80 123.205 80 119.205 80C118.875 78.35 118.545 76.7 118.205 75C122.513 70.9385 122.513 70.9385 126.018 71.25Z" fill="#E5C997"/>
<path d="M196.205 166C198.893 166.875 198.893 166.875 201.205 168C201.33 170.375 201.33 170.375 201.205 173C199.205 175 199.205 175 196.705 175.25C194.205 175 194.205 175 192.205 173C192.393 170.5 192.393 170.5 193.205 168C194.195 167.34 195.185 166.68 196.205 166Z" fill="#E5C997"/>
<path d="M116.955 57.25C117.698 57.4975 118.44 57.745 119.205 58C118.877 61.0316 118.564 62.6158 116.455 64.875C113.61 66.2974 112.189 65.9118 109.205 65C109.594 62.2766 110.272 60.911 111.955 58.6875C114.205 57 114.205 57 116.955 57.25Z" fill="#E5C997"/>
<path d="M146.393 38.9375C147.29 39.4634 147.29 39.4634 148.206 40C146.956 43.6532 146.535 44.7806 143.206 47C140.518 47.125 140.518 47.125 138.206 47C137.84 42.4878 137.84 42.4878 139.518 40.25C142.035 38.3857 143.442 37.6726 146.393 38.9375Z" fill="#E5C997"/>
<path d="M114.955 29.25C115.698 29.4975 116.44 29.745 117.205 30C116.877 33.0316 116.564 34.6158 114.455 36.875C111.61 38.2974 110.189 37.9118 107.205 37C107.594 34.2766 108.272 32.911 109.955 30.6875C112.205 29 112.205 29 114.955 29.25Z" fill="#E5C997"/>
<path d="M146.205 66C146.018 68.3125 146.018 68.3125 145.205 71C142.893 72.9375 142.893 72.9375 140.205 74C137.893 73.1875 137.893 73.1875 136.205 72C136.574 69.3239 137.054 68.1568 138.955 66.1875C141.806 64.6831 143.186 65.0775 146.205 66Z" fill="#E5C997"/>
<path d="M155.205 52C155.455 54.3125 155.455 54.3125 155.205 57C152.968 59.4031 151.742 59.9634 148.455 60.1875C147.713 60.1256 146.97 60.0637 146.205 60C145.875 59.01 145.545 58.02 145.205 57C148.299 52.5196 149.827 50.3866 155.205 52Z" fill="#E5C997"/>
<path d="M104.956 44.2499C105.698 44.4974 106.441 44.7449 107.206 44.9999C106.893 47.8749 106.893 47.8749 106.206 50.9999C102.978 53.1519 101.922 53.2008 98.2056 52.9999C97.8401 49.71 97.9434 48.3689 99.8931 45.6249C102.206 43.9999 102.206 43.9999 104.956 44.2499Z" fill="#E5C997"/>
<path d="M110.205 71C110.205 72.65 110.205 74.3 110.205 76C109.545 76 108.885 76 108.205 76C108.205 76.66 108.205 77.32 108.205 78C106.225 78.33 104.245 78.66 102.205 79C101.545 78.01 100.885 77.02 100.205 76C105.205 69.5 105.205 69.5 110.205 71Z" fill="#E5C997"/>
<path d="M97.2051 59C99.3301 59.9375 99.3301 59.9375 101.205 61C100.644 64.2567 99.8328 65.9562 97.2051 68C95.0176 68.6875 95.0176 68.6875 93.2051 69C92.5451 67.68 91.8851 66.36 91.2051 65C94.9551 60.125 94.9551 60.125 97.2051 59Z" fill="#E5C997"/>
<path d="M135.018 52.25C136.1 52.6212 136.1 52.6212 137.205 53C136.893 55.375 136.893 55.375 136.205 58C132.977 60.1519 131.921 60.2009 128.205 60C127.875 58.68 127.545 57.36 127.205 56C131.513 51.9385 131.513 51.9385 135.018 52.25Z" fill="#E5C997"/>
<path d="M21.7676 131.688C24.2051 132 24.2051 132 26.2051 134C25.8383 136.935 25.3407 137.864 23.2051 140C20.7051 139.875 20.7051 139.875 18.2051 139C16.8926 136.938 16.8926 136.938 16.2051 135C18.0162 132.712 18.8123 132.048 21.7676 131.688Z" fill="#E5C997"/>
<path d="M123.455 42.3125C124.321 42.6528 124.321 42.6528 125.205 43C125.518 45.3125 125.518 45.3125 125.205 48C122.955 49.875 122.955 49.875 120.205 51C117.893 50.6875 117.893 50.6875 116.205 50C116.538 46.9247 116.836 45.3817 119.018 43.125C121.205 42 121.205 42 123.455 42.3125Z" fill="#E5C997"/>
<path d="M135.205 29C135.535 30.32 135.865 31.64 136.205 33C134.018 35.0625 134.018 35.0625 131.205 37C128.393 36.75 128.393 36.75 126.205 36C127.184 30.321 129.47 28.535 135.205 29Z" fill="#E5C997"/>
<path d="M133.768 179.938C134.974 179.968 134.974 179.968 136.205 180C136.865 181.32 137.525 182.64 138.205 184C137.018 185.562 137.018 185.562 135.205 187C132.518 186.688 132.518 186.688 130.205 186C130.162 184.334 130.164 182.666 130.205 181C131.205 180 131.205 180 133.768 179.938Z" fill="#E5C997"/>
<path d="M115.205 87C119.919 87.4794 123.871 87.9683 128.205 90C128.205 90.33 128.205 90.66 128.205 91C123.585 91 118.965 91 114.205 91C113.875 90.34 113.545 89.68 113.205 89C113.865 89 114.525 89 115.205 89C115.205 88.34 115.205 87.68 115.205 87Z" fill="#E5C997"/>
<path d="M42.2051 194C43.5251 194.66 44.8451 195.32 46.2051 196C45.8751 197.65 45.5451 199.3 45.2051 201C43.5551 200.67 41.9051 200.34 40.2051 200C40.2051 196 40.2051 196 42.2051 194Z" fill="#E5C997"/>
<path d="M157.205 109C158.855 109.33 160.505 109.66 162.205 110C161.875 111.65 161.545 113.3 161.205 115C159.555 114.67 157.905 114.34 156.205 114C156.535 112.35 156.865 110.7 157.205 109Z" fill="#E5C997"/>
<path d="M17.2051 200C18.5251 200.66 19.8451 201.32 21.2051 202C20.8751 203.32 20.5451 204.64 20.2051 206C18.8851 206 17.5651 206 16.2051 206C15.5801 204.125 15.5801 204.125 15.2051 202C15.8651 201.34 16.5251 200.68 17.2051 200Z" fill="#E5C997"/>
<path d="M119.205 152C120.525 152.66 121.845 153.32 123.205 154C122.875 155.32 122.545 156.64 122.205 158C120.555 158 118.905 158 117.205 158C116.875 157.01 116.545 156.02 116.205 155C117.195 154.01 118.185 153.02 119.205 152Z" fill="#E5C997"/>
<path d="M48.2051 157C49.1951 157 50.1851 157 51.2051 157C51.5351 158.32 51.8651 159.64 52.2051 161C50.2251 161.99 50.2251 161.99 48.2051 163C47.5451 162.01 46.8851 161.02 46.2051 160C46.8651 159.01 47.5251 158.02 48.2051 157Z" fill="#E5C997"/>
<path d="M187.205 142C189.185 142.495 189.185 142.495 191.205 143C190.83 144.938 190.83 144.938 190.205 147C189.215 147.495 189.215 147.495 188.205 148C187.545 147.67 186.885 147.34 186.205 147C186.535 145.35 186.865 143.7 187.205 142Z" fill="#E5C997"/>
</svg>
