<svg width="264" height="309" viewBox="0 0 264 309" fill="none" xmlns="http://www.w3.org/2000/svg">
<path d="M210.34 53C211.99 53.33 213.64 53.66 215.34 54C214.768 58.9715 212.492 62.6904 210.027 66.9375C209.636 67.6278 209.245 68.3181 208.842 69.0293C206.495 73.1353 204.009 77.0964 201.34 81C206.762 80.5574 211.896 79.4446 217.152 78.0625C218.14 77.8077 218.14 77.8077 219.147 77.5479C222.324 76.6906 224.572 75.8452 227.34 74C222.816 71.957 218.176 70.9904 213.34 70C213.34 68.68 213.34 67.36 213.34 66C220.125 65.4825 226.271 66.1987 232.84 67.8125C233.881 68.0605 233.881 68.0605 234.943 68.3135C237.604 69.0067 239.998 69.7984 242.371 71.1992C244.037 74.2958 243.15 76.6783 242.34 80C241.233 82.3543 240.111 84.4729 238.777 86.6875C237.961 88.0896 237.144 89.492 236.328 90.8945C235.862 91.6868 235.396 92.4791 234.917 93.2954C233.109 96.3953 231.338 99.5144 229.57 102.637C215.052 128.268 199.798 153.309 182.578 177.233C181.374 178.952 180.248 180.705 179.125 182.477C178.536 183.309 177.947 184.142 177.34 185C176.68 185 176.02 185 175.34 185C175.077 185.731 174.814 186.462 174.543 187.215C173.329 190.024 171.923 192.122 170.09 194.562C158.036 211.589 156.805 228.799 156.34 249C156.318 249.733 156.296 250.466 156.273 251.221C155.957 262.117 156.145 269.324 163.879 277.531C164.361 278.016 164.843 278.501 165.34 279C165.01 279.66 164.68 280.32 164.34 281C160.857 280.355 158.246 279.018 155.34 277C155.34 276.34 155.34 275.68 155.34 275C154.68 275 154.02 275 153.34 275C143.672 261.66 148.549 237.266 150.755 222.154C152.329 213.261 155.125 204.998 159.34 197C158.249 197.433 158.249 197.433 157.137 197.875C149.64 200.643 143.303 201.508 135.34 201C136.371 205.231 136.371 205.231 138.34 209C141.228 210.572 144.127 211.353 147.34 212C146.582 215.781 146.582 215.781 144.402 217.75C142.34 219 142.34 219 140.34 219C140.67 219.99 141 220.98 141.34 222C142.509 231.018 142.47 240.172 142.527 249.25C142.54 250.35 142.553 251.451 142.567 252.584C142.578 263.073 141.906 272.837 134.59 280.938C134.177 281.288 133.765 281.639 133.34 282C136.582 283.89 139.255 284.355 142.98 284.633C144.05 284.717 145.12 284.8 146.223 284.887C147.334 284.965 148.445 285.044 149.59 285.125C151.28 285.255 151.28 285.255 153.004 285.387C155.782 285.599 158.561 285.803 161.34 286C161.34 286.99 161.34 287.98 161.34 289C152.37 294.98 138.458 293.53 128.324 291.691C124.155 290.726 119.749 289.68 116.34 287C115.602 284.363 115.602 284.363 115.34 282C116.243 281.504 117.147 281.007 118.078 280.496C119.27 279.811 120.461 279.125 121.652 278.438C122.247 278.115 122.842 277.792 123.455 277.459C128.73 274.365 130.061 270.9 131.899 265.296C132.568 261.812 132.523 258.325 132.543 254.789C132.549 253.984 132.554 253.18 132.56 252.351C132.57 250.645 132.576 248.938 132.58 247.232C132.59 244.669 132.621 242.106 132.652 239.543C132.732 227.534 132.614 214.971 125.965 204.5C125.358 203.533 124.751 202.566 124.125 201.57C122.022 198.542 119.755 195.782 117.34 193C117.34 192.34 117.34 191.68 117.34 191C116.68 191 116.02 191 115.34 191C113.708 189.074 112.203 187.157 110.715 185.125C110.295 184.569 109.874 184.014 109.441 183.441C106.34 179.262 106.34 179.262 106.34 177C105.68 177 105.02 177 104.34 177C102.855 175.071 101.495 173.15 100.152 171.125C99.335 169.915 98.5173 168.705 97.6992 167.496C97.2964 166.897 96.8936 166.297 96.4785 165.679C94.992 163.487 93.447 161.339 91.9023 159.188C87.5222 152.942 83.5466 146.441 79.5435 139.95C78.4576 138.191 77.3659 136.435 76.2734 134.68C72.4754 128.557 68.7597 122.388 65.0898 116.188C64.6773 115.494 64.2648 114.801 63.8398 114.086C62.6519 112.069 61.4887 110.04 60.3398 108C59.937 107.291 59.5342 106.581 59.1191 105.85C58.5555 104.805 58.5555 104.805 57.9805 103.738C57.4705 102.805 57.4705 102.805 56.9502 101.853C56.192 99.5511 56.5691 98.2595 57.3398 96C59.3198 95.505 59.3198 95.505 61.3398 95C65.6674 100.184 69.4649 105.627 73.0898 111.312C90.086 137.971 90.086 137.971 109.34 163C110.113 163.936 110.887 164.872 111.684 165.836C119.538 175.009 128.029 181.137 140.301 182.164C151.755 182.619 162.22 178.84 171.34 172C174.44 168.94 176.861 165.574 179.34 162C180.308 160.642 181.279 159.285 182.25 157.93C184.852 154.284 187.421 150.617 189.981 146.941C191.139 145.287 192.312 143.642 193.488 142C196.586 137.671 199.335 133.334 201.848 128.645C203.788 125.206 205.91 121.895 208.027 118.562C211.812 112.576 215.396 106.502 218.84 100.312C219.261 99.5585 219.682 98.8045 220.116 98.0276C222.103 94.4212 223.931 90.8817 225.34 87C224.762 87.1358 224.185 87.2715 223.59 87.4114C168.807 100.232 108.396 103.148 54.3398 85C54.3398 83.68 54.3398 82.36 54.3398 81C55.3571 81.1159 56.3743 81.2319 57.4224 81.3513C61.2651 81.7885 65.1083 82.2218 68.9517 82.6541C70.6022 82.8402 72.2526 83.0273 73.9028 83.2156C79.3789 83.8398 84.8572 84.4366 90.3398 85C91.4418 85.114 92.5437 85.228 93.679 85.3455C105.108 86.339 116.595 86.1861 128.058 86.1853C131.738 86.1875 135.417 86.2056 139.096 86.2246C153.164 86.2578 167.101 85.878 181.086 84.241C183.103 84.0254 185.131 83.9299 187.158 83.8506C191.577 82.6693 193.113 80.0466 195.398 76.3398C195.832 75.6754 196.266 75.0109 196.714 74.3263C198.089 72.2096 199.433 70.0746 200.777 67.9375C201.707 66.4954 202.639 65.0547 203.572 63.6152C205.852 60.0914 208.103 56.5509 210.34 53ZM133.34 189C136.747 193.171 136.747 193.171 140.145 193.496C145.993 193.384 150.405 193.29 155.34 190C155.34 189.67 155.34 189.34 155.34 189C148.08 189 140.82 189 133.34 189Z" fill="#E5C997"/>
<path d="M71.972 40.9726C79.4293 47.2835 86.6213 55.7891 87.5106 65.9602C87.5705 68.0815 87.5634 70.1907 87.5267 72.3125C87.5257 73.404 87.5257 73.404 87.5247 74.5176C87.4799 79.8593 87.4799 79.8592 86.3392 81C82.9017 80.8125 82.9017 80.8125 79.3392 80C78.1165 77.9492 78.1165 77.9492 77.3392 76C73.1096 76.3074 68.8806 76.6218 64.6517 76.9375C62.8544 77.068 62.8544 77.068 61.0208 77.2012C59.8639 77.2882 58.7069 77.3752 57.515 77.4648C55.9203 77.5827 55.9203 77.5827 54.2935 77.7029C51.5847 77.9753 48.9956 78.4137 46.3392 79C46.5557 80.0274 46.7723 81.0548 46.9954 82.1133C48.6334 90.164 49.8117 97.7392 49.3392 106C47.3592 106.495 47.3592 106.495 45.3392 107C43.8397 102.823 42.8669 98.8252 42.2142 94.4375C41.9628 92.7959 41.9628 92.7959 41.7064 91.1211C41.383 88.3725 41.2671 85.7627 41.3392 83C38.1017 86.0406 35.5875 89.2687 33.0892 92.9375C32.3828 93.9571 31.6764 94.9768 30.9485 96.0273C29.3027 99.0673 28.9653 100.616 29.3392 104C36.6733 108.267 41.8613 108.881 50.1517 107.25C53.3392 107 53.3392 107 55.7767 108.625C57.576 111.36 57.6957 112.791 57.3392 116C47.4568 120.118 37.2456 119.641 27.3392 116C22.0594 113.525 16.7987 110.799 12.3392 107C12.3392 106.34 12.3392 105.68 12.3392 105C11.6792 105 11.0192 105 10.3392 105C0.814955 92.9283 -0.859994 80.8961 0.339173 66C0.864834 62.6377 1.75082 60.0008 3.33917 57C3.80324 56.1221 4.2673 55.2443 4.74542 54.3398C10.689 44.1488 19.184 35.5754 30.7415 32.3242C45.3473 29.016 59.9067 31.9326 71.972 40.9726ZM43.3392 41C40.7731 44.8491 41.4554 47.4085 42.0892 51.75C42.1768 52.4409 42.2645 53.1319 42.3548 53.8437C42.9688 58.3809 43.9881 62.6263 45.3392 67C45.9992 67 46.6592 67 47.3392 67C48.9011 65.2836 50.3906 63.5006 51.8392 61.6875C52.6332 60.7014 53.4273 59.7152 54.2454 58.6992C56.3917 55.9989 56.3917 55.9989 58.3392 53C59.6592 53 60.9792 53 62.3392 53C61.8322 57.4359 60.1674 59.6243 57.3392 63C57.3392 63.66 57.3392 64.32 57.3392 65C56.6792 65 56.0192 65 55.3392 65C55.3392 65.66 55.3392 66.32 55.3392 67C54.6792 67 54.0192 67 53.3392 67C53.3392 67.66 53.3392 68.32 53.3392 69C51.3592 69.99 51.3592 69.99 49.3392 71C49.6692 71.66 49.9992 72.32 50.3392 73C53.1952 72.7431 56.0481 72.47 58.9017 72.1875C59.7015 72.1172 60.5014 72.047 61.3255 71.9746C66.551 71.4414 70.6176 70.3132 75.3392 68C75.2139 62.8749 74.9647 58.4384 71.2571 54.5351C67.614 51.6192 63.6076 49.2901 59.5931 46.9297C56.3392 45 56.3392 45 53.1634 42.7851C49.6249 40.5485 47.4512 40.4465 43.3392 41ZM30.429 42.6094C21.7123 47.2287 13.8971 54.9548 9.88214 64.0781C8.91636 67.4966 9.02938 70.4683 9.33917 74C10.3512 75.2435 10.3512 75.2435 12.4405 75.0376C13.3442 74.9968 14.2479 74.9561 15.179 74.9141C16.6495 74.8483 16.6495 74.8483 18.1497 74.7812C19.1816 74.7297 20.2135 74.6781 21.2767 74.625C22.3047 74.5812 23.3327 74.5373 24.3919 74.4922C29.5318 74.4528 29.5318 74.4528 34.3392 73C34.3392 72.34 34.3392 71.68 34.3392 71C33.6792 71 33.0192 71 32.3392 71C32.3392 70.34 32.3392 69.68 32.3392 69C28.7059 66.0376 28.7059 66.0376 24.3392 65C24.3392 64.34 24.3392 63.68 24.3392 63C22.6932 61.3129 21.0268 59.6454 19.3392 58C19.3392 57.67 19.3392 57.34 19.3392 57C22.4865 56.6942 23.9834 56.7736 26.6907 58.4961C27.441 59.1367 28.1912 59.7774 28.9642 60.4375C31.5443 62.6169 33.1088 63.9232 36.3392 65C36.3392 65.66 36.3392 66.32 36.3392 67C37.3292 67.33 38.3192 67.66 39.3392 68C38.7595 59.5043 37.1012 51.3112 35.3392 43C32.5243 41.7341 32.5243 41.7341 30.429 42.6094ZM10.3392 83C10.0788 89.3781 13.0157 92.5404 17.136 97.1797C19.5885 99.206 21.2129 99.6611 24.3392 100C24.3598 98.8656 24.3804 97.7312 24.4017 96.5625C25.0872 90.802 28.6772 87.2536 32.3392 83C33.3494 81.6744 34.3528 80.3434 35.3392 79C21.9233 78.0959 21.9233 78.0959 10.3392 83Z" fill="#E5C997"/>
<path d="M241.34 0C242.33 0 243.32 0 244.34 0C243.587 7.40423 243.587 7.40423 242.277 10.5625C240.632 14.8405 240.873 18.7273 242.441 23C242.944 23.99 243.447 24.98 243.965 26C246.467 31.1385 248.716 36.293 250.794 41.6167C252.443 45.8125 254.169 49.9683 255.941 54.1133C256.398 55.1867 256.855 56.2601 257.325 57.366C258.239 59.5098 259.16 61.6507 260.089 63.7883C260.509 64.7786 260.93 65.7688 261.363 66.7891C261.744 67.6729 262.125 68.5567 262.517 69.4673C263.382 72.1286 263.498 74.2211 263.34 77C260.846 75.7962 258.658 74.5457 256.34 73C256.34 72.34 256.34 71.68 256.34 71C252.185 68.7629 248.101 67 243.34 67C241.791 62.7185 240.858 58.6293 240.215 54.125C240.047 52.9726 239.88 51.8202 239.707 50.6328C239.586 49.764 239.465 48.8952 239.34 48C239.01 48 238.68 48 238.34 48C238.01 52.62 237.68 57.24 237.34 62C233.34 62 233.34 62 230.902 59.625C229.634 58.3256 229.634 58.3256 228.34 57C225.089 55.3746 221.913 54.6125 218.34 54C218.941 48.3498 220.415 43.3384 222.34 38C222.002 38.5053 221.664 39.0106 221.316 39.5312C220.647 40.5058 220.647 40.5058 219.965 41.5C219.524 42.1497 219.083 42.7994 218.629 43.4688C218.204 43.9741 217.778 44.4794 217.34 45C216.68 45 216.02 45 215.34 45C214.68 46.32 214.02 47.64 213.34 49C210.872 48.5594 209.482 48.1176 207.527 46.5C203.765 43.9199 199.831 43.778 195.402 44.4375C194.722 44.6231 194.041 44.8088 193.34 45C193.34 41 193.34 41 194.984 39.1836C195.7 38.6074 196.415 38.0312 197.152 37.4375C199.672 35.3768 202.057 33.3199 204.34 31C203.231 31.5775 202.123 32.155 200.98 32.75C199.517 33.5004 198.054 34.2504 196.59 35C195.86 35.3816 195.131 35.7631 194.379 36.1562C193.315 36.6977 193.315 36.6977 192.23 37.25C191.581 37.5852 190.932 37.9203 190.263 38.2656C188.34 39 188.34 39 184.34 39C184.01 37.68 183.68 36.36 183.34 35C182.124 34.7461 180.909 34.4921 179.656 34.2305C178.071 33.8835 176.487 33.5358 174.902 33.1875C174.1 33.0219 173.297 32.8562 172.471 32.6855C170.402 32.223 168.367 31.6202 166.34 31C166.01 30.01 165.68 29.02 165.34 28C176.216 25.0683 187.112 22.2632 198.082 19.7031C199.347 19.4072 199.347 19.4072 200.638 19.1053C204.882 18.1144 209.127 17.1321 213.375 16.1604C214.968 15.7907 216.56 15.4209 218.152 15.0508C218.875 14.8884 219.597 14.7261 220.341 14.5588C227.555 12.8697 233.126 11.1001 237.59 4.8125C239.543 2.08203 239.543 2.08203 241.34 0ZM223.34 35C224.34 37 224.34 37 224.34 37L223.34 35Z" fill="#E5C997"/>
<path d="M114.339 275C114.156 276.797 114.156 276.797 113.339 279C111.054 280.703 111.054 280.703 108.277 282.25C106.898 283.031 106.898 283.031 105.492 283.828C104.781 284.215 104.071 284.602 103.339 285C103.602 287.454 103.602 287.454 104.339 290C125.425 301.189 156.616 298.322 178.886 292.879C181.478 291.95 183.24 290.761 185.339 289C184.1 285.145 181.775 283.8 178.292 281.949C175.349 280.519 172.369 279.237 169.339 278C169.669 277.01 169.999 276.02 170.339 275C179.263 276.137 188.046 278.198 194.527 284.875C196.339 288 196.339 288 196.714 291.5C194.336 297.553 189.462 299.548 183.777 302.191C159.875 311.392 123.761 309.748 100.339 300C97.0133 298.184 94.085 296.491 92.3393 293C91.8589 288.756 91.7584 286.757 94.4018 283.312C100.338 278.64 106.534 275 114.339 275Z" fill="#E5C997"/>
<path d="M165.839 118.875C166.881 118.993 166.881 118.993 167.944 119.113C171.432 119.559 173.358 120.013 176.339 122C176.527 124.625 176.527 124.625 176.339 127C174.905 127.674 173.467 128.339 172.027 129C170.826 129.557 170.826 129.557 169.601 130.125C167.339 131 167.339 131 164.339 131C164.339 131.99 164.339 132.98 164.339 134C165.329 134 166.319 134 167.339 134C167.589 136.813 167.589 136.813 167.339 140C165.464 141.875 165.464 141.875 163.339 143C162.679 143 162.019 143 161.339 143C161.339 145.31 161.339 147.62 161.339 150C164.639 148.68 167.939 147.36 171.339 146C171.834 147.485 171.834 147.485 172.339 149C169.379 153.584 166.653 155.717 161.597 157.652C155.472 158.596 149.715 156.277 144.089 154.125C143.383 153.868 142.676 153.612 141.949 153.348C135.144 150.783 135.144 150.783 133.339 148C132.544 141.899 134.929 135.367 136.652 129.563C136.852 128.864 137.053 128.166 137.259 127.447C138.523 123.431 139.577 121.03 143.339 119C150.465 116.625 158.493 118.006 165.839 118.875ZM146.339 129C145.093 134.139 144.066 138.679 144.339 144C146.319 144.66 148.299 145.32 150.339 146C150.061 144.608 150.061 144.608 149.777 143.188C149.339 140 149.339 140 150.339 137C155.089 136.875 155.089 136.875 157.339 138C157.669 135.69 157.999 133.38 158.339 131C152.399 130.01 152.399 130.01 146.339 129ZM150.339 146C152.319 146.99 152.319 146.99 154.339 148C154.009 147.34 153.679 146.68 153.339 146C152.349 146 151.359 146 150.339 146Z" fill="#E5C997"/>
<path d="M121.84 111.688C127.199 114.501 128.583 119.74 130.489 125.16C131.582 128.807 132.054 132.21 132.34 136C131.02 136.33 129.7 136.66 128.34 137C128.547 138.279 128.753 139.558 128.965 140.875C129.317 143.055 129.317 143.055 129.34 145C126.332 148.009 122.747 148.556 118.715 149.688C117.933 149.925 117.151 150.163 116.344 150.408C110.94 151.936 106.834 152.364 101.34 151C97.9019 147.994 96.3889 142.918 94.653 138.75C94.3327 138.024 94.0123 137.299 93.6823 136.551C91.55 131.45 90.9125 127.528 91.3405 122C92.6164 118.911 93.4127 117.463 96.4147 115.965C100.217 114.711 104.02 114.074 107.965 113.438C120.623 111.353 120.623 111.353 121.84 111.688ZM115.778 123.375C111.002 124.842 106.229 125.975 101.34 127C101.944 130.85 103.108 133.861 104.903 137.313C105.358 138.196 105.813 139.079 106.282 139.988C106.631 140.652 106.981 141.316 107.34 142C111.857 142.077 115.931 142.102 120.34 141C120.34 140.34 120.34 139.68 120.34 139C119.701 138.753 119.062 138.505 118.403 138.25C116.34 137 116.34 137 115.403 135.188C115.315 132.116 116.623 130.474 118.34 128C120.32 128.66 122.3 129.32 124.34 130C124.67 129.34 125 128.68 125.34 128C124.406 125.969 123.408 123.965 122.34 122C119.916 122 118.092 122.644 115.778 123.375Z" fill="#E5C997"/>
<path d="M193.34 62C193.835 64.475 193.835 64.475 194.34 67C191.891 68.2246 190.39 68.0915 187.655 68.0376C186.179 68.0122 186.179 68.0122 184.674 67.9864C183.595 67.9625 182.517 67.9387 181.406 67.9141C180.281 67.8931 179.156 67.8722 177.997 67.8507C174.299 67.7805 170.6 67.7029 166.902 67.625C164.367 67.5752 161.831 67.5258 159.295 67.4768C137.309 67.0453 115.324 66.5457 93.3398 66C92.6798 64.35 92.0198 62.7 91.3398 61C105.566 46.774 175.654 59.0566 193.34 62Z" fill="#E5C997"/>
<path d="M183.34 122C184.943 121.946 186.548 121.907 188.152 121.875C189.046 121.852 189.939 121.829 190.859 121.805C193.34 122 193.34 122 196.34 124C196.04 127.5 195.382 128.949 193.09 131.688C190.504 133.862 188.533 134.996 185.34 136C182.684 134.037 182.307 132.86 181.527 129.562C181.339 125.981 181.648 124.972 183.34 122Z" fill="#E5C997"/>
<path d="M137.34 162C138 162.66 138.66 163.32 139.34 164C139.152 167.5 139.152 167.5 138.34 171C134.851 173.326 133.443 173.419 129.34 173C126.965 171.5 126.965 171.5 125.34 170C126.09 164.25 126.09 164.25 128.34 162C131.663 161.038 134.08 160.763 137.34 162Z" fill="#E5C997"/>
<path d="M190.34 101C191 101.66 191.66 102.32 192.34 103C192.168 106.181 191.286 108.095 189.715 110.875C187.34 113 187.34 113 183.652 112.875C180.34 112 180.34 112 179.34 111C179.627 108.661 179.959 106.326 180.34 104C181 104 181.66 104 182.34 104C182.34 103.34 182.34 102.68 182.34 102C185.385 100.152 186.983 99.6574 190.34 101Z" fill="#E5C997"/>
<path d="M178.527 147.313C179.125 147.539 179.724 147.766 180.34 148C181.027 150.313 181.027 150.313 181.34 153C180.152 154.813 180.152 154.813 178.34 156C177.02 156 175.7 156 174.34 156C173.652 153.188 173.652 153.188 173.34 150C174.903 147.45 175.527 146.884 178.527 147.313Z" fill="#E5C997"/>
<path d="M207.34 94C209.015 94.286 210.684 94.6178 212.34 95C212.34 96.65 212.34 98.3 212.34 100C210.69 100.66 209.04 101.32 207.34 102C206.68 101.34 206.02 100.68 205.34 100C205.895 95.4444 205.895 95.4444 207.34 94Z" fill="#E5C997"/>
<path d="M163.402 163.25C164.042 163.497 164.681 163.745 165.34 164C165.67 164.99 166 165.98 166.34 167C165.35 168.485 165.35 168.485 164.34 170C162.69 169.67 161.04 169.34 159.34 169C159.34 167.35 159.34 165.7 159.34 164C161.34 163 161.34 163 163.402 163.25Z" fill="#E5C997"/>
<path d="M168.34 111C169.99 111.33 171.64 111.66 173.34 112C172.68 113.32 172.02 114.64 171.34 116C170.02 115.34 168.7 114.68 167.34 114C167.67 113.01 168 112.02 168.34 111Z" fill="#E5C997"/>
<path d="M160.34 122C162.65 122 164.96 122 167.34 122C167.34 122.66 167.34 123.32 167.34 124C165.03 124.33 162.72 124.66 160.34 125C160.34 124.01 160.34 123.02 160.34 122Z" fill="#E5C997"/>
<path d="M115.34 156C116.66 156.33 117.98 156.66 119.34 157C119.01 158.32 118.68 159.64 118.34 161C117.35 160.67 116.36 160.34 115.34 160C115.34 158.68 115.34 157.36 115.34 156Z" fill="#E5C997"/>
</svg>
