<svg width="306" height="294" viewBox="0 0 306 294" fill="none" xmlns="http://www.w3.org/2000/svg">
<path d="M198.999 0C199.989 0 200.979 0 201.999 0C208.477 7.31656 212.757 15.2969 212.394 25.1797C210.733 37.0534 200.543 45.7192 192.249 53.5625C185.606 60.1261 181.484 68.0857 178.999 77C179.447 76.2755 179.894 75.5511 180.355 74.8047C185.767 66.1497 191.219 59.5993 198.999 53C200.501 51.6899 202.001 50.3774 203.499 49.0625C204.666 48.0417 205.833 47.0208 206.999 46C213.7 49.6667 213.7 49.6667 215.624 51.8125C216.078 52.2044 216.532 52.5962 216.999 53C221.614 52.6133 225.174 50.3918 229.062 48.0625C236.627 43.6061 236.627 43.6061 239.999 42C239.999 41.34 239.999 40.68 239.999 40C240.659 40 241.319 40 241.999 40C242.7 38.3475 243.357 36.6763 243.999 35C244.587 33.4841 244.587 33.4841 245.187 31.9375C247.126 24.9886 245.676 17.5158 242.999 11C242.999 10.01 242.999 9.02 242.999 8C246.059 8.22668 247.191 9.17243 249.499 11.25C253.974 17.0174 256.515 25.4092 256.062 32.6875C254.479 41.2276 249.899 48.7775 242.999 54C235.444 58.8021 227.517 62.8543 219.425 66.6758C217.151 67.917 215.78 69.1655 213.999 71C213.339 71 212.679 71 211.999 71C210.342 74.7523 209.497 78.2635 208.874 82.3125C208.623 83.9154 208.623 83.9154 208.366 85.5508C208.245 86.359 208.124 87.1673 207.999 88C208.659 88 209.319 88 209.999 88C210.025 87.4199 210.051 86.8398 210.077 86.2422C210.585 79.2503 212.628 74.9565 217.937 70.25C223.843 65.9104 223.843 65.9104 227.878 66.0781C231.138 67.495 232.519 70.1985 234.312 73.125C234.701 73.7459 235.089 74.3669 235.49 75.0066C239.602 81.7309 242.931 88.749 245.999 96C246.361 96.8559 246.724 97.7119 247.097 98.5938C250.034 106.354 249.956 114.067 247.046 121.836C244.188 127.745 239.776 132.565 234.999 137C234.426 137.544 233.852 138.088 233.261 138.648C221.215 149.705 202.624 159.32 185.999 159C185.999 158.01 185.999 157.02 185.999 156C187.54 155.346 187.54 155.346 189.113 154.68C203.022 148.729 217.963 142.135 228.781 131.199C229.999 130 229.999 130 231.999 130C231.999 129.34 231.999 128.68 231.999 128C232.659 128 233.319 128 233.999 128C234.371 127.227 234.371 127.227 234.749 126.438C235.999 124 235.999 124 237.999 120.812C240.908 115.697 242.715 110.609 241.124 104.812C235.317 97.126 225.342 91.5765 215.812 90.1875C214.42 90.0947 214.42 90.0947 212.999 90C213.155 90.5711 213.311 91.1421 213.472 91.7305C216.128 102.794 215.332 112.022 209.472 121.855C207.999 124 207.999 124 205.999 126C205.009 125.67 204.019 125.34 202.999 125C203.216 124.429 203.432 123.858 203.656 123.27C208.215 109.992 205.744 99.693 200.999 87C194.399 87 187.799 87 180.999 87C179.296 92.1107 178.743 95.6755 178.874 100.875C178.883 101.563 178.892 102.252 178.902 102.961C178.925 104.641 178.961 106.32 178.999 108C178.339 108 177.679 108 176.999 108C174.578 101.083 172.699 94.1265 170.999 87C128.215 89.8903 73.5307 100.142 42.9875 133.176C38.2085 138.977 33.9993 145.047 33.9993 152.75C36.0462 159.403 40.2428 162.157 46.05 165.508C51.1948 168.111 56.5702 170.077 61.9993 172C61.6693 173.32 61.3393 174.64 60.9993 176C54.7275 177.736 49.7898 175.521 43.9993 173C36.4396 168.677 29.708 163.572 26.9993 155C26.7749 152.183 26.6488 149.466 26.6282 146.648C26.617 145.841 26.6058 145.033 26.5942 144.201C26.567 141.592 26.5606 138.984 26.5618 136.375C26.5614 135.489 26.561 134.603 26.5605 133.69C26.5943 120.867 26.9881 108.98 31.9993 97C32.4334 95.9172 32.4334 95.9172 32.8762 94.8125C37.0362 84.6378 42.4647 75.8121 48.9993 67C49.6593 66.01 50.3193 65.02 50.9993 64C51.6593 64 52.3193 64 52.9993 64C53.2455 63.4328 53.4917 62.8656 53.7454 62.2812C63.6457 44.2694 88.519 33.5397 107.062 27.625C138.053 18.7981 166.791 23.524 195.999 36C196.285 35.4264 196.572 34.8527 196.866 34.2617C197.588 32.8205 198.322 31.3849 199.07 29.957C203.241 21.4752 202.474 14.8807 199.999 6C199.643 4.00399 199.3 2.00516 198.999 0ZM105.671 38.7148C78.7951 49.9611 58.2569 67.999 46.7771 95.0688C45.2063 98.9688 43.9745 102.914 42.9993 107C42.8136 107.607 42.628 108.214 42.4368 108.84C41.831 111.831 41.9063 114.702 41.9368 117.75C41.9458 118.92 41.9548 120.091 41.9641 121.297C41.9757 122.189 41.9873 123.081 41.9993 124C42.4492 123.648 42.899 123.296 43.3625 122.934C49.0245 118.588 54.9388 114.763 60.9993 111C62.1343 110.259 62.1343 110.259 63.2922 109.504C82.2015 97.4944 104.606 91.0134 125.999 85C125.999 84.67 125.999 84.34 125.999 84C118.664 84.5189 111.744 85.8098 104.624 87.625C103.589 87.8857 102.554 88.1464 101.488 88.415C92.1225 90.842 83.0487 93.9145 73.9827 97.2754C71.3401 98.2408 68.674 99.1284 65.9993 100C66.835 81.1116 76.0503 64.3169 89.4507 51.3767C94.0088 47.3245 98.9487 44.339 104.437 41.6875C106.013 40.9199 106.013 40.9199 107.62 40.1367C108.405 39.7616 109.19 39.3865 109.999 39C107.992 37.7091 107.992 37.7091 105.671 38.7148ZM126.999 83C130.999 84 130.999 84 130.999 84L126.999 83Z" fill="#E5C997"/>
<path d="M38 210C38 211.32 38 212.64 38 214C36.903 214.519 35.806 215.039 34.6758 215.574C33.2211 216.278 31.7667 216.983 30.3125 217.687C29.2307 218.197 29.2307 218.197 28.127 218.717C23.6206 220.918 20.3907 223.207 17 227C16.34 227.66 15.68 228.32 15 229C15 233.163 15.8134 234.785 18.5586 237.953C22.015 241.265 25.6837 243.149 30.0625 245C30.8529 245.338 31.6432 245.675 32.4575 246.023C59.7396 257.32 90.6835 261.315 120 263C121.235 263.082 121.235 263.082 122.494 263.166C208.763 269.054 208.763 269.054 286.688 240.25C289.307 237.701 289.887 236.829 290.375 233.25C289.889 229.035 288.074 226.76 285 224C282.192 222.351 279.26 221.108 276.25 219.875C274.708 219.24 273.171 218.592 271.641 217.93C270.965 217.654 270.29 217.378 269.595 217.093C268 216 268 216 267.272 213.879C267.183 213.259 267.093 212.639 267 212C271.388 209.806 276.944 210.452 281.566 211.684C290.149 214.921 299.573 220.125 304.312 228.25C305.822 234.289 305.965 239.093 302.688 244.562C286.763 265.697 251.654 270.841 227.191 274.566C205.435 277.523 183.39 279.227 161.438 279.25C160.296 279.252 160.296 279.252 159.131 279.254C40.0412 279.209 40.0412 279.209 5.29297 245.336C1.52987 241.106 0 237.831 0 232.187C0.969406 226.083 5.02323 221.873 9.375 217.75C17.8297 212.114 27.7546 207.765 38 210Z" fill="#E5C997"/>
<path d="M164.001 154C168.839 157.323 173.457 160.939 178.093 164.535C192.477 175.579 205.685 183.792 224.384 181.738C225.432 181.589 225.432 181.589 226.501 181.437C230.001 181 230.001 181 233.001 182C232.671 181.01 232.341 180.02 232.001 179C235.193 173.829 240.189 168.879 246.001 167.062C249.663 166.986 251.109 167.812 254.001 170C254.599 170.412 255.197 170.825 255.814 171.25C257.75 174.103 257.299 176.662 257.001 180C256.341 180.99 255.681 181.98 255.001 183C255.331 182.67 255.661 182.34 256.001 182C259 181.656 261.104 181.419 264.001 182C268.125 186.229 268.817 190.31 269.001 196C267.7 200.484 263.948 202.311 260.189 204.625C259.572 205.019 258.955 205.414 258.319 205.82C251.988 209.803 246.593 212.107 239.001 211C236.447 209.895 234.355 208.523 232.001 207C229.731 206.24 229.731 206.24 228.001 206C228.331 205.01 228.661 204.02 229.001 203C231.399 202.086 231.399 202.086 234.376 201.375C235.353 201.135 236.33 200.895 237.337 200.648C238.216 200.434 239.095 200.22 240.001 200C240.991 199.67 241.981 199.34 243.001 199C242.55 197.539 242.09 196.081 241.626 194.625C241.371 193.813 241.116 193.001 240.853 192.164C240.102 189.835 240.102 189.835 238.001 188C237.444 188.681 237.444 188.681 236.876 189.375C231.157 194.332 221.97 194.334 214.724 194.203C199.223 193.047 187.629 184.74 176.337 174.867C160.536 161.13 144.5 150.879 123.052 151.812C116.134 152.446 110.534 156.048 105.001 160C104.259 160.33 103.516 160.66 102.751 161C100.459 162.31 100.125 163.63 99.001 166C98.1709 167.439 97.3374 168.877 96.501 170.312C91.5685 179.261 90.3812 189.031 93.1534 198.949C94.627 202.514 96.7345 205.688 98.8565 208.898C99.2342 209.592 99.6119 210.285 100.001 211C99.671 211.66 99.341 212.32 99.001 213C97.0626 212.94 95.1252 212.851 93.1885 212.75C92.1096 212.704 91.0306 212.657 89.919 212.609C87.001 212 87.001 212 85.2471 210.273C81.201 202.892 79.3641 195.37 79.001 187C77.5413 188.123 76.0833 189.249 74.626 190.375C73.8139 191.001 73.0018 191.628 72.1651 192.273C69.9588 193.968 69.9588 193.968 68.001 196C67.8559 198.745 67.8145 201.385 67.876 204.125C67.885 204.879 67.8941 205.633 67.9033 206.41C67.9269 208.274 67.9628 210.137 68.001 212C67.011 212 66.021 212 65.001 212C61.2438 206.061 59.3255 201.561 60.6885 194.375C63.27 187.737 68.0769 183.731 74.001 180C74.661 180 75.321 180 76.001 180C76.001 179.34 76.001 178.68 76.001 178C76.661 178 77.321 178 78.001 178C78.001 177.34 78.001 176.68 78.001 176C78.661 176 79.321 176 80.001 176C80.3935 175.147 80.3935 175.147 80.794 174.277C87.6209 161.397 99.2906 152.406 113.001 148C115.697 147.201 118.405 146.461 121.126 145.75C121.783 145.574 122.44 145.399 123.116 145.218C137.529 141.651 151.705 146.304 164.001 154Z" fill="#E5C997"/>
<path d="M129.812 193.687C133.423 193.713 134.62 193.729 137.625 195.875C139 198 139 198 139 200C139.99 199.34 140.98 198.68 142 198C146.545 197.243 150.829 197.555 155 199.562C158 202 158 202 158.938 205.625C158.971 207.416 159 209.208 159 211C160.072 211.082 161.145 211.165 162.25 211.25C166 212 166 212 168.438 213.437C170.901 217.478 170.866 221.403 170 226C167.259 229.681 164.079 231.949 160 234C156.668 234.293 156.668 234.293 153.188 234.187C151.445 234.147 151.445 234.147 149.668 234.105C148.788 234.071 147.907 234.036 147 234C147.165 233.072 147.33 232.144 147.5 231.187C148.077 228.044 148.077 228.044 148 225C147.773 225.742 147.546 226.485 147.312 227.25C145.672 230.687 144.255 232.019 141 234C136.943 235.207 134.017 235.411 130.062 233.812C128 232 128 232 127 230.25C127 226.725 128.48 224.161 130 221C129.34 221 128.68 221 128 221C127.773 221.639 127.546 222.279 127.312 222.937C126 225 126 225 123.688 225.937C120.196 226.019 118.756 225.103 116 223C113.655 220.655 113.06 219.352 112.5 216.062C113.162 212.008 114.933 210.618 118 208C118.33 207.67 118.66 207.34 119 207C118.876 205.391 118.876 205.391 118.75 203.75C119 200 119 200 121.438 197.125C122.283 196.424 123.129 195.722 124 195C125.65 193.35 127.548 193.75 129.812 193.687ZM137 204C136.67 205.65 136.34 207.3 136 209C137.32 209.33 138.64 209.66 140 210C140.33 209.01 140.66 208.02 141 207C139.68 206.01 138.36 205.02 137 204Z" fill="#E5C997"/>
<path d="M64 274C65.7627 274.244 67.5143 274.57 69.2578 274.926C70.36 275.146 71.4621 275.365 72.5977 275.592C74.3437 275.949 74.3437 275.949 76.125 276.312C92.6582 279.682 109.065 281.488 125.875 282.625C126.834 282.69 127.793 282.756 128.781 282.823C154.622 284.552 180.216 284.913 206 282C207.234 281.867 208.467 281.734 209.738 281.598C218.558 280.489 227.233 278.555 235.916 276.677C236.917 276.461 237.918 276.245 238.949 276.023C239.85 275.827 240.751 275.63 241.678 275.427C244 275 244 275 247 275C246 278 246 278 243.508 279.43C214.699 291.738 184.505 293.369 153.562 293.438C152.379 293.444 151.195 293.45 149.975 293.456C81.7121 293.685 81.7121 293.685 64.75 277.188C64.1725 276.466 63.595 275.744 63 275C63.33 274.67 63.66 274.34 64 274Z" fill="#E5C997"/>
<path d="M66 238C70.4064 238.656 74.5893 239.665 78.875 240.875C102.799 247.376 127.346 249.526 152.066 249.391C155.565 249.375 159.062 249.391 162.561 249.41C183.213 249.429 204.133 247.823 224.156 242.418C227.09 241.753 230.007 241.942 233 242C233 242.99 233 243.98 233 245C193.018 267.478 131.269 262.408 89 251C71.893 245.402 71.893 245.402 66 240C66 239.34 66 238.68 66 238Z" fill="#E5C997"/>
<path d="M228 208C233.461 210.022 233.461 210.022 235.164 213.109C235.44 213.733 235.716 214.357 236 215C236.953 214.965 237.905 214.93 238.887 214.895C240.141 214.867 241.395 214.84 242.688 214.813C243.929 214.778 245.17 214.743 246.449 214.707C250.248 215.021 251.998 215.717 255 218C257.649 221.222 258.918 223.136 259.312 227.313C259 230 259 230 258 231C253.45 231.263 250.116 230.995 246 229C246.227 229.928 246.454 230.856 246.688 231.813C247 235 247 235 245.688 236.813C241.665 239.643 237.788 239.586 233 239C227.483 236.241 227.483 236.241 226.125 232.75C226.084 232.173 226.043 231.595 226 231C225.01 231.33 224.02 231.66 223 232C223.33 233.32 223.66 234.64 224 236C221.21 237.976 219.167 238.103 215.875 237.75C212 237 212 237 210 235C210 234.01 210 233.02 210 232C208.732 232.464 208.732 232.464 207.438 232.938C203.95 234.015 200.618 234.566 197 235C196.67 234.01 196.34 233.02 196 232C198.603 228.355 200.7 225.592 205 224C204.34 222.68 203.68 221.36 203 220C204.176 218.047 204.176 218.047 206 216C208.48 215.391 208.48 215.391 211.188 215.25C212.089 215.193 212.99 215.137 213.918 215.078C214.949 215.039 214.949 215.039 216 215C215.67 213.68 215.34 212.36 215 211C219.169 207.874 222.92 207.264 228 208ZM231 217C231.99 217.99 232.98 218.98 234 220C233.67 219.01 233.34 218.02 233 217C232.34 217 231.68 217 231 217ZM234 220C234.33 220.66 234.66 221.32 235 222C235.99 221.67 236.98 221.34 238 221C236.68 220.67 235.36 220.34 234 220Z" fill="#E5C997"/>
<path d="M179 199C182.312 200.625 182.312 200.625 185 203C186.119 206.654 186.211 208.368 185 212C186.072 211.917 187.145 211.835 188.25 211.75C192 212 192 212 194.375 213.875C197.074 217.404 197.428 219.552 197 224C194.859 227.822 192.457 231.277 189 234C186.25 234.25 186.25 234.25 184 234C183.34 232.35 182.68 230.7 182 229C181.897 229.928 181.794 230.856 181.688 231.812C181 235 181 235 179.938 236.875C176.788 238.704 173.506 238.416 170 238C167 237 167 237 165 236C166.004 233.837 166.974 232.031 168.5 230.187C170.979 226.572 172.044 222.818 171.938 218.437C170.302 214.186 167.601 210.952 163.688 208.625C163.131 208.419 162.574 208.212 162 208C162.207 206.172 162.207 206.172 163 204C167.617 200.696 173.274 197.829 179 199Z" fill="#E5C997"/>
<path d="M98 216C106.926 218.769 114.962 223.816 119.562 232.125C121.017 235.39 121.293 237.553 120 241C119.309 240.678 118.618 240.356 117.906 240.023C114.635 238.872 111.961 238.728 108.5 238.625C100.081 238.112 91.1794 236.701 84.1875 231.625C82 229 82 229 81.4375 226C82.0605 222.677 82.977 220.697 85 218C89.3283 215.114 92.9202 215.325 98 216ZM90 226C96.6382 227.524 103.292 228.821 110 230C106.498 225.959 103.264 224.292 97.9062 223.813C93.4793 223.561 93.4793 223.561 90 226Z" fill="#E5C997"/>
<path d="M52.5625 207.312C56.893 207.383 58.7203 209.228 61.6875 212.25C62.8051 213.482 62.8051 213.482 63.9453 214.738C66.0402 217.166 66.0402 217.166 69.0625 219.438C69.7019 219.953 70.3413 220.469 71 221C71 221.66 71 222.32 71 223C69.68 223.33 68.36 223.66 67 224C69.2241 224.577 71.4272 225.079 73.6875 225.5C76 226 76 226 77 227C77.125 230 77.125 230 77 233C76 234 76 234 72.8125 234.312C68.417 233.952 66.3546 232.584 63 230C61.3138 228.852 59.6262 227.707 57.9375 226.562C48.5491 219.889 48.5491 219.889 47.4141 215.984C47.0625 213.812 47.0625 213.812 47 210C49 208 49 208 52.5625 207.312Z" fill="#E5C997"/>
<path d="M134.176 6.98044C136.864 9.14799 138.907 11.7223 140 15C140 15.99 140 16.98 140 18C135.408 17.2347 135.408 17.2347 133.227 15.9804C127.643 13.5218 120.142 14.2733 114.5 16.1875C111.693 18.2228 109.344 20.4487 107 23C106 22 106 22 105.91 20.1093C106.31 13.9179 106.31 13.9179 108.23 11.3632C115.004 5.56491 125.83 3.21972 134.176 6.98044Z" fill="#E5C997"/>
<path d="M164 239C163.67 239.99 163.34 240.98 163 242C161.113 242.124 161.113 242.124 159.188 242.25C155.306 242.652 152.163 243.638 148.562 245.125C143.21 247.192 138.55 247.652 133 246C130.715 244.441 130.715 244.441 129 243C129.633 241.113 129.633 241.113 131 239C141.814 234.529 153.063 235.845 164 239Z" fill="#E5C997"/>
<path d="M121.125 162.875C123 164 123 164 124.125 167.312C125.133 170.112 125.76 170.866 128.41 172.352C130.919 173.333 133.421 174.221 136 175C135.67 176.32 135.34 177.64 135 179C120.95 179.57 120.95 179.57 115 176C113 173 113 173 113.062 169.5C114 166 114 166 116.312 164C119 163 119 163 121.125 162.875Z" fill="#E5C997"/>
<path d="M152 176C157.475 176.223 160.582 177.481 164.609 181.246C166.86 184.085 167.134 186.45 167 190C165.546 192.295 164.468 192.83 161.938 193.75C160 194 160 194 158 193C157.621 190.82 157.621 190.82 157.438 188.125C157.224 185.132 156.956 182.867 156 180C155.01 179.67 154.02 179.34 153 179C152.67 178.01 152.34 177.02 152 176Z" fill="#E5C997"/>
<path d="M94.0009 180C94.6609 180 95.3209 180 96.0009 180C96.2432 180.99 96.4856 181.98 96.7353 183C98.5354 190.153 100.486 196.472 104.001 203C104.001 203.99 104.001 204.98 104.001 206C100.606 205.717 99.2596 205.259 96.8134 202.812C93.5321 197.721 92.7379 193.193 92.8134 187.188C92.8198 186.047 92.8263 184.906 92.8329 183.73C93.0009 181 93.0009 181 94.0009 180Z" fill="#E5C997"/>
<path d="M46 222C51.1911 222.421 54.7775 225.185 59 228C58.67 229.32 58.34 230.64 58 232C56.4175 232.082 54.8338 232.139 53.25 232.188C52.3683 232.222 51.4866 232.257 50.5781 232.293C47.5096 231.944 46.1979 231.137 44 229C43.625 226.438 43.625 226.438 44 224C44.66 223.34 45.32 222.68 46 222Z" fill="#E5C997"/>
<path d="M206 162C208.312 161.688 208.312 161.688 211 162C213.693 164.972 214.173 167.431 214.187 171.312C214.125 172.529 214.063 173.746 214 175C212.68 175 211.36 175 210 175C209.13 173.592 208.28 172.174 207.437 170.75C206.724 169.567 206.724 169.567 205.996 168.359C204.869 165.692 204.983 164.655 206 162Z" fill="#E5C997"/>
<path d="M228 168C227.75 171.374 226.767 172.222 224.25 174.625C221.66 176.659 219.154 177.98 216 179C215.332 177.23 215.332 177.23 215 175C216.074 173.113 216.074 173.113 217.688 171.312C218.207 170.71 218.726 170.108 219.262 169.488C222.329 166.862 224.208 166.736 228 168Z" fill="#E5C997"/>
</svg>
