<svg width="381" height="317" viewBox="0 0 381 317" fill="none" xmlns="http://www.w3.org/2000/svg">
<path d="M173.007 2.77955C179.934 5.48999 185.401 5.6184 192.69 5.16237C197.648 5.31976 201.443 6.661 205.272 9.85768C207.732 12.8833 209.318 15.0994 210.632 18.8421C212.913 23.323 215.681 24.5117 219.999 26.8655C223.562 28.9799 225.556 31.6285 227.382 35.2796C227.422 37.6125 227.425 39.9466 227.382 42.2796C228.372 42.2796 229.362 42.2796 230.382 42.2796C230.456 41.6389 230.531 40.9982 230.608 40.3382C231.595 33.8449 233.176 29.4601 238.382 25.2796C243.597 22.0986 248.947 20.8582 254.909 19.8538C257.513 19.249 259.568 18.3031 261.944 17.0921C266.652 14.8505 270.381 15.0295 275.382 16.2796C276.289 16.6508 277.197 17.0221 278.132 17.4046C282.192 18.9837 285.452 17.2719 289.319 15.7796C295.643 13.3964 299.858 12.8913 306.264 15.2639C310.152 17.1288 312.568 19.6661 314.495 23.4866C315.59 26.9361 315.587 29.9773 315.632 33.5921C315.88 40.4905 317.607 44.366 322.382 49.2796C324.733 52.8059 324.495 53.9707 324.257 58.0921C324.146 63.4725 324.948 66.0131 328.382 70.2796C329.132 73.1546 329.132 73.1546 329.382 75.2796C330.243 74.9586 331.104 74.6376 331.991 74.3069C335.348 73.2897 338.14 72.984 341.632 72.8421C345.918 72.5839 349.575 72.0555 353.632 70.6546C359.96 68.5621 364.882 69.4879 371.132 71.4671C375.556 73.9347 378.524 76.4819 380.05 81.4592C380.747 85.5598 380.781 88.3123 378.444 91.8421C377.764 92.6464 377.083 93.4508 376.382 94.2796C376.897 95.1252 377.413 95.9708 377.944 96.8421C379.676 100.984 379.555 102.978 378.382 107.28C376.283 110.699 375.032 112.032 371.257 113.467C367.868 115.604 367.748 116.324 366.882 120.092C366.239 124.446 366.771 127.163 368.382 131.28C369.171 139.307 366.755 145.538 361.757 151.842C360.581 153.049 360.581 153.049 359.382 154.28C358.722 154.28 358.062 154.28 357.382 154.28C357.382 154.94 357.382 155.6 357.382 156.28C311.413 190.878 237.059 193.962 181.382 192.28C180.113 192.244 178.845 192.208 177.538 192.171C127.624 190.636 57.1831 186.556 20.3817 148.28C18.7546 145.989 17.6047 143.828 16.3817 141.28C16.0517 140.62 15.7217 139.96 15.3817 139.28C15.0128 134.99 15.0417 131.224 16.5067 127.155C17.7231 123.158 17.0637 121.064 15.3817 117.28C12.6 115.202 12.6 115.202 9.38167 113.28C4.68837 109.172 2.72414 105.609 2.19417 99.3928C2.4103 96.9569 3.25074 95.4252 4.38167 93.2796C4.12318 90.0915 3.21317 87.9291 1.81917 85.0296C-0.341807 80.0978 -0.560851 75.2456 1.07308 70.1038C3.27185 65.2186 6.01846 62.3431 10.3817 59.2796C14.914 57.7688 19.3913 58.3695 24.1317 58.5374C27.3398 58.5957 27.3398 58.5957 29.1317 56.8342C29.5442 56.3212 29.9567 55.8082 30.3817 55.2796C31.8667 54.7846 31.8667 54.7846 33.3817 54.2796C34.2199 52.5404 34.2199 52.5404 34.7567 50.4671C36.0972 46.4741 37.7899 44.6093 41.3817 42.2796C41.1342 41.073 41.1342 41.073 40.8817 39.8421C39.7451 31.7442 39.9081 25.3903 44.3817 18.2796C47.6602 14.4946 51.467 12.2432 56.3817 11.2796C62.048 11.2898 66.4491 12.3706 71.3817 15.2796C71.3817 15.9396 71.3817 16.5996 71.3817 17.2796C72.0417 17.2796 72.7017 17.2796 73.3817 17.2796C75.1463 20.3677 75.3817 21.5127 75.3817 25.2796C72.4963 24.7549 69.8546 24.1006 67.0692 23.1546C62.5291 22.0773 59.9206 22.2205 55.3817 23.2796C52.9906 25.0729 52.5263 26.3494 52.0731 29.2639C51.7759 34.487 52.8709 37.9708 55.4246 42.4827C56.6011 44.6916 57.0724 46.8057 57.3817 49.2796C56.4768 49.3356 56.4768 49.3356 55.5535 49.3928C49.3152 49.7699 49.3152 49.7699 44.3817 53.2796C43.5854 55.3737 43.5854 55.3737 43.3817 57.2796C44.0417 57.3208 44.7017 57.3621 45.3817 57.4046C50.7972 58.9841 55.6661 63.0563 59.3817 67.2796C59.3817 67.9396 59.3817 68.5996 59.3817 69.2796C60.0107 69.2332 60.6398 69.1867 61.2879 69.1389C66.8924 68.9026 70.5395 69.4156 75.3934 72.2171C77.4919 73.3385 79.4693 73.9511 81.7567 74.5921C91.9107 77.8664 99.2262 85.713 106.382 93.2796C106.382 92.2896 106.382 91.2996 106.382 90.2796C106.835 89.4546 107.289 88.6296 107.757 87.7796C112.749 77.0266 111.586 64.855 111.382 53.2796C115.228 54.9763 115.228 54.9763 116.612 57.7053C116.928 58.658 117.244 59.6106 117.569 60.5921C117.893 61.5369 118.216 62.4818 118.55 63.4553C121.383 73.0719 120.936 83.1705 116.382 92.2796C117.372 92.1146 118.362 91.9496 119.382 91.7796C128.27 90.5603 136.572 91.8938 145.382 93.2796C145.66 92.3798 145.939 91.48 146.225 90.553C147.229 87.7126 148.289 85.4396 149.882 82.9046C150.304 82.2162 150.727 81.5278 151.163 80.8186C151.565 80.3107 151.967 79.8028 152.382 79.2796C153.042 79.2796 153.702 79.2796 154.382 79.2796C154.619 78.7059 154.856 78.1323 155.1 77.5413C156.656 74.7956 158.499 73.1535 160.882 71.0921C161.676 70.3973 162.47 69.7024 163.288 68.9866C165.382 67.2796 165.382 67.2796 167.382 66.2796C166.895 64.2155 166.895 64.2155 165.382 62.2796C160.444 61.0211 156.356 61.4991 151.382 62.2796C151.428 61.2548 151.474 60.2299 151.522 59.1741C151.56 57.8134 151.596 56.4528 151.632 55.0921C151.665 54.4185 151.699 53.745 151.733 53.051C151.804 49.4046 151.504 47.469 149.503 44.3811C147.043 41.9437 145.791 40.9614 142.382 40.2796C136.583 40.7971 132.733 42.3242 128.382 46.2796C127.722 46.2796 127.062 46.2796 126.382 46.2796C126.56 44.4175 126.56 44.4175 126.741 42.5178C126.872 40.876 127.003 39.2341 127.132 37.5921C127.253 36.3671 127.253 36.3671 127.378 35.1174C127.675 31.036 127.736 28.9034 125.671 25.2678C122.593 22.5944 120.605 22.2546 116.636 22.0061C112.679 22.4861 111.062 24.4034 108.382 27.2796C107.392 28.7646 107.392 28.7646 106.382 30.2796C104.897 29.7846 104.897 29.7846 103.382 29.2796C103.356 28.6041 103.33 27.9286 103.304 27.2327C102.98 21.666 102.98 21.666 100.757 16.6546C97.3552 14.6853 95.2838 14.8318 91.3817 15.2796C89.8509 15.7703 88.3299 16.2927 86.8192 16.8421C82.9282 18.2359 80.4255 18.5662 76.3817 17.2796C73.5067 15.7171 73.5067 15.7171 71.3817 14.2796C71.7117 13.2896 72.0417 12.2996 72.3817 11.2796C74.2466 10.7709 76.1183 10.2797 78.0106 9.88502C80.5874 9.22703 82.8335 8.24556 85.2567 7.15455C91.6303 4.53648 97.3453 4.12021 103.819 6.59205C106.003 8.03005 107.774 9.22521 109.382 11.2796C109.382 11.9396 109.382 12.5996 109.382 13.2796C110.36 13.2099 111.338 13.1403 112.347 13.0686C120.087 12.749 125.55 12.8997 131.94 17.7717C133.382 19.2796 133.382 19.2796 133.382 21.2796C135.692 20.9496 138.002 20.6196 140.382 20.2796C140.423 19.1246 140.464 17.9696 140.507 16.7796C141.162 11.5051 143.775 8.06035 147.382 4.27955C155.318 -1.57843 164.243 -0.762108 173.007 2.77955ZM147.382 18.2796C147.134 19.4964 146.887 20.7133 146.632 21.9671C145.382 25.2796 145.382 25.2796 143.264 26.3889C140.982 27.1426 138.73 27.7722 136.382 28.2796C136.382 29.2696 136.382 30.2596 136.382 31.2796C137.468 31.4439 137.468 31.4439 138.577 31.6116C146.19 32.8601 152.306 34.0871 157.386 40.4007C158.63 42.7487 158.786 44.7707 159.069 47.4046C159.363 50.0141 159.363 50.0141 160.382 52.2796C162.846 53.7831 165.181 54.5258 167.948 55.3342C170.709 56.4068 171.227 57.1377 172.632 59.6546C175.134 62.6531 175.134 62.6531 178.581 62.2522C182.223 61.7308 185.785 61.0524 189.382 60.2796C190.45 60.188 191.519 60.0965 192.62 60.0022C195.549 59.5265 195.549 59.5265 197.21 57.0296C197.679 56.1221 198.148 55.2146 198.632 54.2796C201.235 49.3529 201.235 49.3529 203.382 48.2796C203.165 48.8944 202.949 49.5093 202.725 50.1428C202.447 50.9511 202.169 51.7593 201.882 52.5921C201.603 53.3926 201.325 54.1931 201.038 55.0178C200.242 57.3673 200.242 57.3673 200.382 60.2796C201.963 60.7865 203.547 61.2848 205.132 61.7796C206.013 62.058 206.895 62.3364 207.804 62.6233C210.584 63.444 210.584 63.444 214.382 63.2796C214.552 62.4713 214.722 61.6631 214.897 60.8303C217.302 50.2279 217.302 50.2279 221.382 46.2796C222.372 45.2896 222.372 45.2896 223.382 44.2796C219.348 37.5847 215.864 33.5208 208.757 29.9671C205.548 27.6872 204.11 24.7143 202.382 21.2796C200.519 17.531 200.519 17.531 197.257 15.1311C193.695 14.0762 190.475 14.2713 186.819 14.4671C179.993 14.6794 175.286 13.3779 169.069 10.4046C159.617 6.44783 153.008 10.3727 147.382 18.2796ZM292.257 24.2796C286.24 27.1365 279.697 27.3848 273.382 25.2796C267.338 24.7494 263.485 25.842 257.972 28.2717C255.321 29.3032 252.871 29.8216 250.069 30.2796C245.879 31.0295 243.375 32.0996 240.382 35.2796C238.475 38.3572 238.193 40.2766 238.694 43.8421C238.793 44.6065 238.893 45.3709 238.995 46.1585C239.363 48.4572 239.363 48.4572 240.382 51.2796C239.802 51.1726 239.222 51.0656 238.624 50.9553C233.278 50.1349 230.023 50.0752 225.382 53.2796C221.893 57.1296 220.927 60.9361 220.956 66.1389C221.73 70.0304 224.385 72.7949 227.382 75.2796C228.042 75.2796 228.702 75.2796 229.382 75.2796C229.629 75.9189 229.877 76.5583 230.132 77.2171C231.483 80.5268 232.968 83.7591 234.479 86.9983C238.982 98.3823 236.524 111.199 232.382 122.28C231.722 123.27 231.062 124.26 230.382 125.28C228.218 125.573 228.218 125.573 225.757 125.467C224.939 125.44 224.122 125.413 223.28 125.385C222.34 125.333 222.34 125.333 221.382 125.28C222.04 120.932 223.656 117.305 225.382 113.28C227.865 103.262 227.334 92.0821 222.093 83.0608C216.897 75.6147 211.082 71.8916 202.276 69.7835C190.12 67.6672 179.604 70.5794 169.382 77.2796C163.274 81.6202 155.942 88.3298 153.655 95.5842C153.565 96.1437 153.475 96.7032 153.382 97.2796C154.253 97.6573 155.124 98.0349 156.022 98.4241C167.686 103.814 178.779 111.243 184.382 123.28C184.382 127.135 182.982 129.472 180.382 132.28C179.722 132.28 179.062 132.28 178.382 132.28C177.19 130.408 177.19 130.408 175.819 127.842C168.208 114.827 155.805 106.302 141.382 102.28C128.712 99.7285 114.903 100.667 103.393 106.916C96.9218 111.302 90.2871 116.652 87.7098 124.264C86.3467 132.637 86.9603 140.271 91.7879 147.338C99.5327 157.001 110.378 161.395 122.382 163.28C129.596 163.897 136.838 163.705 144.069 163.592C145.99 163.581 147.912 163.571 149.833 163.563C151.666 163.549 153.498 163.534 155.331 163.518C156.182 163.51 157.033 163.503 157.91 163.495C159.098 163.476 159.098 163.476 160.31 163.457C161.002 163.447 161.694 163.437 162.407 163.427C164.494 163.271 166.36 162.808 168.382 162.28C169.964 162.214 171.548 162.194 173.132 162.217C173.931 162.226 174.73 162.235 175.554 162.244C176.458 162.262 176.458 162.262 177.382 162.28C178.042 164.26 178.702 166.24 179.382 168.28C154.873 177.019 124.088 176.278 99.9832 166.561C97.5208 165.348 95.5596 163.93 93.3817 162.28C92.7217 162.28 92.0617 162.28 91.3817 162.28C91.3817 161.62 91.3817 160.96 91.3817 160.28C90.6598 159.723 89.9379 159.166 89.1942 158.592C81.5764 152.329 78.9327 144.24 77.6942 134.655C77.5911 133.541 77.4879 132.427 77.3817 131.28C76.2267 130.888 75.0717 130.496 73.8817 130.092C67.1356 127.497 62.3195 124.377 57.3546 119.046C51.1161 112.357 44.893 108.516 36.5575 104.803C33.3817 103.28 33.3817 103.28 32.3817 101.28C33.2892 101.63 34.1967 101.981 35.1317 102.342C38.3876 103.281 39.3092 103.235 42.3817 102.28C41.8158 101.304 41.2499 100.328 40.6668 99.3225C39.9258 98.0375 39.1849 96.7523 38.4442 95.4671C38.071 94.8245 37.6978 94.1819 37.3133 93.5198C35.747 90.7964 34.378 88.2685 33.3817 85.2796C35.9611 87.7873 38.3581 90.2492 40.5692 93.0921C41.1673 93.8139 41.7654 94.5358 42.3817 95.2796C43.0417 95.2796 43.7017 95.2796 44.3817 95.2796C44.6498 95.8571 44.9179 96.4346 45.1942 97.0296C46.411 99.3351 47.685 101.3 49.3817 103.28C50.0417 103.28 50.7017 103.28 51.3817 103.28C51.7117 101.3 52.0417 99.3196 52.3817 97.2796C53.0417 97.2796 53.7017 97.2796 54.3817 97.2796C54.5028 98.1226 54.624 98.9657 54.7489 99.8342C55.0002 101.478 55.0002 101.478 55.2567 103.155C55.5003 104.79 55.5003 104.79 55.7489 106.459C56.1442 109.399 56.1442 109.399 58.3817 111.28C58.8767 109.3 58.8767 109.3 59.3817 107.28C59.4706 107.825 59.5596 108.37 59.6512 108.932C61.57 117.008 66.8854 120.584 73.3817 125.28C74.7158 126.278 76.0495 127.278 77.3817 128.28C77.673 127.362 77.9643 126.444 78.2645 125.498C81.7101 115.183 85.6445 107.936 94.3817 101.28C92.8967 100.785 92.8967 100.785 91.3817 100.28C90.9795 99.0111 90.9795 99.0111 90.5692 97.7171C87.9828 90.2301 83.5783 85.8075 76.5614 82.3108C75.8421 81.9705 75.1228 81.6302 74.3817 81.2796C73.2679 80.6814 72.1542 80.0833 71.0067 79.4671C68.4063 78.0735 68.4063 78.0735 65.3817 78.2796C65.0517 80.5896 64.7217 82.8996 64.3817 85.2796C63.7217 85.2796 63.0617 85.2796 62.3817 85.2796C61.12 83.7757 61.12 83.7757 59.6942 81.7171C54.7458 74.9356 49.1136 68.8705 41.3817 65.2796C38.5428 64.8545 38.5428 64.8545 36.3817 65.2796C36.7117 68.2496 37.0417 71.2196 37.3817 74.2796C36.4755 73.7626 35.5693 73.2457 34.6356 72.7132C25.92 67.6833 25.92 67.6833 16.1629 67.5139C12.9607 68.8903 11.8341 70.1106 10.3817 73.2796C9.82665 78.4829 11.0711 82.3352 14.1317 86.5296C16.0546 88.8602 18.0521 90.95 20.1942 93.0921C22.3817 95.2796 22.3817 95.2796 23.3817 98.2796C21.3634 98.247 19.3452 98.2145 17.327 98.1819C15.2998 98.1531 15.2998 98.1531 13.3817 99.2796C13.7331 103.73 13.7331 103.73 16.3153 107.221C17.5547 108.023 17.5547 108.023 18.8192 108.842C19.7138 109.426 20.6084 110.01 21.5301 110.612C25.0733 112.684 28.6963 114.477 32.4481 116.139C34.3817 117.28 34.3817 117.28 35.3817 120.28C33.0717 120.28 30.7617 120.28 28.3817 120.28C27.9908 124.077 27.9908 124.077 29.5692 125.92C35.8298 131.479 46.7464 139.28 55.3817 139.28C55.3817 140.27 55.3817 141.26 55.3817 142.28C44.6095 141.098 35.0171 138.271 25.3817 133.28C25.7423 140.493 30.2608 145.441 35.2567 150.28C82.2141 187.805 170.789 185.628 227.397 179.549C229.878 179.267 232.358 178.979 234.837 178.685C238.271 178.292 241.704 177.964 245.147 177.658C257.972 176.473 270.521 174.469 283.132 171.905C283.836 171.764 284.54 171.622 285.266 171.477C298.278 168.845 311.101 165.433 322.944 159.28C323.589 158.962 324.235 158.645 324.899 158.319C329.241 156.115 332.781 153.564 336.382 150.28C336.382 149.95 336.382 149.62 336.382 149.28C333.082 149.28 329.782 149.28 326.382 149.28C326.382 148.62 326.382 147.96 326.382 147.28C327.444 146.772 328.506 146.264 329.6 145.74C340.847 140.762 340.847 140.762 350.382 133.28C350.382 132.29 350.382 131.3 350.382 130.28C348.402 130.28 346.422 130.28 344.382 130.28C346.75 127.835 349.095 125.517 351.718 123.342C352.535 122.661 353.352 121.981 354.194 121.28C354.984 120.64 355.775 120.001 356.589 119.342C358.641 117.386 358.641 117.386 358.643 114.53C358.514 113.416 358.514 113.416 358.382 112.28C356.072 111.62 353.762 110.96 351.382 110.28C354.5 106.617 356.966 105.544 361.632 104.53C363.248 104.166 363.248 104.166 364.897 103.795C365.717 103.625 366.537 103.455 367.382 103.28C368.073 101.432 368.073 101.432 368.382 99.2796C366.777 96.1535 366.777 96.1535 364.436 95.7678C363.717 95.7098 362.998 95.6518 362.257 95.5921C360.978 95.4889 359.699 95.3858 358.382 95.2796C359.84 91.5931 361.684 90.1181 365.007 88.0296C366.233 87.2484 366.233 87.2484 367.483 86.4514C368.11 86.0647 368.736 85.678 369.382 85.2796C369.052 83.6296 368.722 81.9796 368.382 80.2796C360.171 77.5428 352.957 79.8665 345.382 83.2796C343.233 84.5004 341.357 85.7848 339.382 87.2796C339.382 85.6296 339.382 83.9796 339.382 82.2796C332.796 82.5598 328.379 85.027 323.382 89.2796C321.625 91.328 320.072 93.4006 318.573 95.6428C317.382 97.2796 317.382 97.2796 315.382 98.2796C315.052 96.6296 314.722 94.9796 314.382 93.2796C308.523 96.0364 304.783 100.901 302.335 106.803C301.617 108.95 300.959 111.091 300.382 113.28C297.715 112.613 295.048 111.946 292.382 111.28C295.256 103.049 298.976 92.471 306.819 87.7796C309.434 86.6787 312.038 85.6424 314.694 84.6546C318.36 83.5787 318.36 83.5787 320.382 81.2796C321.093 76.1524 321.093 76.1524 319.225 71.5608C318.529 70.8028 318.529 70.8028 317.819 70.0296C316.613 68.6683 316.613 68.6683 315.382 67.2796C315.569 65.4046 315.569 65.4046 316.382 63.2796C316.921 57.6036 316.921 57.6036 314.694 52.5921C312.42 50.2245 312.42 50.2245 309.768 48.2327C306.434 44.1068 306.78 40.8639 306.882 35.7171C307.238 29.1173 307.238 29.1173 303.991 23.721C299.328 21.1449 296.817 22.0076 292.257 24.2796ZM95.3817 97.2796C95.0517 98.2696 94.7217 99.2596 94.3817 100.28C95.7017 99.9496 97.0217 99.6196 98.3817 99.2796C98.3817 98.6196 98.3817 97.9596 98.3817 97.2796C97.3917 97.2796 96.4017 97.2796 95.3817 97.2796ZM355.382 137.28C355.052 138.27 354.722 139.26 354.382 140.28C353.722 140.568 353.062 140.857 352.382 141.155C350.09 142.135 350.09 142.135 349.632 144.905C349.549 145.688 349.467 146.472 349.382 147.28C351.692 145.3 354.002 143.32 356.382 141.28C356.052 139.96 355.722 138.64 355.382 137.28Z" fill="#E5C997"/>
<path d="M363.381 154.28C364.041 154.61 364.701 154.94 365.381 155.28C363.239 184.812 347.267 213.853 327.752 235.584C325.402 238.024 325.402 238.024 324.381 240.28C323.721 240.28 323.061 240.28 322.381 240.28C322.381 240.94 322.381 241.6 322.381 242.28C321.721 242.28 321.061 242.28 320.381 242.28C320.381 242.94 320.381 243.6 320.381 244.28C319.721 244.28 319.061 244.28 318.381 244.28C318.381 244.94 318.381 245.6 318.381 246.28C317.721 246.28 317.061 246.28 316.381 246.28C316.381 246.94 316.381 247.6 316.381 248.28C314.92 249.787 314.92 249.787 313.006 251.405C312.379 251.943 311.753 252.482 311.107 253.037C309.381 254.28 309.381 254.28 307.381 254.28C307.381 254.94 307.381 255.6 307.381 256.28C305.437 257.881 303.502 259.338 301.443 260.78C300.83 261.214 300.216 261.649 299.583 262.097C292.129 267.286 284.269 271.791 276.381 276.28C276.559 277.349 276.559 277.349 276.74 278.44C277.48 283.933 278.006 288.067 274.729 292.733C260.068 309.561 235.36 312.984 214.381 315.28C213.152 315.421 213.152 315.421 211.898 315.565C193.894 317.53 176.217 316.054 158.381 313.28C157.642 313.167 156.904 313.055 156.143 312.94C139.94 310.391 121.632 305.119 110.045 292.795C108.319 290.186 107.793 288.676 107.568 285.592C107.5 284.825 107.432 284.058 107.361 283.268C107.381 281.28 107.381 281.28 108.381 279.28C109.371 279.61 110.361 279.94 111.381 280.28C111.793 281.166 112.206 282.053 112.631 282.967C118.069 293.261 130.365 297.178 140.881 300.467C176.565 309.768 225.151 309.948 258.381 292.28C264.594 288.375 267.952 284.693 271.381 278.28C270.582 278.562 269.783 278.844 268.96 279.134C244.066 287.855 220.922 293.485 194.318 293.467C193.158 293.467 191.998 293.467 190.803 293.467C166.466 293.308 166.466 293.308 157.381 290.28C157.711 289.29 158.041 288.3 158.381 287.28C159.164 287.235 159.947 287.19 160.754 287.144C192.307 285.295 224.01 282.982 253.381 270.28C254.06 269.994 254.74 269.708 255.439 269.414C275.583 260.862 297.622 246.537 310.256 228.28C310.957 227.29 311.658 226.3 312.381 225.28C313.041 225.28 313.701 225.28 314.381 225.28C314.615 224.596 314.85 223.913 315.092 223.209C316.662 219.64 318.786 216.588 321.006 213.405C324.644 208.074 327.974 202.666 331.006 196.967C331.348 196.327 331.691 195.687 332.043 195.028C333.815 191.824 333.815 191.824 334.381 188.28C333.23 188.825 333.23 188.825 332.057 189.381C318.342 195.593 303.364 200.425 288.381 202.28C287.517 202.389 286.654 202.499 285.764 202.612C271.408 204.103 256.729 203.61 242.381 202.28C242.381 201.29 242.381 200.3 242.381 199.28C243.043 199.215 243.705 199.15 244.387 199.083C286.498 194.863 332.262 185.398 363.381 154.28Z" fill="#E5C997"/>
<path d="M210.382 127.28C213.319 129.967 213.319 129.967 215.382 132.28C216.145 131.929 216.908 131.578 217.694 131.217C222.795 129.92 227.257 130.117 232.382 131.28C236.487 133.788 238.486 136.359 240.757 140.467C242.432 143.369 242.432 143.369 245.19 145.096C246.537 145.387 247.892 145.642 249.253 145.862C252.909 146.579 256.279 148.233 259.382 150.28C261.518 153.483 261.613 154.299 261.507 157.967C261.489 158.775 261.471 159.583 261.452 160.416C261.429 161.031 261.406 161.646 261.382 162.28C260.722 162.28 260.062 162.28 259.382 162.28C259.382 162.94 259.382 163.6 259.382 164.28C256.569 165.405 256.569 165.405 253.382 166.28C251.897 165.29 251.897 165.29 250.382 164.28C247.54 164.635 245.101 165.373 242.382 166.28C242.382 166.94 242.382 167.6 242.382 168.28C239.463 169.946 237.406 170.523 234.054 170.475C233.254 170.468 232.455 170.462 231.632 170.455C230.807 170.439 229.982 170.422 229.132 170.405C228.291 170.395 227.451 170.386 226.585 170.377C224.517 170.354 222.449 170.318 220.382 170.28C222.048 166.946 223.715 163.613 225.382 160.28C224.946 160.75 224.51 161.221 224.061 161.705C219.507 166.466 216.023 170.088 209.116 170.451C205.865 170.465 202.63 170.41 199.382 170.28C200.039 166.497 201.102 163.061 202.444 159.467C202.806 158.491 203.169 157.515 203.542 156.51C203.819 155.774 204.096 155.038 204.382 154.28C203.234 156.001 202.095 157.728 200.979 159.471C200.219 160.645 200.219 160.645 199.444 161.842C198.94 162.627 198.436 163.412 197.917 164.221C195.769 167.101 194.058 168.177 190.507 168.717C186.235 168.119 184.979 166.671 182.382 163.28C178.844 155.194 179.074 144.528 182.272 136.35C184.948 131.356 188.287 127.327 193.382 124.78C199.938 123.687 204.462 124.1 210.382 127.28Z" fill="#E5C997"/>
<path d="M19.3817 165.28C22.9722 166.098 26.4116 167.237 29.8817 168.467C31.0057 168.852 32.1298 169.238 33.2879 169.635C39.2909 172.826 41.0404 178.522 43.1317 184.655C49.5467 202.488 58.915 219.95 71.3817 234.28C72.1371 235.156 72.8925 236.033 73.6707 236.936C76.9182 240.629 80.1021 244.197 83.9442 247.28C84.7486 247.94 85.5529 248.6 86.3817 249.28C86.3817 249.94 86.3817 250.6 86.3817 251.28C87.0417 251.28 87.7017 251.28 88.3817 251.28C88.3817 251.94 88.3817 252.6 88.3817 253.28C88.9714 253.559 89.5612 253.839 90.1688 254.127C92.2131 255.192 93.9469 256.335 95.7879 257.713C108.289 266.899 121.476 274.428 135.382 281.28C135.382 282.27 135.382 283.26 135.382 284.28C106.815 280.822 79.8017 261.551 60.3817 241.28C58.9895 239.949 58.9895 239.949 57.5692 238.592C55.6102 236.521 54.4476 234.896 53.3817 232.28C52.7217 232.28 52.0617 232.28 51.3817 232.28C49.4281 229.988 47.6111 227.694 45.8192 225.28C45.2827 224.558 44.7462 223.837 44.1934 223.094C33.1556 207.961 17.8988 184.557 19.3817 165.28Z" fill="#E5C997"/>
<path d="M141.381 114.28C142.943 116.967 142.943 116.967 143.381 119.28C142.886 119.733 142.391 120.187 141.881 120.655C140.155 122.156 140.155 122.156 140.381 124.28C142.117 124.336 142.117 124.336 143.889 124.393C145.428 124.458 146.967 124.525 148.506 124.592C149.266 124.615 150.027 124.637 150.811 124.66C156.631 124.936 161.112 126.011 165.381 130.28C165.193 132.28 165.193 132.28 164.381 134.28C161.48 136.213 160.484 136.581 157.193 136.905C155.935 137.028 154.677 137.152 153.381 137.28C154.152 137.738 154.923 138.197 155.717 138.67C156.72 139.284 157.723 139.897 158.756 140.53C159.754 141.133 160.751 141.736 161.779 142.358C164.332 144.243 165.306 145.352 166.381 148.28C163.895 150.765 162.956 150.66 159.506 150.78C151.383 150.662 144.045 147.011 138.381 141.28C135.028 140.561 133.068 140.885 130.096 142.592C128.522 143.657 126.966 144.748 125.432 145.869C121.074 148.866 116.478 148.785 111.381 148.28C108.86 147.49 106.747 146.488 104.381 145.28C104.381 141.28 104.381 141.28 106.381 139.28C108.398 138.477 110.44 137.823 112.506 137.158C114.734 136.312 114.734 136.312 116.381 133.28C115.622 133.231 114.862 133.182 114.08 133.131C112.589 133.019 112.589 133.019 111.068 132.905C110.082 132.835 109.096 132.765 108.08 132.694C105.381 132.28 105.381 132.28 102.381 130.28C102.693 127.905 102.693 127.905 103.381 125.28C106.344 123.304 107.061 123.016 110.393 122.865C111.15 122.827 111.907 122.788 112.688 122.748C113.473 122.717 114.259 122.686 115.068 122.655C115.866 122.616 116.663 122.577 117.484 122.537C119.449 122.443 121.415 122.36 123.381 122.28C122.56 121.5 121.739 120.72 120.893 119.916C118.381 117.28 118.381 117.28 118.193 115.092C122.776 108.098 135.17 110.994 141.381 114.28Z" fill="#E5C997"/>
<path d="M280.381 94.2795C281.106 99.9608 279.891 103.337 276.572 107.99C272.295 112.459 266.866 115.499 261.381 118.28C260.721 118.28 260.061 118.28 259.381 118.28C259.381 118.94 259.381 119.6 259.381 120.28C258.721 120.28 258.061 120.28 257.381 120.28C255.634 124.484 254.179 128.77 252.756 133.092C252.526 133.785 252.297 134.478 252.061 135.192C251.499 136.887 250.94 138.583 250.381 140.28C249.061 140.28 247.741 140.28 246.381 140.28C244.783 138.162 244.783 138.162 243.318 135.405C241.078 131.227 241.078 131.227 237.381 128.28C242.101 103.775 242.101 103.775 250.58 97.7053C259.911 91.8036 270.207 88.1755 280.381 94.2795Z" fill="#E5C997"/>
<path d="M297.943 117.967C298.418 118.4 298.892 118.833 299.381 119.28C299.225 121.162 299.225 121.162 298.381 123.28C295.975 124.334 295.975 124.334 292.881 125.155C287.612 126.731 283.636 128.763 279.221 132.01C277.381 133.28 277.381 133.28 274.381 134.28C273.33 136.001 273.33 136.001 272.381 138.28C271.178 140.533 269.969 142.782 268.756 145.03C268.431 145.632 268.106 146.234 267.771 146.854C266.975 148.329 266.178 149.804 265.381 151.28C262.381 150.28 262.381 150.28 261.131 147.967C258.754 144.316 256.236 143.244 252.381 141.28C253.252 133 256.33 125.055 262.381 119.28C273.243 112.225 286.828 110.647 297.943 117.967Z" fill="#E5C997"/>
<path d="M348.381 93.2795C346.993 97.8206 345.071 99.4095 341.381 102.28C335.217 108.597 328.343 116.355 324.381 124.28C329.799 123.588 335.063 122.522 340.381 121.28C340.381 122.27 340.381 123.26 340.381 124.28C335.173 129.475 329.37 132.353 322.006 132.405C320.81 132.363 319.613 132.322 318.381 132.28C318.129 132.842 317.878 133.404 317.619 133.983C312.551 143.384 303.746 149.636 294.381 154.28C293.391 154.28 292.401 154.28 291.381 154.28C291.381 153.29 291.381 152.3 291.381 151.28C292.814 150.061 292.814 150.061 294.818 148.78C303.832 142.33 309.736 132.634 315.381 123.28C316.464 121.64 316.464 121.64 317.568 119.967C320.091 115.536 321.103 110.488 322.354 105.584C323.343 102.401 324.425 99.9722 326.381 97.2795C327.041 97.2795 327.701 97.2795 328.381 97.2795C328.876 101.24 328.876 101.24 329.381 105.28C329.961 104.748 330.541 104.217 331.139 103.67C342.629 93.2795 342.629 93.2795 348.381 93.2795Z" fill="#E5C997"/>
<path d="M290.382 36.2795C291.042 36.2795 291.702 36.2795 292.382 36.2795C297.436 46.3876 291.594 62.6264 288.507 72.467C286.607 77.9961 284.156 83.1403 281.382 88.2795C278.816 88.2464 276.258 88.1791 273.694 88.092C272.973 88.0862 272.252 88.0804 271.509 88.0745C267.483 87.909 265.783 87.5927 262.507 85.0374C256.217 76.8745 255.316 67.3174 256.382 57.2795C257.405 54.3655 257.405 54.3655 258.382 52.2795C259.042 52.6095 259.702 52.9395 260.382 53.2795C261.04 55.7382 261.605 58.1679 262.132 60.6545C263.766 67.756 265.928 74.3766 270.382 80.2795C271.372 80.6095 272.362 80.9395 273.382 81.2795C279.98 67.7002 285.873 54.967 288.768 40.053C289.382 37.2795 289.382 37.2795 290.382 36.2795Z" fill="#E5C997"/>
<path d="M78.3815 32.2795C81.7651 33.9713 82.2716 37.941 83.5065 41.342C87.3081 51.4866 92.0389 60.9858 97.1159 70.5452C98.3815 73.2795 98.3815 73.2795 98.3815 76.2795C92.4445 75.4255 89.2913 72.703 85.3815 68.2795C80.9621 61.8486 78.8163 55.0476 77.3815 47.467C77.2444 46.7621 77.1074 46.0571 76.9662 45.3308C76.1549 40.3116 76.7177 36.9588 78.3815 32.2795Z" fill="#E5C997"/>
<path d="M174.38 27.2795C175.37 27.2795 176.36 27.2795 177.38 27.2795C177.372 28.1098 177.372 28.1098 177.364 28.9568C177.204 43.1499 177.204 43.1499 178.38 57.2795C177.72 57.6095 177.06 57.9395 176.38 58.2795C175.39 57.6195 174.4 56.9595 173.38 56.2795C173.38 55.6195 173.38 54.9595 173.38 54.2795C172.72 54.2795 172.06 54.2795 171.38 54.2795C168.392 49.0766 168.6 43.515 169.985 37.7678C171.178 34.1062 172.615 30.7022 174.38 27.2795Z" fill="#E5C997"/>
<path d="M298.38 85.2795C297.932 90.2094 295.56 93.6312 292.38 97.2795C291.39 97.9395 290.4 98.5995 289.38 99.2795C289.091 100.105 288.803 100.93 288.505 101.78C287.38 104.28 287.38 104.28 284.755 105.592C283.971 105.819 283.188 106.046 282.38 106.28C280.666 102.852 281.963 99.7535 282.958 96.1897C285.665 90.6501 292.039 85.2795 298.38 85.2795Z" fill="#E5C997"/>
<path d="M195.943 74.9045C198.381 75.2795 198.381 75.2795 200.381 77.2795C201.277 83.8906 201.277 83.8906 199.037 87.3616C197.549 89.0848 196.029 90.7098 194.381 92.2795C193.061 91.9495 191.741 91.6195 190.381 91.2795C190.3 89.3636 190.242 87.4466 190.193 85.5295C190.159 84.4622 190.124 83.3949 190.088 82.2952C190.495 78.1011 191.586 75.5422 195.943 74.9045Z" fill="#E5C997"/>
<path d="M215.381 90.2795C216.041 90.6095 216.701 90.9395 217.381 91.2795C217.86 96.6748 217.86 96.6748 215.943 99.092C212.251 100.803 208.453 101.437 204.381 101.28C203.391 100.62 202.401 99.9595 201.381 99.2795C202.559 95.9265 203.575 93.5243 206.381 91.2795C209.607 90.2042 212.003 90.1358 215.381 90.2795Z" fill="#E5C997"/>
<path d="M176.381 82.842C179.968 84.5607 180.912 85.6086 182.381 89.2795C182.568 93.092 182.568 93.092 182.381 96.2795C180.693 96.967 180.693 96.967 178.381 97.2795C174.784 95.6126 172.283 93.7843 170.381 90.2795C170.006 87.1545 170.006 87.1545 170.381 84.2795C173.381 82.2795 173.381 82.2795 176.381 82.842Z" fill="#E5C997"/>
<path d="M206.943 109.03C208.09 109.269 208.09 109.269 209.26 109.514C211.671 110.384 212.838 111.241 214.381 113.28C214.068 115.967 214.068 115.967 213.381 118.28C209.018 119.327 207.08 119.662 203.068 117.467C200.381 115.28 200.381 115.28 198.381 113.28C198.381 111.96 198.381 110.64 198.381 109.28C201.542 108.272 203.716 108.309 206.943 109.03Z" fill="#E5C997"/>
<path d="M186.381 99.2795C189.256 99.1545 189.256 99.1545 192.381 99.2795C193.041 99.9395 193.701 100.6 194.381 101.28C194.006 104.905 194.006 104.905 193.381 108.28C187.946 109.608 187.946 109.608 185.443 108.155C184.381 106.28 184.381 106.28 184.631 103.717C185.381 101.28 185.381 101.28 186.381 99.2795Z" fill="#E5C997"/>
<path d="M243.381 88.2795C245.72 90.4062 247.187 92.3418 248.381 95.2795C248.381 96.2695 248.381 97.2595 248.381 98.2795C247.391 98.6095 246.401 98.9395 245.381 99.2795C242.304 93.9872 242.304 93.9872 242.693 90.4045C242.92 89.7033 243.147 89.002 243.381 88.2795Z" fill="#E5C997"/>
</svg>
