<svg width="379" height="377" viewBox="0 0 379 377" fill="none" xmlns="http://www.w3.org/2000/svg">
<path d="M184.362 117C223.176 115.966 279.04 115.522 309.549 143.035C314.375 148.266 313.905 153.976 313.737 160.793C312.221 188.83 302.281 218.286 289.362 243C288.619 244.456 288.619 244.456 287.862 245.941C274.302 271.845 252.06 295.119 223.799 304.25C213.171 307.468 202.869 308.324 191.829 308.261C189.629 308.25 187.429 308.261 185.229 308.273C172.63 308.286 160.231 307.581 148.362 303C148.362 302.34 148.362 301.68 148.362 301C149.246 300.98 150.131 300.96 151.042 300.94C198.193 301.265 198.193 301.265 239.362 281C240.539 280.018 240.539 280.018 241.741 279.016C267.169 257.12 276.764 225.891 282.362 194C281.372 194.33 280.382 194.66 279.362 195C278.498 197.803 277.807 200.519 277.174 203.375C272.62 222.103 264.512 240.212 252.026 255.012C250.216 257.101 250.216 257.101 248.362 260C247.372 260 246.382 260 245.362 260C245.983 255.654 247.661 252.126 249.612 248.25C257.108 232.75 260.911 216.228 260.362 199C259.374 199.163 258.387 199.326 257.369 199.494C253.326 200.069 249.318 200.127 245.241 200.098C244.496 200.096 243.751 200.095 242.984 200.093C240.63 200.088 238.277 200.075 235.924 200.063C234.318 200.058 232.712 200.053 231.106 200.049C227.191 200.038 223.276 200.021 219.362 200C219.032 199.01 218.702 198.02 218.362 197C219.171 196.87 219.98 196.739 220.814 196.605C260.084 191.528 260.084 191.528 295.362 175C294.399 175.364 293.436 175.727 292.444 176.102C230.534 198.546 138.036 201.348 77.3617 173C76.0247 172.341 74.69 171.677 73.3617 171C74.3738 191.749 78.8658 210.538 85.0753 230.32C85.3709 231.271 85.6665 232.223 85.971 233.203C86.2388 234.056 86.5066 234.908 86.7826 235.786C87.3617 238 87.3617 238 87.3617 241C84.4626 240.677 83.522 240.191 81.6156 237.918C77.4382 231.174 74.1201 224.436 71.3617 217C70.8396 215.618 70.8396 215.618 70.307 214.207C65.3524 200.284 63.0691 185.903 61.1117 171.313C60.9363 170.011 60.761 168.71 60.5804 167.37C58.3609 150.157 58.3609 150.157 61.7952 144.82C77.318 126.781 108.036 122.744 130.362 120C131.241 119.892 132.121 119.783 133.027 119.672C135.741 119.348 138.456 119.044 141.174 118.75C142.005 118.658 142.835 118.565 143.691 118.47C148.1 118.033 152.016 117.865 156.362 119C158.639 121.899 158.421 124.431 158.362 128C157.457 128.095 156.553 128.19 155.621 128.288C116.86 131.414 116.86 131.414 81.1038 145.047C79.3617 146 79.3617 146 77.3617 146C77.3617 146.66 77.3617 147.32 77.3617 148C76.7017 148 76.0417 148 75.3617 148C74.4189 151.256 74.4189 151.256 74.3617 155C77.1772 158.727 79.9261 160.606 84.3617 162C85.0629 161.258 85.7642 160.515 86.4867 159.75C98.0689 148.671 116.273 144.575 131.987 144.75C134.112 144.812 136.238 144.887 138.362 145C137.867 146.485 137.867 146.485 137.362 148C134.578 148.894 131.892 149.604 129.049 150.25C121.794 152.026 114.723 154.089 107.674 156.563C106.862 156.843 106.05 157.124 105.214 157.413C100.042 159.253 95.2272 161.459 90.3617 164C90.3617 164.66 90.3617 165.32 90.3617 166C120.227 174.377 149.45 177.363 180.441 177.206C184.187 177.187 187.933 177.185 191.68 177.186C208.72 177.162 225.543 176.866 242.424 174.313C243.554 174.145 244.683 173.977 245.847 173.804C257.543 171.97 268.954 169.133 280.362 166C280.362 165.34 280.362 164.68 280.362 164C254.923 144.012 212.006 145.853 181.362 144C181.857 142.515 181.857 142.515 182.362 141C189.167 140.896 195.972 140.828 202.778 140.78C205.081 140.761 207.383 140.733 209.686 140.698C233.305 140.347 267.84 140.153 286.237 157.75C286.938 158.493 287.639 159.235 288.362 160C291.435 161.411 291.435 161.411 294.487 159.5C297.63 157.203 297.63 157.203 298.487 153.5C298.708 150.034 298.708 150.034 296.784 148C293.899 145.618 290.869 144.032 287.487 142.5C286.82 142.197 286.154 141.893 285.467 141.581C260.702 130.621 231.97 129.07 205.267 128.341C198.263 128.146 191.331 127.733 184.362 127C183.124 123.424 183.612 120.663 184.362 117Z" fill="#E5C997"/>
<path d="M333.174 262.5C333.865 262.854 334.557 263.208 335.269 263.572C346.278 269.407 356.915 277.674 360.885 289.941C362.518 296.995 361.471 302.218 357.951 308.527C344.311 329.742 316.506 337.857 293.361 344C292.312 344.284 292.312 344.284 291.241 344.573C271.398 349.852 250.813 352.543 230.361 354C229.19 354.087 229.19 354.087 227.994 354.175C181.066 357.459 128.819 357.625 83.3613 344C83.3613 343.01 83.3613 342.02 83.3613 341C96.2196 337.814 108.834 339.171 121.861 340.438C143.241 342.504 164.506 343.239 185.986 343.25C187.194 343.251 188.402 343.251 189.646 343.252C209.386 343.235 228.783 342.575 248.361 340C249.015 339.915 249.669 339.83 250.343 339.743C281.955 335.61 321.441 329.791 344.873 305.957C348.351 301.383 349.041 296.631 348.361 291C344.515 279.462 331.93 272.807 321.736 267.68C317.699 265.839 313.605 264.306 309.361 263C309.691 262.01 310.021 261.02 310.361 260C318.569 256.65 325.597 258.572 333.174 262.5Z" fill="#E5C997"/>
<path d="M367.018 162.906C374.123 169.254 377.428 177.332 378.748 186.762C379.267 199.011 374.273 209.228 367.361 219C366.701 219.99 366.041 220.98 365.361 222C364.701 222 364.041 222 363.361 222C363.361 222.66 363.361 223.32 363.361 224C362.701 224 362.041 224 361.361 224C361.361 224.66 361.361 225.32 361.361 226C359.503 227.636 357.645 229.136 355.674 230.625C355.163 231.026 354.652 231.427 354.125 231.84C343.778 239.75 332.871 245.411 320.799 250.187C319.562 250.686 318.326 251.185 317.09 251.686C312.43 253.568 307.768 255.447 303.091 257.286C296.861 259.786 291.303 262.631 285.736 266.375C283.307 267.999 280.888 269.523 278.361 271C277.701 270.67 277.041 270.34 276.361 270C277.758 261.516 285.563 253.075 291.361 247C292.021 247 292.681 247 293.361 247C293.361 246.34 293.361 245.68 293.361 245C301.03 240.409 308.723 236.315 316.861 232.625C333.15 225.138 346.868 215.161 354.506 198.504C356.061 193.952 356.554 188.536 354.463 184.09C353.488 182.683 352.43 181.336 351.361 180C351.361 179.34 351.361 178.68 351.361 178C350.701 178 350.041 178 349.361 178C349.361 177.01 349.361 176.02 349.361 175C353.35 175.57 356.152 176.532 359.361 179C362.704 183.871 364.15 188.245 365.361 194C365.838 187.44 364.811 182.66 361.361 177C359.003 174.528 359.003 174.528 356.361 173C355.532 172.47 355.532 172.47 354.686 171.93C348.571 169.484 339.793 169.985 333.521 171.84C327.949 174.669 324.731 178.864 321.361 184C319.822 186.246 319.822 186.246 318.361 188C317.701 188 317.041 188 316.361 188C315.15 184.367 315.216 181.03 315.236 177.25C315.231 176.214 315.231 176.214 315.225 175.156C315.247 163.433 315.247 163.433 318.549 159.187C331.987 148.736 354.673 153.115 367.018 162.906ZM363.361 197C364.361 201 364.361 201 364.361 201L363.361 197ZM362.361 201C363.361 203 363.361 203 363.361 203L362.361 201Z" fill="#E5C997"/>
<path d="M99.3613 299C103.764 302.882 107.81 306.967 111.373 311.637C115.172 316.152 120.586 318.721 126.299 320C129.361 321 129.361 321 130.861 323.5C131.361 326 131.361 326 130.361 328C124.807 329.805 120.531 328.134 115.361 326C114.755 325.615 114.15 325.229 113.525 324.832C110.154 323.536 107.84 324.16 104.361 325C101.787 326.239 99.4372 327.75 97.0488 329.312C95.7141 330.134 94.3769 330.952 93.0371 331.766C92.0793 332.349 92.0793 332.349 91.1021 332.943C80.3489 339.471 67.5447 340.098 55.3481 337.311C49.6618 335.715 44.1265 333.761 38.5806 331.739C35.8727 330.837 33.1934 330.331 30.3613 330C30.6913 328.68 31.0213 327.36 31.3613 326C34.0013 325.67 36.6413 325.34 39.3613 325C39.0313 323.68 38.7013 322.36 38.3613 321C31.7155 322.983 25.7237 324.938 20.0801 329.047C18.3613 330 18.3613 330 14.3613 330C14.8481 325.306 16.9966 322.335 19.8613 318.75C20.3106 318.18 20.7598 317.61 21.2227 317.023C40.9874 292.345 71.1204 278.806 99.3613 299ZM57.3613 304C59.0026 306.525 59.7575 307.581 62.3613 309C67.0547 309.452 71.6601 309.286 76.3613 309C69.854 304.662 65.0693 303.528 57.3613 304ZM81.3613 306C81.6913 306.99 82.0213 307.98 82.3613 309C83.3513 308.67 84.3413 308.34 85.3613 308C84.0413 307.34 82.7213 306.68 81.3613 306ZM89.3613 306C90.3513 307.32 91.3413 308.64 92.3613 310C93.6813 309.67 95.0013 309.34 96.3613 309C93.1074 306.741 93.1074 306.741 89.3613 306ZM42.3613 312C42.0313 312.66 41.7013 313.32 41.3613 314C44.6613 313.67 47.9613 313.34 51.3613 313C51.3613 312.67 51.3613 312.34 51.3613 312C48.3913 312 45.4213 312 42.3613 312ZM67.3613 315C66.7013 315.66 66.0413 316.32 65.3613 317C65.6913 317.99 66.0213 318.98 66.3613 320C67.0213 318.35 67.6813 316.7 68.3613 315C68.0313 315 67.7013 315 67.3613 315ZM80.3613 328C81.3513 328.495 81.3513 328.495 82.3613 329C84.3423 328.194 84.3423 328.194 86.4941 326.91C87.2998 326.456 88.1055 326.001 88.9355 325.533C89.7773 325.048 90.6191 324.563 91.4863 324.062C92.3358 323.581 93.1853 323.1 94.0605 322.603C96.165 321.409 98.2649 320.208 100.361 319C91.5524 313.127 85.6964 321.527 80.3613 328ZM64.3613 320C65.3613 322 65.3613 322 65.3613 322L64.3613 320Z" fill="#E5C997"/>
<path d="M17.3613 211C36.9884 211.508 57.7348 222.781 73.3613 234C74.2688 234.639 75.1763 235.279 76.1113 235.938C88.0666 244.97 97.8587 258.463 100.1 273.504C102.438 291.847 102.438 291.847 100.361 296C99.3713 296 98.3813 296 97.3613 296C97.3613 295.34 97.3613 294.68 97.3613 294C96.6511 293.939 95.9408 293.879 95.209 293.816C91.4124 292.728 89.6247 290.671 86.7988 287.938C82.5979 284.107 79.44 282.313 73.6113 282.375C71.856 282.533 70.1017 282.722 68.3613 283C68.6913 283.99 69.0213 284.98 69.3613 286C61.7952 286.926 54.3501 281.086 48.3613 277C41.7215 271.462 37.4296 264.031 34.3613 256C34.3613 254.68 34.3613 253.36 34.3613 252C40.1113 252.875 40.1113 252.875 42.3613 254C41.758 253.599 41.1548 253.198 40.5332 252.785C33.4384 247.739 30.9902 243.315 28.4863 235.145C26.4142 228.47 23.8471 223.127 19.8496 217.375C18.4693 215.172 17.8018 213.537 17.3613 211ZM35.3613 227C35.9011 230.475 35.9011 230.475 37.3613 234C40.186 235.353 42.2379 236 45.3613 236C43.7728 231.711 40.9301 229.677 37.3613 227C36.7013 227 36.0413 227 35.3613 227ZM52.3613 237C51.7013 237.66 51.0413 238.32 50.3613 239C49.3713 239 48.3813 239 47.3613 239C48.9773 241.041 50.647 243.041 52.3613 245C53.0213 245 53.6813 245 54.3613 245C54.6295 245.784 54.8976 246.567 55.1738 247.375C56.2095 250.281 56.2095 250.281 59.3613 252C58.9111 246.147 56.3229 241.918 53.3613 237C53.0313 237 52.7013 237 52.3613 237ZM65.3613 247C63.8926 251.406 62.9474 254.501 64.3613 259C64.6913 259.66 65.0213 260.32 65.3613 261C66.0213 261 66.6813 261 67.3613 261C67.5882 261.577 67.8151 262.155 68.0488 262.75C69.6917 265.566 71.7567 267.081 74.3613 269C74.8996 262.406 74.1559 258.402 70.3613 253C69.9914 252.417 69.6214 251.835 69.2402 251.234C68.3224 249.795 67.3469 248.393 66.3613 247C66.0313 247 65.7013 247 65.3613 247ZM80.3613 262C79.3444 266.116 78.8117 269.776 79.3613 274C81.5634 276.835 83.9277 278.767 86.7676 280.953C90.1267 283.604 92.0747 286.418 94.3613 290C95.7358 286.958 95.7358 286.958 94.1035 283.891C93.4931 282.671 92.8699 281.458 92.2363 280.25C91.9145 279.621 91.5926 278.992 91.261 278.344C88.9506 273.912 86.38 269.967 83.3613 266C82.6546 264.687 81.9617 263.364 81.3613 262C81.0313 262 80.7013 262 80.3613 262ZM68.3613 274C68.6913 275.32 69.0213 276.64 69.3613 278C70.3513 278 71.3413 278 72.3613 278C72.3613 277.34 72.3613 276.68 72.3613 276C71.0413 275.34 69.7213 274.68 68.3613 274Z" fill="#E5C997"/>
<path d="M160.924 246.687C161.661 246.682 162.398 246.677 163.158 246.671C167.895 246.733 171.862 247.516 176.361 249C175.701 250.65 175.041 252.3 174.361 254C173.701 254 173.041 254 172.361 254C172.115 254.791 171.869 255.583 171.615 256.398C166.444 271.251 159.813 288.483 145.693 296.891C138.124 300.491 129.735 302.457 121.361 302C118.924 301 118.924 301 117.361 300C117.691 299.34 118.021 298.68 118.361 298C120.694 297.371 123.054 296.845 125.424 296.375C127.359 295.984 127.359 295.984 129.334 295.586C130.333 295.393 131.332 295.199 132.361 295C128.571 293.59 125.411 292.452 121.361 293C118.468 294.43 118.468 294.43 115.674 296.375C114.721 297.001 113.768 297.628 112.787 298.273C110.328 299.922 110.328 299.922 108.361 302C107.371 302 106.381 302 105.361 302C105.679 296.751 108.594 293.408 112.361 290C113.618 289.447 114.889 288.925 116.174 288.438C118.044 287.664 118.044 287.664 119.361 286C120.285 281.33 120.405 276.752 120.361 272C116.025 278.06 112.469 284.369 109.166 291.033C106.684 295.892 106.684 295.892 103.361 297C102.47 283.97 104.734 272.719 113.029 262.258C114.361 261 114.361 261 116.361 261C116.361 260.34 116.361 259.68 116.361 259C122.004 254.107 128.175 251.625 135.361 250C136.535 249.722 137.71 249.443 138.92 249.156C146.26 247.532 153.402 246.721 160.924 246.687ZM157.361 258C155.796 262.365 155.218 264.428 156.361 269C158.341 265.04 160.321 261.08 162.361 257C159.436 256.776 159.436 256.776 157.361 258ZM145.361 259C143.647 260.959 141.977 262.959 140.361 265C140.691 265.66 141.021 266.32 141.361 267C143.671 265.35 145.981 263.7 148.361 262C148.031 261.01 147.701 260.02 147.361 259C146.701 259 146.041 259 145.361 259ZM134.361 263C133.35 264.075 132.377 265.186 131.424 266.312C130.899 266.927 130.374 267.542 129.834 268.176C126.99 271.699 125.964 274.269 125.236 278.688C125.068 279.681 124.901 280.675 124.728 281.699C124.607 282.458 124.486 283.218 124.361 284C128.629 281.74 132.918 279.269 135.361 275C135.863 270.95 135.716 267.059 135.361 263C135.031 263 134.701 263 134.361 263ZM152.361 276C152.691 276.66 153.021 277.32 153.361 278C153.691 277.34 154.021 276.68 154.361 276C153.701 276 153.041 276 152.361 276ZM132.236 284.938C130.137 286.782 130.137 286.782 130.361 289C139.288 289.967 139.288 289.967 147.174 286.625C149.574 284.313 149.574 284.313 149.361 282C140.397 281.828 140.397 281.828 132.236 284.938Z" fill="#E5C997"/>
<path d="M155.361 43C154.355 46.1723 153.352 49.0168 151.736 51.9375C148.873 58.6296 149.124 67.0887 151.287 73.9258C154.852 81.0244 160.307 86.7948 165.518 92.7148C173.06 101.337 179.373 111.516 178.807 123.395C177.345 131.947 173.209 140.483 166.361 146C165.371 146 164.381 146 163.361 146C163.807 142.884 164.33 140.085 165.424 137.125C167.781 129.268 166.093 123.086 162.361 116C158.89 110.696 154.592 106.142 150.299 101.5C142.631 93.121 136.446 84.7074 136.049 72.9375C137.021 60.6931 140.974 52.5761 150.275 44.4336C152.361 43 152.361 43 155.361 43Z" fill="#E5C997"/>
<path d="M192.361 0C198.981 3.24217 204.156 7.6328 207.529 14.3125C210.042 22.4271 209.324 31.0584 205.611 38.625C203.978 41.5702 202.292 44.0846 200.154 46.6914C198.112 48.8175 198.112 48.8175 198.424 51.3125C198.352 54.3854 197.712 55.2938 196.049 57.8125C191.694 64.4184 188.972 70.9785 190.361 79C191.726 82.8315 193.496 86.3902 195.361 90C196.299 91.8957 197.237 93.7915 198.174 95.6875C198.901 97.126 199.629 98.564 200.361 100C197.28 100.291 195.777 100.276 193.158 98.5391C192.145 97.5916 192.145 97.5916 191.111 96.625C190.426 95.9985 189.74 95.372 189.033 94.7266C187.361 93 187.361 93 186.361 91C185.041 91 183.721 91 182.361 91C176.899 86.6887 173.467 80.8294 172.361 74C171.455 60.589 180.575 49.9065 188.335 39.9377C193.894 32.6961 198.127 25.8366 197.764 16.4883C197.2 13.0016 195.894 10.1251 194.318 6.98438C193.215 4.69716 192.686 2.51448 192.361 0ZM186.361 62C184.643 64.2517 184.643 64.2517 183.361 67C183.691 68.32 184.021 69.64 184.361 71C185.351 68.03 186.341 65.06 187.361 62C187.031 62 186.701 62 186.361 62ZM182.361 71C182.361 75.29 182.361 79.58 182.361 84C182.691 84 183.021 84 183.361 84C183.361 79.71 183.361 75.42 183.361 71C183.031 71 182.701 71 182.361 71ZM183.361 85C184.361 87 184.361 87 184.361 87L183.361 85ZM184.361 87C185.361 89 185.361 89 185.361 89L184.361 87Z" fill="#E5C997"/>
<path d="M111.361 357C117.115 357.418 122.522 358.478 128.111 359.875C134.717 361.5 141.315 362.724 148.049 363.687C148.866 363.807 149.684 363.926 150.526 364.048C162.929 365.746 175.354 366.21 187.861 366.187C188.905 366.186 188.905 366.186 189.97 366.185C212.294 366.12 234.889 364.245 256.4 357.852C259.521 356.954 262.131 356.842 265.361 357C263.984 361.131 261.992 361.72 258.24 363.676C219.594 381.452 163.49 380.186 123.904 365.738C114.876 362.103 114.876 362.103 111.361 359C111.361 358.34 111.361 357.68 111.361 357Z" fill="#E5C997"/>
<path d="M257.361 285C264.731 285.387 269.46 288.699 274.361 294C275.946 297.17 275.655 300.54 275.361 304C274.361 306.5 274.361 306.5 273.361 308C272.701 308 272.041 308 271.361 308C271.361 308.66 271.361 309.32 271.361 310C270.701 310 270.041 310 269.361 310C269.361 310.66 269.361 311.32 269.361 312C253.511 320.481 238.525 324.484 220.714 326.702C218.65 326.963 216.591 327.262 214.533 327.566C195.281 329.93 175.443 327.744 156.361 325C155.423 324.872 154.485 324.744 153.519 324.612C150.963 324.26 148.412 323.886 145.861 323.5C145.119 323.394 144.377 323.288 143.613 323.178C141.58 322.844 141.58 322.844 138.361 322C137.701 321.01 137.041 320.02 136.361 319C139.581 317.983 141.956 318.052 145.279 318.559C180.758 323.538 229.847 326.726 261.049 306.125C263.844 303.855 264.359 303.007 265.611 299.438C265.303 295.204 264.333 293.972 261.361 291C260 289.608 260 289.608 258.611 288.188C257.869 287.466 257.126 286.744 256.361 286C256.691 285.67 257.021 285.34 257.361 285Z" fill="#E5C997"/>
<path d="M178.236 155.812C179.235 155.812 180.233 155.812 181.261 155.812C218.266 155.844 218.266 155.844 231.361 160C231.031 160.66 230.701 161.32 230.361 162C229.102 162.022 229.102 162.022 227.817 162.044C209.514 162.398 191.805 163.068 173.978 167.59C158.713 171.448 141.578 173.072 126.361 168C125.174 165.937 125.174 165.937 124.361 164C130.069 157.391 140.716 157.149 148.869 156.453C158.646 155.743 168.439 155.803 178.236 155.812Z" fill="#E5C997"/>
<path d="M28.0965 265.043C30.3621 266 30.3621 266 31.6746 268.062C32.0149 269.022 32.0149 269.022 32.3621 270C31.5771 270.557 30.792 271.114 29.9832 271.687C17.734 280.154 17.734 280.154 11.3621 293C11.6014 295.345 11.9567 297.678 12.3621 300C12.5932 302.248 12.7997 304.498 12.9871 306.75C13.0825 307.859 13.1779 308.967 13.2762 310.109C13.3621 313 13.3621 313 12.3621 316C9.74025 314.951 8.56841 314.351 7.11213 311.875C6.74088 310.947 6.74088 310.947 6.36213 310C5.70213 310 5.04213 310 4.36213 310C0.490903 303.588 -0.680476 298.474 0.362126 291C3.3803 280.107 13.6879 272.348 22.5653 266.301C25.3621 265 25.3621 265 28.0965 265.043Z" fill="#E5C997"/>
<path d="M297.361 278C307.859 279.449 318.583 283.988 325.299 292.438C327.014 296.574 327.785 300.223 326.736 304.625C322.332 312.233 313.546 317.232 305.361 320C304.041 320 302.721 320 301.361 320C301.361 319.01 301.361 318.02 301.361 317C302.971 315.57 302.971 315.57 305.111 314.125C309.707 310.821 312.498 307.906 314.861 302.688C315.538 297.7 314.287 295.005 311.361 291C308.094 287.572 304.3 284.941 300.424 282.25C299.413 281.507 298.403 280.765 297.361 280C297.361 279.34 297.361 278.68 297.361 278Z" fill="#E5C997"/>
<path d="M78.2363 312.562C78.9376 312.707 79.6388 312.851 80.3613 313C79.3713 313.66 78.3813 314.32 77.3613 315C74.6111 317.605 72.1265 320.271 69.7988 323.25C67.3284 326.037 66.7848 326.392 63.3613 327C64.786 325.338 66.2121 323.677 67.6465 322.023C68.7682 320.7 69.8612 319.351 70.9199 317.977C74.7579 313.092 74.7579 313.092 78.2363 312.562Z" fill="#E5C997"/>
<path d="M82.3613 311C82.3613 312.32 82.3613 313.64 82.3613 315C79.6947 315 77.028 315 74.3613 315C73.7013 315.66 73.0413 316.32 72.3613 317C72.3613 315.35 72.3613 313.7 72.3613 312C75.767 311.222 78.869 310.9 82.3613 311Z" fill="#E5C997"/>
<path d="M149.361 278C144.611 281 144.611 281 142.361 281C142.361 280.34 142.361 279.68 142.361 279C141.371 278.67 140.381 278.34 139.361 278C143.024 277.251 145.785 276.762 149.361 278Z" fill="#E5C997"/>
</svg>
