<svg width="1280" height="31" viewBox="0 0 1280 31" fill="none" xmlns="http://www.w3.org/2000/svg">
<path d="M1278 13.2507C1268.31 13.284 1258.62 13.3173 1248.92 13.3507C1074.46 13.9507 899.998 14.5507 725.535 15.1507C715.843 15.184 706.15 15.2173 696.458 15.2507C695.927 15.2525 695.419 15.0434 695.044 14.6683C694.669 14.2933 694.458 13.783 694.459 13.2507C694.459 12.7184 694.67 12.2081 695.045 11.833C695.42 11.4579 695.929 11.2488 696.459 11.2507C706.152 11.284 715.844 11.3173 725.537 11.3507C899.999 11.9507 1074.46 12.5507 1248.92 13.1507C1258.62 13.184 1268.31 13.2173 1278 13.2507Z" fill="#8B5A2B"/>
<path d="M1.9992 13.2507C11.6916 13.284 21.384 13.3173 31.0763 13.3507C205.539 13.9507 380.002 14.5507 554.465 15.1507C564.157 15.184 573.85 15.2173 583.542 15.2507C584.073 15.2525 584.581 15.0434 584.956 14.6683C585.331 14.2933 585.542 13.783 585.541 13.2507C585.541 12.7184 585.33 12.2081 584.955 11.833C584.58 11.4579 584.071 11.2488 583.541 11.2507C573.848 11.284 564.156 11.3173 554.463 11.3507C380.001 11.9507 205.539 12.5507 31.0763 13.1507C21.3839 13.184 11.6916 13.2173 1.9992 13.2507Z" fill="#8B5A2B"/>
<path d="M605.53 28.9549L607.692 30.2507C612.665 25.4018 617.942 17.4672 635.306 17.3442C664.712 17.1377 674.616 2.77564 674.472 2.73384C634.009 -9.14726 608.493 25.2666 605.527 28.9499V28.9549H605.53ZM658.905 11.1332C649.859 15.1239 641.505 13.8871 641.505 13.8871C641.505 13.8871 655.383 10.6537 661.933 6.14916C662.284 5.90819 650.896 5.05497 645.316 7.10319C634.49 11.0767 622.58 15.9796 622.58 15.9796C622.58 15.9796 629.849 8.42359 645.458 4.32716C654.927 1.84374 669.531 3.89441 669.531 3.89441C669.531 3.89441 663.497 9.10714 658.905 11.1308V11.1332Z" fill="#8B5A2B"/>
<path d="M658.905 11.1308C663.497 9.10714 669.531 3.89441 669.531 3.89441C669.531 3.89441 654.927 1.84374 645.458 4.32716C629.849 8.42359 622.58 15.9796 622.58 15.9796C622.58 15.9796 634.49 11.0767 645.316 7.10318C650.896 5.05497 662.284 5.90819 661.933 6.14916C655.383 10.6537 641.505 13.8871 641.505 13.8871C641.505 13.8871 649.859 15.1239 658.905 11.1332V11.1308ZM658.905 11.1308H658.903M605.53 28.9549L607.692 30.2507C612.665 25.4018 617.942 17.4672 635.306 17.3442C664.712 17.1377 674.616 2.77564 674.472 2.73384C634.009 -9.14726 608.493 25.2666 605.527 28.9499V28.9549H605.53Z" stroke="#8B5A2B" stroke-width="0.5" stroke-miterlimit="10"/>
</svg>
