<svg width="18" height="18" viewBox="0 0 18 18" fill="none" xmlns="http://www.w3.org/2000/svg">
<g clip-path="url(#clip0_362_3)">
<path d="M13.83 7.805L9.00001 3L4.17001 7.805C4.11302 7.8484 4.06603 7.90353 4.0322 7.96667C3.99837 8.0298 3.97851 8.09947 3.97395 8.17096C3.96938 8.24244 3.98024 8.31407 4.00576 8.38099C4.03129 8.44792 4.0709 8.50858 4.12191 8.55886C4.17292 8.60915 4.23414 8.64789 4.30142 8.67246C4.36871 8.69703 4.44048 8.70685 4.51189 8.70127C4.5833 8.69569 4.65268 8.67483 4.71533 8.64011C4.77798 8.60538 4.83243 8.5576 4.87501 8.5L8.50001 4.905V14.47C8.50001 14.6026 8.55269 14.7298 8.64646 14.8236C8.74022 14.9173 8.8674 14.97 9.00001 14.97C9.13262 14.97 9.2598 14.9173 9.35356 14.8236C9.44733 14.7298 9.50001 14.6026 9.50001 14.47V4.905L13.125 8.5C13.2192 8.59349 13.3466 8.64575 13.4793 8.64528C13.612 8.64481 13.739 8.59165 13.8325 8.4975C13.926 8.40335 13.9783 8.27591 13.9778 8.14323C13.9773 8.01055 13.9242 7.88349 13.83 7.79V7.805Z" fill="white"/>
</g>
<defs>
<clipPath id="clip0_362_3">
<rect width="18" height="18" fill="white"/>
</clipPath>
</defs>
</svg>
