<svg width="297" height="14" viewBox="0 0 297 14" fill="none" xmlns="http://www.w3.org/2000/svg">
<path d="M134.099 12.3915L135.083 12.9396C137.345 10.8887 139.747 7.53256 147.649 7.48056C161.029 7.39319 165.537 1.3185 165.471 1.30082C147.058 -3.72451 135.447 10.8315 134.098 12.3894V12.3915H134.099ZM158.387 4.85349C154.271 6.54143 150.469 6.0183 150.469 6.0183C150.469 6.0183 156.784 4.65069 159.765 2.74539C159.925 2.64347 154.742 2.28258 152.203 3.14891C147.277 4.82957 141.858 6.90335 141.858 6.90335C141.858 6.90335 145.165 3.7074 152.268 1.97474C156.577 0.924334 163.222 1.7917 163.222 1.7917C163.222 1.7917 160.477 3.99652 158.387 4.85245V4.85349Z" fill="#C89A4B"/>
<path d="M158.387 4.85245C160.477 3.99652 163.222 1.7917 163.222 1.7917C163.222 1.7917 156.577 0.924334 152.268 1.97474C145.165 3.7074 141.858 6.90335 141.858 6.90335C141.858 6.90335 147.277 4.82957 152.203 3.14891C154.742 2.28258 159.925 2.64347 159.765 2.74539C156.784 4.65069 150.469 6.0183 150.469 6.0183C150.469 6.0183 154.271 6.54143 158.387 4.85349V4.85245ZM158.387 4.85245H158.386M134.099 12.3915L135.083 12.9396C137.345 10.8887 139.747 7.53256 147.649 7.48055C161.029 7.39319 165.537 1.3185 165.471 1.30082C147.058 -3.72451 135.447 10.8315 134.098 12.3894V12.3915H134.099Z" stroke="#C89A4B" stroke-width="0.5" stroke-miterlimit="10"/>
<path d="M1.5 4.74187C3.55845 4.76687 5.6169 4.79187 7.67535 4.81687C44.7275 5.26688 81.7796 5.71688 118.832 6.16688C120.89 6.19188 122.949 6.21688 125.007 6.24188C125.405 6.24678 125.786 6.09304 126.068 5.81165C126.349 5.53043 126.507 5.14461 126.507 4.74188C126.507 4.33916 126.349 3.95334 126.068 3.67212C125.786 3.39073 125.405 3.23699 125.007 3.24188C122.949 3.26688 120.89 3.29188 118.832 3.31688C81.7796 3.76688 44.7275 4.21688 7.67535 4.66687C5.6169 4.69187 3.55845 4.71687 1.5 4.74187Z" fill="#C89A4B"/>
<path d="M294.791 4.43957C292.733 4.46457 290.674 4.48957 288.616 4.51457C251.564 4.96457 214.511 5.41457 177.459 5.86457C175.401 5.88957 173.342 5.91457 171.284 5.93957C170.886 5.94447 170.505 5.79073 170.223 5.50934C169.942 5.22812 169.784 4.84229 169.784 4.43957C169.784 4.03685 169.942 3.65102 170.223 3.3698C170.505 3.08841 170.886 2.93467 171.284 2.93957C173.342 2.96457 175.401 2.98957 177.459 3.01457C214.511 3.46457 251.564 3.91457 288.616 4.36457C290.674 4.38957 292.733 4.41457 294.791 4.43957Z" fill="#C89A4B"/>
</svg>
